<svg xmlns="http://www.w3.org/2000/svg" viewBox="0 0 2270.53 1011.32"><defs><style>.cls-1{fill-rule:evenodd;}</style></defs><g id="Слой_2" data-name="Слой 2"><g id="Layer_1" data-name="Layer 1"><path class="cls-1" d="M458.5,0h-323V134.46H324.11l1.27,876.86H458.5V0ZM1781.23,127.08v4.4l.41,4.4.58,4.4.71,4.26,1,4.25,1.13,4.11,1.4,4.12,1.55,4,1.85,3.83,1.86,3.82,2.11,3.7,2.26,3.56,2.57,3.39,2.57,3.27,2.69,3.27,3,3,3,3,3.25,2.69,3.29,2.57,3.4,2.55,3.54,2.27,3.67,2.13,3.86,1.85,3.81,1.83,4,1.57,4.13,1.42,4.11,1.13,4.27,1,4.23.7,4.42.57,4.39.44h9.11l4.37-.44,4.54-.57,4.38-.7,4.27-1,4.12-1.13,4.11-1.42,4-1.57,4-1.83,3.7-1.85,3.7-2.13,3.51-2.27,3.45-2.55,3.24-2.57,3.26-2.69,3-3,2.84-3,2.72-3.27,2.54-3.27,2.41-3.39,2.27-3.56,2.16-3.7,1.81-3.82,1.85-3.83,1.44-4,1.39-4.12,1.13-4.11,1-4.25.68-4.26.61-4.4.26-4.4.16-4.4-.16-4.56-.26-4.4-.61-4.4-.68-4.25-1-4.12-1.13-4.12L1951,97.11l-1.44-3.83-1.85-3.82-1.81-3.7-2.16-3.69-2.27-3.55L1939,75.26,1936.49,72l-2.72-3.13-2.84-3-3-2.83-3.26-2.7-3.24-2.56L1918,55.38l-3.51-2.27L1910.8,51l-3.7-1.85-4-1.7-4-1.56L1895,44.59l-4.12-1.14-4.27-1-4.38-.73-4.54-.56-4.37-.42h-9.11l-4.39.42-4.42.56-4.23.73-4.27,1-4.11,1.14-4.13,1.27-4,1.56-3.81,1.7L1827.06,51l-3.67,2.14-3.54,2.27-3.4,2.41-3.29,2.56-3.25,2.7-3,2.83-3,3L1801.25,72l-2.57,3.27-2.57,3.26-2.26,3.55-2.11,3.69-1.86,3.7L1788,93.28l-1.55,3.83-1.4,4.12-1.13,4.12-1,4.12-.71,4.25-.58,4.4-.41,4.4v4.56Zm17.18,0,.13-3.84.3-3.7.41-3.69.57-3.68.72-3.55,1-3.4,1.14-3.42,1.14-3.27,1.43-3.25,1.55-3.13,1.7-3.13,1.85-2.85,1.85-2.83,2.12-2.83,2.16-2.55,2.37-2.55,2.42-2.42,2.42-2.27,2.68-2.14,2.73-2,3-1.85,2.83-1.85,3.11-1.55,3.14-1.44,3.12-1.26,3.25-1.14,3.4-1,3.41-.85,3.55-.57,3.55-.43,3.55-.28,3.71-.14,3.65.14,3.71.28,3.55.43,3.55.57,3.41.85,3.4,1,3.25,1.14,3.29,1.26,3.25,1.44,3,1.55,3,1.85,3,1.85,2.83,2,2.69,2.14,2.57,2.27,2.38,2.42,2.42,2.55,2.26,2.55,2.16,2.83,2,2.83,1.85,2.85,1.7,3.13,1.58,3.13,1.4,3.25,1.28,3.27,1.14,3.42,1,3.4.87,3.55.56,3.68.42,3.69.3,3.7.12,3.84-.12,3.83-.3,3.82-.42,3.86-.56,3.68-.87,3.68-1,3.55-1.14,3.56-1.28,3.4-1.4,3.41-1.58,3.27-1.7,3.12-1.85,3-2,3-2.16,2.85-2.26,2.7-2.42,2.55-2.38,2.55-2.57,2.27-2.69,2.26-2.83,2.14-3,2-3,1.7-3,1.72-3.25,1.42-3.29,1.41-3.25,1.14-3.4,1-3.41.85-3.55.7-3.55.44-3.71.28-3.65.15-3.71-.15-3.55-.28-3.55-.44-3.55-.7-3.41-.85-3.4-1-3.25-1.14-3.12-1.41-3.14-1.42-3.11-1.72-2.83-1.7-3-2-2.73-2.14-2.68-2.26-2.42-2.27-2.42-2.55-2.37-2.55-2.16-2.7-2.12-2.85-1.85-3-1.85-3-1.7-3.12-1.55-3.27-1.43-3.41-1.14-3.4-1.14-3.56-1-3.55-.72-3.68-.57-3.68-.41-3.86-.3-3.82-.13-3.83Zm39.47,43.15h16V134.46h12.36l3.25.13,2.82.29,2.59.44,2.26.56,1.85.85,1.55.85,1.43,1,1,1.13.83,1.13.72,1.27.56,1.28.42,1.42.15,1.42.15,1.41.15,1.43v10.36l.15,3.14.27,2.4.26,1,.16.85.3.7.42.56.41.57.45.59.57.41.68.57h16l-.71-.7-.42-.72-.46-.72-.41-.7-.56-1.41-.27-2-.3-5.25-.57-8.23-.15-3.7-.26-3.4-.3-1.7-.27-1.57-.45-1.54L1900,137l-.73-1.41-.86-1.29-1-1.28-1.12-1.14-1.44-1-1.55-1-1.7-.85-2-.85,2.41-.85,2.17-1.13,1.81-1.13,1.73-1.14,1.24-1.15,1.29-1.27,1-1.43.86-1.27.72-1.28.43-1.42.4-1.29.3-1.26.42-2.7v-4.4l-.15-1.84-.27-1.85-.45-1.71-.41-1.56-.57-1.57-.72-1.26-.56-1.42-.84-1.13-.86-1.16-.84-1-1-1-1-.85-1-.85-1.13-.72-1.14-.7-2.26-1.13-2.43-1-2.26-.57-2.42-.57-2.26-.41-2.15-.15-1.82-.15h-40v86.32Zm16-75.25h18l2,.15,1.85.28,1.7.29,1.74.41,1.55.59,1.28.56,1.25.85,1.29.85,1,1,.87,1,.72,1.29.57,1.42.41,1.42.3,1.7v3l-.15,1.14-.15,1.13-.3,1.29-.42,1.13-.42,1.13-.72,1-.71,1-1,1-1.13.85-1.29.84-1.55.58-1.7.56-1.86.44-2.26.13-2.43.15h-18.43V95Zm416.64,689.47H1086l-14.78-.46-14.47-1.12-14.32-1.75-14.06-2.49-13.75-3.17-13.5-3.86-13.33-4.53-12.92-4.91-12.63-5.82-12.33-6.28L938,743.26l-11.51-7.41-11.2-7.93-10.64-8.38-10.37-8.93-9.93-9.51L875,691.27l-8.94-10.35-8.39-10.81-7.93-11-7.39-11.64-7-11.94-6.24-12.25-5.69-12.62-5.1-13.07L814,584.41l-3.85-13.53L807,557.12l-2.55-14-1.86-14.36-1-14.47-.44-14.75.29-14.63,1-14.49,1.55-14.19,2.41-14.05,3-13.78,3.68-13.62,4.41-13.36,5-13.05L828,375.53l6.1-12.34,6.67-12.08,7.37-11.79L856,328,864.22,317l8.93-10.5,9.24-10.07,9.79-9.66,10.36-9.08,10.63-8.66,11.07-8.1,11.51-7.67,11.9-7L960,239.82,972.63,234l13.07-5.26L998.89,224l13.62-3.84,13.91-3.25,14.19-2.7,14.47-1.85,14.78-1.13,14.89-.44,14.47.44,14.34,1.13,14.19,2,13.9,2.57,13.77,3.4,13.62,4.12,13.2,4.68,13.07,5.39,12.77,6.11,12.32,6.69,12.09,7.23,11.75,7.95,11.38,8.37,10.91,9.09L1277,289.5l10.21,10.07,9.66,10.51,9.07,11.07,8.65,11.51,8.25,11.91,7.66,12.49,7,12.79,6.5,13.21,6,13.62,5.25,13.93,4.69,14.32,4,14.49,3.29,14.91,2.54,15.34,2,15.45,1.14,15.63.26,16H1240l-.15-8.93-.42-8.67-.87-8.65-1.28-8.37-1.4-8.37-1.85-8.11-2.16-7.95-2.38-7.81-2.71-7.66-3.1-7.39-3.29-7.09-3.67-7-4-6.8-4.28-6.38-4.53-6.26-4.69-5.95-5.1-5.69-5.4-5.4-5.67-5-5.81-4.82-6.13-4.4-6.53-4.12-6.66-3.83-6.82-3.42-7.23-3.12-7.37-2.7-7.68-2.27-7.8-1.85-8.24-1.55-8.21-1.13-8.65-.57-8.81-.28-8.8.28-8.5.57-8.39,1.13-8.09,1.55-7.94,1.85-7.67,2.27-7.36,2.7-7.11,3.12-6.95,3.42-6.67,3.83-6.39,4.12-6.25,4.4-5.82,4.82-5.66,5-5.26,5.4-5.1,5.69-4.84,5.95-4.54,6.26L961.56,414l-3.82,6.8-3.7,7-3.4,7.09-3,7.39-2.83,7.66-2.42,7.81-2.11,7.95-1.86,8.11L937,482.16l-1.13,8.37-.86,8.65-.56,8.67-.15,8.93.3,7.1.56,7,1.14,6.95,1.42,6.73,2,6.65,2.12,6.35,2.69,6.42,3,6.12,3.27,6,3.55,5.82,4,5.66,4.25,5.37,4.55,5.29,4.67,5,5.12,4.92,5.26,4.52,5.38,4.47,5.69,4.08,5.94,4,6.11,3.71,6.23,3.39,6.39,3.1,6.54,2.95,6.66,2.57,6.67,2.42,7,2,7,1.9,7,1.43,7.11,1.14,7.08.83,7.24.45,7.1.23H2270.53V784.45Zm-573.77,76.33h573.77V995.22H1087.16L1062,994.7l-24.82-1.89-24.7-2.8-24.12-4.15-23.84-5.07-23.28-6.26-23-7.41-22.42-8.33L874,949.5l-21.42-10.35L831.88,928l-20.17-12.24-19.44-13.08-18.74-14-18-14.82L738.2,858.21l-16.45-16.4L706,824.58l-14.76-18L677.33,788l-13.06-19.49-12.08-20-11-20.71-10.09-21.31-8.94-21.84-7.8-22.45L607.49,639l-5.66-23.42-4.4-24.18L594.31,567l-2-24.94-.71-25.31.71-25.54L594,466.12l3.11-25,4.13-24.69L606.51,392l6.39-24,7.52-23.55,8.52-23.3,9.51-22.58L649,276.43l11.64-21.58,12.47-21,13.49-20.31,14.34-19.59,15.16-19,16.21-18.17,16.86-17.33,17.76-16.6,18.58-15.61,19.31-14.77,20-13.77,20.71-12.78,21.58-11.79,22-10.64,22.87-9.51,23.4-8.53,24-7.23,24.56-5.95,25-4.69L1034.5,4l26.12-2,26.54-.7,26.68.56,26.11,2,25.54,3.26,25.13,4.56,24.52,5.67,24.15,7,23.43,8.09,22.67,9.23,22.29,10.23,21.43,11.35L1350,75.54l20,13.34,19.42,14.34L1408,118.56l17.76,16,17,17,16.17,17.89,15.35,18.74,14.32,19.44,13.64,20.17,12.46,20.87,11.65,21.71L1537,292.62l9.48,22.86,8.7,23.41,7.36,24,6.55,24.55,5.25,25,4.11,25.42,3.1,26,1.7,26.26.72,26.67H1450.85l-.71-18.43-1.25-18.18L1446.74,462l-3-18-3.55-17.76-4.42-17.61-5-17.31-5.82-17-6.54-16.63-7.21-16.46-7.83-15.9-8.64-15.63-9.38-15L1375.51,280l-10.61-14.21-11.23-13.62-12.05-12.92L1329,226.89l-13.19-11.79L1301.86,204l-14.61-10.37L1272,184l-15.75-8.8-16.43-8.09-17-7.24-17.61-6.25-18.14-5.53-18.89-4.41-19.42-3.55-19.89-2.55-20.57-1.42-21.14-.43-21.14.43-20.73,1.7-20,2.71-19.45,3.68L987,148.94l-18.31,5.67-17.74,6.53-17,7.39-16.45,8.24-15.89,9.08-15.19,9.79-14.62,10.51-13.91,11.22-13.18,11.92L832,241.93,819.93,255l-11.2,13.63L798.1,282.82l-9.94,14.77-9.09,15.19-8.65,15.47-7.81,15.89-7.1,16.35-6.39,16.6L743.46,394l-4.82,17-4.25,17.33L731,445.81l-2.71,17.61-2,17.74-1.13,17.76-.42,17.86.57,16.09,1.26,16,2.27,16,3,15.8,3.85,15.86,4.67,15.65,5.54,15.49,6.24,15.19,6.95,14.89,7.82,14.74,8.5,14.36,9.09,14.05,9.92,13.61,10.51,13.37,11.22,12.77L827.89,753,840.23,765l13.07,11.34L866.92,787l14,10.27,14.63,9.53,15.18,8.77,15.74,8.23,16.19,7.41,16.59,6.8,17,5.81,17.59,5.06,17.89,4.32,18.3,3.25,18.73,2.41,19,1.59,19.31.38h609.6M134.39,342.88v668.44h133.1l-1.28-802.89H0V342.88H134.39"/></g></g></svg>