<?xml version="1.0" encoding="iso-8859-1"?>
<!-- Generator: Adobe Illustrator 19.0.0, SVG Export Plug-In . SVG Version: 6.00 Build 0)  -->
<svg version="1.1" id="Capa_1" xmlns="http://www.w3.org/2000/svg" xmlns:xlink="http://www.w3.org/1999/xlink" x="0px" y="0px"
	 viewBox="0 0 512.001 512.001" style="enable-background:new 0 0 512.001 512.001;" xml:space="preserve">
<g>
	<g>
		<g>
			<path d="M475.301,388.14C499.31,348.38,512,302.687,512,256.001c0-68.377-26.63-132.664-74.983-181.018
				C388.664,26.63,324.378,0,256.001,0c-37.481,0-73.602,7.919-107.36,23.536l6.336,13.692
				c31.757-14.692,65.747-22.141,101.025-22.141c61.826,0,120.089,23.146,164.923,65.321l-63.857,63.857h-77.02v15.087h61.933
				l-57.045,57.045H143.323v-56.573c0-0.242,0.229-0.472,0.472-0.472h112.207v-15.087H143.795c-8.579,0-15.559,6.979-15.559,15.559
				v56.573h-24.043v47.147h16.03v32.059h8.014v56.574c0,5.662,3.051,10.612,7.584,13.335l-55.412,55.412
				c-42.175-44.835-65.321-103.099-65.321-164.923c0-42.254,11.094-83.817,32.083-120.2c20.37-35.308,49.587-65.111,84.493-86.188
				l-7.799-12.916c-37.083,22.392-68.123,54.054-89.762,91.564C11.793,166.933,0,211.105,0,256.001
				c0,68.376,26.63,132.663,74.983,181.017c48.354,48.353,112.64,74.983,181.018,74.983c41.445,0,82.611-10.136,119.049-29.312
				c35.266-18.558,66.177-45.544,89.391-78.04l-12.276-8.77c-21.854,30.589-50.949,55.99-84.141,73.457
				c-34.28,18.04-73.018,27.576-112.023,27.576c-61.826,0-120.09-23.146-164.924-65.321l63.857-63.857h213.273
				c8.579,0,15.558-6.979,15.558-15.559v-56.573h8.015v-32.059h16.03v-47.147h-24.044v-56.574c0-5.662-3.051-10.613-7.584-13.335
				l55.412-55.411c42.174,44.833,65.321,103.097,65.321,164.923c0,43.937-11.939,86.933-34.527,124.34L475.301,388.14z
				 M363.318,159.352h4.889c0.241,0,0.471,0.229,0.471,0.472v56.573h-62.405L363.318,159.352z M119.28,248.457v-16.972h150.567
				l-16.972,16.972H119.28z M135.78,280.516h-0.471v-16.971h102.478l-16.971,16.971H135.78z M148.683,352.647h-4.888
				c-0.242,0-0.472-0.229-0.472-0.472v-56.574h62.405L148.683,352.647z M368.678,352.177c0,0.242-0.229,0.472-0.471,0.472H170.022
				l57.045-57.045h141.611V352.177z M376.693,280.516h-0.472H242.154l16.971-16.971h117.568V280.516z M392.722,231.485v16.972
				H274.213l16.972-16.972H392.722z"/>
			<rect x="159.826" y="176.321" width="16.029" height="15.087"/>
			<rect x="191.881" y="176.321" width="16.029" height="15.087"/>
			<rect x="336.146" y="320.586" width="16.029" height="15.087"/>
			<rect x="304.091" y="320.586" width="16.03" height="15.087"/>
			<rect x="272.025" y="320.586" width="16.029" height="15.087"/>
		</g>
	</g>
</g>
<g>
</g>
<g>
</g>
<g>
</g>
<g>
</g>
<g>
</g>
<g>
</g>
<g>
</g>
<g>
</g>
<g>
</g>
<g>
</g>
<g>
</g>
<g>
</g>
<g>
</g>
<g>
</g>
<g>
</g>
</svg>
