<svg id="Capa_1" enable-background="new 0 0 512 512" height="512" viewBox="0 0 512 512" width="512" xmlns="http://www.w3.org/2000/svg"><g><path d="m493.09 348.21h-156.919v-37.22h107.998c9.159 0 16.61-7.451 16.61-16.61v-273.645c0-9.159-7.451-16.61-16.61-16.61h-285.938c-4.142 0-7.5 3.358-7.5 7.5s3.358 7.5 7.5 7.5h285.938c.888 0 1.61.722 1.61 1.61v273.645c0 .888-.723 1.61-1.61 1.61h-377.463c-.888 0-1.61-.722-1.61-1.61v-273.645c0-.888.722-1.61 1.61-1.61h61.525c4.142 0 7.5-3.358 7.5-7.5s-3.358-7.5-7.5-7.5h-61.525c-9.159 0-16.61 7.451-16.61 16.61v273.645c0 9.159 7.451 16.61 16.61 16.61h107.998v37.22h-155.795c-10.427 0-18.909 8.483-18.909 18.91v121.846c0 10.427 8.482 18.909 18.909 18.909h95.647c4.142 0 7.5-3.358 7.5-7.5s-3.358-7.5-7.5-7.5h-95.647c-2.155 0-3.909-1.753-3.909-3.909v-121.846c0-2.156 1.754-3.91 3.909-3.91h474.181c2.156 0 3.91 1.754 3.91 3.91v121.846c0 2.156-1.754 3.909-3.91 3.909h-348.534c-4.142 0-7.5 3.358-7.5 7.5s3.358 7.5 7.5 7.5h348.534c10.427 0 18.91-8.482 18.91-18.909v-121.846c0-10.427-8.483-18.91-18.91-18.91zm-303.386 0v-37.22h131.467v37.22z"/><path d="m365.374 428.043c0-4.142-3.358-7.5-7.5-7.5h-269.75c-4.142 0-7.5 3.358-7.5 7.5s3.358 7.5 7.5 7.5h269.75c4.142 0 7.5-3.358 7.5-7.5z"/><path d="m468.364 428.043c0-16.211-13.189-29.4-29.4-29.4s-29.4 13.189-29.4 29.4 13.189 29.4 29.4 29.4 29.4-13.189 29.4-29.4zm-43.8 0c0-7.94 6.46-14.4 14.4-14.4s14.4 6.46 14.4 14.4-6.46 14.4-14.4 14.4c-7.941 0-14.4-6.46-14.4-14.4z"/><path d="m84.486 46.015v223.085c0 4.142 3.358 7.5 7.5 7.5h326.903c4.142 0 7.5-3.358 7.5-7.5v-223.085c0-4.142-3.358-7.5-7.5-7.5h-326.903c-4.142 0-7.5 3.358-7.5 7.5zm15 7.5h311.903v208.085h-311.903z"/><path d="m269.573 72.828h-134.277c-9.553 0-17.325 7.772-17.325 17.325v134.277c0 9.553 7.772 17.324 17.325 17.324h134.277c9.553 0 17.325-7.771 17.325-17.324v-134.277c0-9.553-7.772-17.325-17.325-17.325zm-85.903 114.66v-21.697h37.53v21.697zm37.53 15v24.266h-37.53v-24.266zm0-73.393v21.697h-37.53v-21.697zm-37.53-15v-26.267h37.53v26.267zm88.228 36.696h-35.698v-21.697h35.698zm-103.228 0h-35.699v-21.697h35.699zm-35.698 15h35.699v21.697h-35.699zm103.228 0h35.698v21.697h-35.698zm35.698-75.638v23.942h-35.698v-26.267h33.373c1.282 0 2.325 1.043 2.325 2.325zm-136.602-2.325h33.374v26.267h-35.699v-23.942c.001-1.282 1.044-2.325 2.325-2.325zm-2.324 136.602v-21.942h35.699v24.266h-33.374c-1.282 0-2.325-1.042-2.325-2.324zm136.601 2.324h-33.373v-24.266h35.698v21.942c0 1.282-1.043 2.324-2.325 2.324z"/><path d="m379.491 177.825h-55.734c-8.536 0-15.48 6.944-15.48 15.48v31.969c0 8.536 6.944 15.48 15.48 15.48h55.734c8.536 0 15.48-6.944 15.48-15.48v-31.969c0-8.536-6.944-15.48-15.48-15.48zm.48 47.449c0 .265-.215.48-.48.48h-55.734c-.265 0-.48-.215-.48-.48v-31.969c0-.265.215-.48.48-.48h55.734c.265 0 .48.215.48.48z"/><path d="m330.318 154.576h45.843c4.142 0 7.5-3.358 7.5-7.5s-3.358-7.5-7.5-7.5h-45.843c-4.142 0-7.5 3.358-7.5 7.5s3.358 7.5 7.5 7.5z"/><path d="m330.318 122.588h45.843c4.142 0 7.5-3.358 7.5-7.5s-3.358-7.5-7.5-7.5h-45.843c-4.142 0-7.5 3.358-7.5 7.5s3.358 7.5 7.5 7.5z"/></g></svg>