<?xml version="1.0" encoding="iso-8859-1"?>
<!-- Generator: Adobe Illustrator 18.1.1, SVG Export Plug-In . SVG Version: 6.00 Build 0)  -->
<svg version="1.1" id="Capa_1" xmlns="http://www.w3.org/2000/svg" xmlns:xlink="http://www.w3.org/1999/xlink" x="0px" y="0px"
	 viewBox="0 0 289.738 289.738" style="enable-background:new 0 0 289.738 289.738;" xml:space="preserve">
<g>
	<path id="path27088" d="M95.325,49.87c-2.106,0.033-3.966,1.383-4.65,3.375L50.667,169.868H5.071c-6.762-0.096-6.762,10.096,0,10
		h49.166c2.136,0,4.035-1.357,4.729-3.377L95.8,69.122l68.139,167.629c1.637,4.026,7.277,4.191,9.146,0.268l27.225-57.15h30.094v25
		c0,2.578,2.09,4.667,4.667,4.667c0.846,0,1.676-0.23,2.401-0.665l50-30c2.21-1.326,2.927-4.193,1.601-6.403
		c-0.394-0.657-0.944-1.206-1.601-1.601l-50-30c-0.671-0.402-1.432-0.629-2.213-0.66c-2.575-0.104-4.748,1.9-4.852,4.475
		c-0.003,0.062-0.004,0.125-0.004,0.187v25h-33.25c-1.928,0-3.684,1.109-4.514,2.85l-23.707,49.764L100.036,52.986
		C99.259,51.075,97.388,49.838,95.325,49.87z M239.737,153.111l36.262,21.758l-36.262,21.758V153.111z M244.972,162.351
		c-1.38,0.039-2.468,1.189-2.429,2.57c0.024,0.848,0.477,1.627,1.202,2.067l16,10c1.151,0.763,2.703,0.448,3.465-0.703
		c0.763-1.151,0.448-2.703-0.703-3.465c-0.037-0.024-0.074-0.048-0.112-0.07l-16-10
		C245.972,162.476,245.476,162.337,244.972,162.351z"/>
</g>
<g>
</g>
<g>
</g>
<g>
</g>
<g>
</g>
<g>
</g>
<g>
</g>
<g>
</g>
<g>
</g>
<g>
</g>
<g>
</g>
<g>
</g>
<g>
</g>
<g>
</g>
<g>
</g>
<g>
</g>
</svg>
