<?xml version="1.0" standalone="no"?>
<!DOCTYPE svg PUBLIC "-//W3C//DTD SVG 20010904//EN"
 "http://www.w3.org/TR/2001/REC-SVG-20010904/DTD/svg10.dtd">
<svg version="1.0" xmlns="http://www.w3.org/2000/svg"
 width="512.000000pt" height="512.000000pt" viewBox="0 0 512.000000 512.000000"
 preserveAspectRatio="xMidYMid meet">

<g transform="translate(0.000000,512.000000) scale(0.100000,-0.100000)"
fill="#000000" stroke="none">
<path d="M2380 5114 c-19 -2 -78 -9 -130 -14 -330 -36 -695 -160 -990 -336
-375 -224 -680 -529 -904 -904 -175 -292 -291 -632 -338 -990 -16 -123 -16
-497 0 -620 82 -623 356 -1150 820 -1581 256 -239 575 -425 922 -539 274 -91
491 -124 800 -124 228 0 329 9 530 50 689 141 1304 583 1674 1204 175 292 291
632 338 990 16 123 16 497 0 620 -47 358 -163 698 -338 990 -224 375 -529 680
-904 904 -289 173 -634 291 -980 336 -88 12 -438 21 -500 14z m530 -169 c58
-9 166 -31 240 -49 848 -211 1531 -892 1745 -1741 55 -219 69 -342 69 -595 0
-253 -14 -376 -69 -595 -170 -676 -642 -1256 -1270 -1565 -173 -85 -300 -132
-470 -175 -219 -55 -342 -69 -595 -69 -253 0 -376 14 -595 69 -846 213 -1527
894 -1740 1740 -55 219 -69 342 -69 595 0 253 14 376 69 595 170 676 642 1256
1270 1565 284 139 540 210 880 244 85 9 435 -4 535 -19z"/>
<path d="M2415 4634 c-204 -20 -392 -59 -550 -114 -189 -66 -449 -211 -600
-334 -80 -64 -241 -224 -310 -306 -138 -165 -283 -421 -355 -625 -68 -195
-125 -499 -102 -550 17 -36 54 -51 91 -36 36 15 46 41 61 151 97 728 615 1349
1315 1573 213 69 361 91 595 91 290 0 508 -44 770 -157 434 -187 809 -558 992
-981 75 -175 117 -324 148 -526 16 -101 23 -128 41 -142 29 -25 63 -22 95 6
l28 23 -13 109 c-35 305 -150 618 -323 881 -89 136 -169 232 -295 353 -174
170 -317 270 -526 374 -205 100 -387 157 -612 192 -98 14 -372 26 -450 18z"/>
<path d="M2358 4040 c-268 -43 -489 -181 -577 -363 -101 -207 10 -407 227
-407 77 0 112 21 203 120 106 116 144 134 289 134 214 1 319 -80 320 -246 0
-134 -56 -220 -255 -391 -135 -116 -173 -156 -220 -230 -79 -126 -116 -276
-119 -477 -1 -126 1 -139 25 -191 41 -87 104 -121 229 -120 86 0 138 15 185
53 57 48 67 76 76 232 4 78 12 156 18 174 20 68 63 122 183 232 145 132 234
229 295 323 159 246 185 511 73 742 -94 194 -272 328 -516 391 -111 28 -333
40 -436 24z m317 -154 c176 -27 307 -89 406 -192 107 -113 144 -207 143 -364
0 -117 -16 -184 -69 -290 -58 -116 -119 -187 -318 -373 -198 -186 -235 -259
-245 -480 -3 -74 -10 -134 -17 -143 -23 -33 -166 -35 -186 -3 -42 68 -9 351
55 484 45 92 81 132 236 265 219 188 290 307 290 487 0 131 -41 221 -137 299
-67 55 -145 83 -264 97 -80 9 -110 8 -178 -5 -122 -24 -164 -49 -267 -155 -77
-79 -95 -93 -123 -93 -140 0 -145 158 -7 295 147 147 408 213 681 171z"/>
<path d="M514 2436 l-28 -23 13 -109 c35 -305 150 -618 323 -881 87 -133 126
-181 248 -306 178 -185 350 -311 573 -421 157 -77 270 -118 432 -156 183 -43
283 -54 485 -54 343 0 616 63 917 210 223 110 395 236 573 421 117 120 159
172 237 288 175 264 281 537 328 847 21 140 20 163 -11 187 -33 26 -65 27 -93
4 -18 -15 -25 -42 -41 -146 -38 -250 -114 -478 -221 -667 -304 -539 -819 -893
-1424 -981 -116 -17 -414 -17 -530 0 -428 62 -818 261 -1116 568 -213 219
-346 437 -445 728 -43 124 -60 196 -84 355 -16 101 -23 128 -41 143 -29 24
-63 21 -95 -7z"/>
<path d="M2397 1730 c-86 -22 -172 -92 -215 -175 -37 -73 -42 -188 -12 -269
29 -76 94 -147 169 -183 78 -39 190 -39 271 -2 70 33 136 99 169 169 37 78 37
192 0 270 -33 69 -99 136 -166 167 -58 27 -158 37 -216 23z m176 -170 c58 -40
82 -85 82 -155 0 -48 -5 -69 -24 -96 -71 -104 -210 -115 -290 -24 -34 39 -46
86 -38 151 13 123 168 194 270 124z"/>
</g>
</svg>
