<svg xmlns="http://www.w3.org/2000/svg" viewBox="0 0 24 23.92"><g id="Слой_2" data-name="Слой 2"><g id="Слой_1-2" data-name="Слой 1"><path d="M23.6,23.05v-17H18.8v17H17.6V9.57H12.8V23.05H11.6v-10H6.8v10H5.6V17H.8v6.09H.4a.42.42,0,0,0-.4.44.41.41,0,0,0,.4.43H23.6a.41.41,0,0,0,.4-.43A.42.42,0,0,0,23.6,23.05Zm-22,0V17.83H4.8v5.22Zm6,0V13.92h3.2v9.13Zm6,0V10.44h3.2V23.05Zm6,0V7h3.2V23.05Z"/><path d="M3.21,11a.36.36,0,0,0,.2-.06L17.92,1.85,17,4a.46.46,0,0,0,.2.58.47.47,0,0,0,.17,0,.4.4,0,0,0,.36-.26L19.16,1a.06.06,0,0,0,0,0,.14.14,0,0,0,0-.07s0,0,0,0V.77a.15.15,0,0,1,0-.07.07.07,0,0,1,0,0,.05.05,0,0,1,0,0,0,0,0,0,1,0,0l0,0a.08.08,0,0,0,0,0l0,0s0,0,0,0l0,0h-.05l-.06,0h0L15.41,0A.4.4,0,0,0,15,.39a.43.43,0,0,0,.36.48l2.18.23L3,10.21a.44.44,0,0,0-.14.59A.38.38,0,0,0,3.21,11Z"/></g></g></svg>