<?xml version="1.0" standalone="no"?>
<!DOCTYPE svg PUBLIC "-//W3C//DTD SVG 20010904//EN"
 "http://www.w3.org/TR/2001/REC-SVG-20010904/DTD/svg10.dtd">
<svg version="1.0" xmlns="http://www.w3.org/2000/svg"
 width="512.000000pt" height="512.000000pt" viewBox="0 0 512.000000 512.000000"
 preserveAspectRatio="xMidYMid meet">

<g transform="translate(0.000000,512.000000) scale(0.100000,-0.100000)"
fill="#000000" stroke="none">
<path d="M310 4546 c-150 -32 -266 -151 -299 -304 -16 -75 -16 -3289 0 -3364
34 -158 157 -278 313 -307 84 -15 4388 -15 4471 0 158 29 281 150 314 307 16
75 16 3289 0 3364 -33 157 -156 278 -314 307 -88 16 -4410 14 -4485 -3z m4489
-152 c68 -20 131 -82 154 -149 13 -36 17 -84 17 -187 l0 -138 -2410 0 -2410 0
0 138 c0 167 13 216 76 278 78 79 -118 73 2330 73 1960 1 2196 -1 2243 -15z
m-1431 -871 l2 -243 -1610 0 -1610 0 0 245 0 245 1608 -2 1607 -3 3 -242z
m1602 2 l0 -245 -725 0 -725 0 0 245 0 245 725 0 725 0 0 -245z m-3370 -640
l0 -245 -725 0 -725 0 0 245 0 245 725 0 725 0 0 -245z m1768 -2 l2 -243 -810
0 -810 0 0 238 c0 131 3 242 7 245 3 4 367 6 807 5 l801 -3 3 -242z m1602 2
l0 -245 -725 0 -725 0 0 245 0 245 725 0 725 0 0 -245z m-3370 -650 l0 -245
-725 0 -725 0 0 245 0 245 725 0 725 0 0 -245z m1768 3 l-3 -243 -805 0 -805
0 -3 243 -2 242 810 0 810 0 -2 -242z m1602 -3 l0 -245 -725 0 -725 0 0 245 0
245 725 0 725 0 0 -245z m-3370 -640 l0 -245 -725 0 -725 0 0 245 0 245 725 0
725 0 0 -245z m1768 3 l-3 -243 -805 0 -805 0 -3 243 -2 242 810 0 810 0 -2
-242z m1602 -3 l0 -245 -725 0 -725 0 0 245 0 245 725 0 725 0 0 -245z m-3370
-640 l0 -245 -613 0 c-697 0 -686 -1 -761 74 -63 62 -76 111 -76 278 l0 138
725 0 725 0 0 -245z m1770 0 l0 -245 -810 0 -810 0 0 245 0 245 810 0 810 0 0
-245z m1600 107 c0 -167 -13 -216 -76 -278 -75 -75 -64 -74 -761 -74 l-613 0
0 245 0 245 725 0 725 0 0 -138z"/>
<path d="M1403 4228 c-46 -22 -49 -103 -4 -127 14 -8 376 -11 1161 -11 785 0
1147 3 1161 11 46 24 42 105 -7 128 -34 15 -2279 15 -2311 -1z"/>
<path d="M369 3589 c-25 -9 -49 -45 -49 -73 0 -7 9 -25 21 -40 l20 -26 875 0
c861 0 874 0 894 20 27 27 26 81 -1 106 -20 18 -51 19 -878 21 -530 1 -866 -2
-882 -8z"/>
<path d="M2380 3593 c-52 -20 -68 -85 -30 -123 19 -19 33 -20 210 -20 177 0
191 1 210 20 27 27 26 81 -1 106 -19 17 -40 19 -198 21 -97 1 -183 -1 -191 -4z"/>
<path d="M3733 3590 c-44 -18 -57 -86 -23 -120 19 -19 33 -20 534 -20 l515 0
20 26 c12 15 21 33 21 40 0 29 -25 64 -53 74 -37 12 -982 13 -1014 0z"/>
<path d="M369 2949 c-25 -9 -49 -45 -49 -73 0 -7 9 -25 21 -40 l20 -26 154 0
c146 0 155 1 175 22 37 40 22 98 -31 117 -39 13 -254 13 -290 0z"/>
<path d="M1984 2954 c-53 -12 -75 -84 -39 -124 16 -18 31 -20 132 -20 129 0
153 11 153 73 0 56 -26 71 -133 73 -51 1 -102 0 -113 -2z"/>
<path d="M2465 2953 c-36 -9 -55 -34 -55 -74 0 -65 15 -69 236 -69 172 0 193
2 207 18 24 27 22 85 -4 108 -19 17 -39 19 -193 21 -94 1 -180 -1 -191 -4z"/>
<path d="M3733 2945 c-73 -31 -50 -135 30 -135 61 0 94 74 53 119 -24 26 -48
31 -83 16z"/>
<path d="M4053 2945 c-32 -14 -43 -32 -43 -71 0 -61 90 -88 129 -38 26 33 26
54 1 86 -25 32 -49 39 -87 23z"/>
<path d="M341 2284 c-12 -15 -21 -33 -21 -40 0 -29 25 -64 53 -74 40 -13 245
-13 286 1 53 19 68 77 31 117 -20 21 -29 22 -175 22 l-154 0 -20 -26z"/>
<path d="M1945 2290 c-25 -28 -23 -76 4 -103 20 -20 32 -22 130 -22 126 0 151
12 151 72 0 62 -24 73 -153 73 -101 0 -116 -2 -132 -20z"/>
<path d="M2432 2294 c-30 -21 -31 -83 -1 -110 20 -18 40 -19 330 -19 304 0
309 0 330 22 27 26 28 77 3 104 -16 18 -35 19 -328 19 -266 0 -315 -2 -334
-16z"/>
<path d="M3710 2290 c-38 -38 -13 -118 38 -121 51 -4 85 25 85 70 0 64 -78 96
-123 51z"/>
<path d="M341 1644 c-12 -15 -21 -33 -21 -40 0 -29 25 -64 53 -74 47 -16 262
-13 296 5 47 24 56 78 18 113 -22 21 -33 22 -174 22 l-152 0 -20 -26z"/>
<path d="M1951 1652 c-30 -24 -31 -76 -2 -105 19 -20 32 -22 130 -22 126 0
151 12 151 72 0 61 -24 73 -149 73 -89 0 -113 -3 -130 -18z"/>
<path d="M2430 1650 c-27 -27 -26 -81 1 -106 18 -16 37 -19 129 -19 125 0 150
12 150 72 0 61 -24 73 -150 73 -97 0 -112 -2 -130 -20z"/>
<path d="M3710 1648 c-42 -46 -12 -121 49 -121 42 0 74 32 74 74 0 62 -80 93
-123 47z"/>
<path d="M4032 1647 c-44 -47 -15 -120 48 -120 24 0 40 7 57 28 61 70 -42 159
-105 92z"/>
<path d="M4352 1647 c-36 -38 -28 -88 18 -112 36 -19 83 -4 99 31 16 35 14 47
-10 78 -27 34 -77 36 -107 3z"/>
<path d="M345 1005 c-27 -26 -30 -41 -16 -78 15 -40 55 -49 206 -45 130 3 138
4 156 27 26 32 24 73 -4 99 -22 21 -33 22 -171 22 -143 0 -148 -1 -171 -25z"/>
<path d="M1950 1010 c-33 -33 -30 -75 6 -107 22 -21 36 -23 123 -23 84 0 102
3 125 21 33 26 36 79 6 109 -18 18 -33 20 -130 20 -97 0 -112 -2 -130 -20z"/>
<path d="M2430 1010 c-30 -30 -27 -83 6 -109 25 -19 40 -21 205 -21 170 0 179
1 203 23 36 32 39 74 6 107 -19 19 -33 20 -210 20 -177 0 -191 -1 -210 -20z"/>
<path d="M3712 1007 c-37 -39 -24 -99 25 -118 58 -22 116 36 94 94 -19 50 -83
63 -119 24z"/>
<path d="M4032 1007 c-37 -39 -24 -99 25 -118 58 -22 116 36 94 94 -19 50 -83
63 -119 24z"/>
</g>
</svg>
