<svg id="Capa_1" enable-background="new 0 0 512 512" height="512" viewBox="0 0 512 512" width="512" xmlns="http://www.w3.org/2000/svg"><g><path d="m504.5 145c4.143 0 7.5-3.357 7.5-7.5v-130c0-4.143-3.357-7.5-7.5-7.5h-497c-4.143 0-7.5 3.357-7.5 7.5v130c0 4.143 3.357 7.5 7.5 7.5h7.5v15h-7.5c-4.143 0-7.5 3.357-7.5 7.5 0 14.509 4.794 28.893 13.5 40.5l31.5 42v51c0 70.338 34.881 135.813 93.308 175.148 2.3 1.548 5.268 1.701 7.712.398 2.447-1.302 3.977-3.848 3.977-6.62l.001-50.635c20.621 37.352 60.403 62.709 106.002 62.709 45.597 0 85.378-25.355 106-62.703v46.495c-30.58 19.739-66.974 31.208-106 31.208-29.47 0-57.806-6.384-84.221-18.975-3.737-1.782-8.215-.196-9.997 3.543s-.195 8.216 3.543 9.998c28.447 13.559 58.954 20.434 90.675 20.434 116.346 0 211-94.654 211-211v-51l31.5-42c8.706-11.607 13.5-25.991 13.5-40.5 0-4.143-3.357-7.5-7.5-7.5h-7.5v-15zm-489.5-130h482v115h-482zm45 286v-46h75l-.004 200.2c-47.208-37.065-74.996-93.699-74.996-154.2zm90-46h47.703c-20.047 11.069-36.635 27.658-47.703 47.704zm106 212c-58.448 0-106-47.552-106-106s47.552-106 106-106 106 47.552 106 106-47.552 106-106 106zm58.297-212h47.703v47.703c-11.069-20.046-27.656-36.634-47.703-47.703zm62.703 200.09v-200.09h75v46c0 62.451-29.359 118.173-75 154.09zm109.5-256.09-30.75 41h-399.5l-30.75-41c-5.264-7.018-8.688-15.341-9.953-24h480.906c-1.265 8.659-4.689 16.982-9.953 24zm-4.5-39h-452v-15h452z"/><path d="m256 300c-33.636 0-61 27.364-61 61s27.364 61 61 61 61-27.364 61-61-27.364-61-61-61zm0 107c-25.364 0-46-20.636-46-46s20.636-46 46-46 46 20.636 46 46-20.636 46-46 46z"/><path d="m256 330c-17.094 0-31 13.906-31 31s13.906 31 31 31 31-13.906 31-31-13.906-31-31-31zm0 47c-8.822 0-16-7.178-16-16s7.178-16 16-16 16 7.178 16 16-7.178 16-16 16z"/></g></svg>