<?xml version="1.0" encoding="iso-8859-1"?>
<!-- Generator: Adobe Illustrator 19.0.0, SVG Export Plug-In . SVG Version: 6.00 Build 0)  -->
<svg version="1.1" id="Capa_1" xmlns="http://www.w3.org/2000/svg" xmlns:xlink="http://www.w3.org/1999/xlink" x="0px" y="0px"
	 viewBox="0 0 512 512" style="enable-background:new 0 0 512 512;" xml:space="preserve">
<g>
	<path style="fill:#455A64;" d="M501.333,469.333H10.667C4.776,469.333,0,464.558,0,458.667C0,452.776,4.776,448,10.667,448h490.667
		c5.891,0,10.667,4.776,10.667,10.667C512,464.558,507.224,469.333,501.333,469.333z"/>
	<path style="fill:#455A64;" d="M53.333,512c-5.891,0-10.667-4.776-10.667-10.667V10.667C42.667,4.776,47.442,0,53.333,0
		S64,4.776,64,10.667v490.667C64,507.224,59.224,512,53.333,512z"/>
</g>
<path style="fill:#4CAF50;" d="M117.333,320h192c5.891,0,10.667,4.776,10.667,10.667v64c0,5.891-4.776,10.667-10.667,10.667h-192
	c-5.891,0-10.667-4.776-10.667-10.667v-64C106.667,324.776,111.442,320,117.333,320z"/>
<path style="fill:#2196F3;" d="M117.333,64h256C379.224,64,384,68.776,384,74.667v64c0,5.891-4.776,10.667-10.667,10.667h-256
	c-5.891,0-10.667-4.776-10.667-10.667v-64C106.667,68.776,111.442,64,117.333,64z"/>
<path style="fill:#FFC107;" d="M117.333,192H480c5.891,0,10.667,4.776,10.667,10.667v64c0,5.891-4.776,10.667-10.667,10.667H117.333
	c-5.891,0-10.667-4.776-10.667-10.667v-64C106.667,196.776,111.442,192,117.333,192z"/>
<g>
</g>
<g>
</g>
<g>
</g>
<g>
</g>
<g>
</g>
<g>
</g>
<g>
</g>
<g>
</g>
<g>
</g>
<g>
</g>
<g>
</g>
<g>
</g>
<g>
</g>
<g>
</g>
<g>
</g>
</svg>
