<!-- icon666.com - MILLIONS vector ICONS FREE --><svg id="Layer_1" viewBox="0 0 64 64" xmlns="http://www.w3.org/2000/svg"><g><g fill="#f9bf2c"><path d="m26 34h-10c-2.21 0-4 1.79-4 4v10c0 2.21 1.79 4 4 4h10c2.21 0 4-1.79 4-4v-10c0-2.21-1.79-4-4-4z"></path><path d="m48 34h-10c-2.21 0-4 1.79-4 4v10c0 2.21 1.79 4 4 4h10c2.21 0 4-1.79 4-4v-10c0-2.21-1.79-4-4-4z"></path><path d="m48 12h-10c-2.21 0-4 1.79-4 4v10c0 2.21 1.79 4 4 4h10c2.21 0 4-1.79 4-4v-10c0-2.21-1.79-4-4-4z"></path><path d="m26 12h-10c-2.21 0-4 1.79-4 4v10c0 2.21 1.79 4 4 4h10c2.21 0 4-1.79 4-4v-10c0-2.21-1.79-4-4-4z"></path></g><g fill="#e2e2e2"><path d="m16 42h10v2h-10z"></path><path d="m42 46h2v2h-2z"></path><path d="m42 38h2v2h-2z"></path><path d="m38 42h10v2h-10z"></path><path d="m26 20v2h-4v4h-2v-4h-4v-2h4v-4h2v4z"></path><path d="m45.83 16.76 1.41 1.41-2.83 2.83 2.83 2.83-1.41 1.41-2.83-2.83-2.83 2.83-1.41-1.41 2.83-2.83-2.83-2.83 1.41-1.42 2.83 2.83z"></path></g></g></svg>