<svg id="icon" height="512" viewBox="0 0 128 128" width="512" xmlns="http://www.w3.org/2000/svg"><rect fill="#dbe2eb" height="79.131" rx="8.821" width="126" x="1" y="35.855"/><path d="m118.18 115.987h-108.36a9.832 9.832 0 0 1 -9.82-9.821v-61.49a9.832 9.832 0 0 1 9.82-9.821h108.36a9.832 9.832 0 0 1 9.82 9.821v61.49a9.832 9.832 0 0 1 -9.82 9.821zm-108.36-79.132a7.83 7.83 0 0 0 -7.82 7.821v61.49a7.829 7.829 0 0 0 7.82 7.821h108.36a7.829 7.829 0 0 0 7.82-7.821v-61.49a7.83 7.83 0 0 0 -7.82-7.821z" fill="#2f3a5a"/><circle cx="64" cy="75.421" fill="#b0b3c1" r="29.486" transform="matrix(.924 -.383 .383 .924 -23.991 30.233)"/><path d="m64 105.907a30.486 30.486 0 1 1 30.486-30.486 30.52 30.52 0 0 1 -30.486 30.486zm0-58.972a28.486 28.486 0 1 0 28.486 28.486 28.518 28.518 0 0 0 -28.486-28.486z" fill="#2f3a5a"/><circle cx="64" cy="75.421" fill="#6bb3d9" r="19.824" transform="matrix(.924 -.383 .383 .924 -23.991 30.233)"/><path d="m83.822 75.423a19.828 19.828 0 0 1 -36.422 10.836 19.819 19.819 0 0 0 26.053-28.269 19.809 19.809 0 0 1 10.369 17.433z" fill="#4fa4d1"/><path d="m64 96.245a20.824 20.824 0 1 1 20.824-20.824 20.848 20.848 0 0 1 -20.824 20.824zm0-39.645a18.824 18.824 0 1 0 18.824 18.821 18.845 18.845 0 0 0 -18.824-18.821z" fill="#2f3a5a"/><path d="m87.182 16.841a5.028 5.028 0 0 0 -4.882-3.828h-36.6a5.028 5.028 0 0 0 -4.883 3.828l-4.673 19.014h55.712z" fill="#dbe2eb"/><path d="m91.856 36.855h-55.712a1 1 0 0 1 -.971-1.238l4.675-19.017a6.014 6.014 0 0 1 5.853-4.59h36.599a6.014 6.014 0 0 1 5.853 4.59l4.675 19.014a1 1 0 0 1 -.971 1.238zm-54.437-2h53.162l-4.37-17.775a4.02 4.02 0 0 0 -3.911-3.067h-36.6a4.02 4.02 0 0 0 -3.912 3.067z" fill="#2f3a5a"/><path d="m52.433 19.341h23.133v10.246h-23.133z" fill="#6bb3d9"/><path d="m102.507 45.048h14.77v8.183h-14.77z" fill="#fac77c"/><path d="m117.277 54.23h-14.77a1 1 0 0 1 -1-1v-8.182a1 1 0 0 1 1-1h14.77a1 1 0 0 1 1 1v8.182a1 1 0 0 1 -1 1zm-13.77-2h12.77v-6.182h-12.77z" fill="#2f3a5a"/><g fill="#fff" opacity=".5"><path d="m66.266 19.341-6.02 10.246h-3.562l6.007-10.246z"/><path d="m70.062 19.341-6.019 10.246h-1.782l6.02-10.246z"/></g><path d="m75.571 30.582h-23.142a1 1 0 0 1 -1-1v-10.237a1 1 0 0 1 1-1h23.142a1 1 0 0 1 1 1v10.237a1 1 0 0 1 -1 1zm-22.142-2h21.142v-8.237h-21.142z" fill="#2f3a5a"/></svg>