<?xml version="1.0" encoding="iso-8859-1"?>
<!-- Generator: Adobe Illustrator 19.0.0, SVG Export Plug-In . SVG Version: 6.00 Build 0)  -->
<svg version="1.1" id="Capa_1" xmlns="http://www.w3.org/2000/svg" xmlns:xlink="http://www.w3.org/1999/xlink" x="0px" y="0px"
	 viewBox="0 0 424.6 424.6" style="enable-background:new 0 0 424.6 424.6;" xml:space="preserve">
<g>
	<g>
		<path d="M383.15,83.4l-71.9,72.2c4.9,8.9,8.8,18.4,11.4,28.3h101.7C419.55,147.4,405.35,112.8,383.15,83.4z"/>
	</g>
</g>
<g>
	<g>
		<path d="M240.45,0v101.5c10.1,2.6,19.8,6.5,28.9,11.6l71.6-71.9C311.55,19,276.95,4.8,240.45,0z"/>
	</g>
</g>
<g>
	<g>
		<path d="M60.65,61.9c-32.5,33.2-53.5,76-59.9,122.1h101.6c5.1-19.2,14.9-36.9,28.6-51.3c13.4-14.4,30.6-24.9,49.5-30.4V0.7
			C134.95,7.4,92.85,28.9,60.65,61.9z"/>
	</g>
</g>
<g>
	<g>
		<path d="M102.15,241.5l-101.9,0.2c13.4,94.1,87.2,168.2,181.3,181.9c0.3-37.2,0.6-85.1,0.7-101.8
			C143.15,311.1,112.65,280.6,102.15,241.5z"/>
	</g>
</g>
<g>
	<g>
		<g>
			<path d="M248.15,321.1l74.8,74.8c7-4.2,13.7-8.8,20.2-13.8l-71.7-71.7C264.05,314.8,256.25,318.4,248.15,321.1z"/>
			<path d="M292.85,293.8c-2.7,2.6-5.4,5-8.2,7.3l70.8,70.8c6-5.4,11.6-11,17-17l-70.9-70.8C298.85,287.5,295.95,290.7,292.85,293.8
				z"/>
			<path d="M241.65,424.6c8.7-1.2,17.2-2.9,25.7-5.1l-25.6-25.6L241.65,424.6z"/>
			<path d="M241.75,371.5l42.8,42.7c8.2-2.9,16.1-6.3,23.8-10.2l-66.4-66.4L241.75,371.5z"/>
			<path d="M397.15,243.9l22.5,22.5c1.9-7.4,3.4-14.9,4.4-22.5H397.15z"/>
			<path d="M310.85,270.7l71.8,71.8c4.9-6.4,9.5-13.2,13.7-20.2l-75-75C318.75,255.4,315.25,263.3,310.85,270.7z"/>
			<path d="M340.65,243.9l63.6,63.7c3.9-7.8,7.2-15.7,10.1-23.9l-39.8-39.8H340.65z"/>
		</g>
	</g>
</g>
<g>
</g>
<g>
</g>
<g>
</g>
<g>
</g>
<g>
</g>
<g>
</g>
<g>
</g>
<g>
</g>
<g>
</g>
<g>
</g>
<g>
</g>
<g>
</g>
<g>
</g>
<g>
</g>
<g>
</g>
</svg>
