<?xml version="1.0" encoding="iso-8859-1"?>
<!-- Generator: Adobe Illustrator 19.0.0, SVG Export Plug-In . SVG Version: 6.00 Build 0)  -->
<svg version="1.1" id="Layer_1" xmlns="http://www.w3.org/2000/svg" xmlns:xlink="http://www.w3.org/1999/xlink" x="0px" y="0px"
	 viewBox="0 0 201.527 201.527" style="enable-background:new 0 0 201.527 201.527;" xml:space="preserve">
<g>
	<g>
		<g>
			<path d="M132.034,59.068L132.034,59.068c-1.919,0.001-3.475,1.557-3.475,3.476c0,1.919,1.556,3.475,3.475,3.475H147.7
				l-41.838,41.839L88.086,90.079c-1.303-1.303-3.61-1.303-4.913,0L39.04,134.212c-1.357,1.357-1.357,3.556,0,4.913
				c0.679,0.679,1.568,1.018,2.457,1.018s1.778-0.339,2.457-1.018L85.63,97.449l17.777,17.778c0.651,0.651,1.535,1.018,2.457,1.018
				s1.805-0.367,2.457-1.018l44.563-44.564v16.202c0,1.919,1.556,3.475,3.475,3.475s3.475-1.556,3.475-3.475V62.542
				c0-1.919-1.556-3.475-3.475-3.475H132.034z"/>
			<path d="M100.763,13.899c-47.898,0-86.864,38.967-86.864,86.864c0,47.897,38.967,86.864,86.864,86.864
				c47.897,0,86.864-38.967,86.864-86.864C187.627,52.865,148.66,13.899,100.763,13.899z M100.763,180.678
				c-44.065,0-79.915-35.85-79.915-79.915s35.85-79.915,79.915-79.915s79.915,35.85,79.915,79.915S144.828,180.678,100.763,180.678z
				"/>
			<path d="M100.763,194.576c-51.728,0-93.814-42.085-93.814-93.814c0-1.919-1.556-3.475-3.475-3.475S0,98.844,0,100.764
				c0,55.561,45.202,100.763,100.763,100.763c1.919,0,3.475-1.556,3.475-3.475C104.237,196.133,102.681,194.576,100.763,194.576z"/>
			<path d="M100.763,0.001c-1.919,0-3.475,1.556-3.475,3.475c0,1.919,1.556,3.475,3.475,3.475c51.728,0,93.814,42.085,93.814,93.814
				c0,1.919,1.556,3.475,3.475,3.475s3.475-1.556,3.475-3.475C201.525,45.203,156.324,0.001,100.763,0.001z"/>
		</g>
	</g>
</g>
<g>
</g>
<g>
</g>
<g>
</g>
<g>
</g>
<g>
</g>
<g>
</g>
<g>
</g>
<g>
</g>
<g>
</g>
<g>
</g>
<g>
</g>
<g>
</g>
<g>
</g>
<g>
</g>
<g>
</g>
</svg>
