<svg xmlns="http://www.w3.org/2000/svg" viewBox="0 0 755.99 733.33"><defs><style>.cls-1{fill:#6eb33f;}.cls-2{fill:#5f6062;}</style></defs><g id="Слой_2" data-name="Слой 2"><g id="Laag_1" data-name="Laag 1"><path class="cls-1" d="M742.26,618.4c-27.8-23.2-53.3-46.3-81.1-69.5-9.3-6.9-11.6-11.6-4.6-23.2,34.7-62.5,51-127.4,46.3-199.2C691.26,143.6,536.06,0,348.46,0c-9.3,0-23.2,0-37.1,2.3C107.56,23.1-36,224.7,8,426.2c53.3,243.2,324.3,354.4,535.1,220,9.3-4.6,13.9-4.6,20.8,2.3l90.3,76.4c16.2,11.6,23.2,11.6,37.1-2.3,18.5-20.8,37.1-44,55.6-64.9,13.9-16.1,11.6-25.4-4.6-39.3Zm-391.5-48.6c-120.4,0-215.4-97.3-215.4-217.7,0-115.8,97.3-213.1,215.4-213.1s215.4,97.3,215.4,215.4c2.3,115.8-97.3,215.4-215.4,215.4Z"/><path class="cls-2" d="M350.76,215.4c76.4,0,139,62.5,139,139s-62.5,139-139,139-139-62.5-139-139C211.76,275.6,274.36,215.4,350.76,215.4Z"/></g></g></svg>