<svg id="Capa_1" enable-background="new 0 0 512 512" height="512" viewBox="0 0 512 512" width="512" xmlns="http://www.w3.org/2000/svg" xmlns:xlink="http://www.w3.org/1999/xlink"><linearGradient id="lg1"><stop offset="0" stop-color="#008a4c"/><stop offset="1" stop-color="#d3ff33"/></linearGradient><linearGradient id="SVGID_1_" gradientUnits="userSpaceOnUse" x1="74.98" x2="437.019" xlink:href="#lg1" y1="437.019" y2="74.981"/><linearGradient id="lg2"><stop offset="0" stop-color="#008a4c" stop-opacity=".8"/><stop offset="1" stop-color="#d3ff33" stop-opacity="0"/></linearGradient><radialGradient id="SVGID_2_" cx="256" cy="256" gradientUnits="userSpaceOnUse" r="256" xlink:href="#lg2"/><linearGradient id="SVGID_3_" gradientUnits="userSpaceOnUse" x1="64.374" x2="418.144" xlink:href="#lg1" y1="447.627" y2="93.857"/><radialGradient id="SVGID_4_" cx="256" cy="256" gradientUnits="userSpaceOnUse" r="185.525" xlink:href="#lg2"/><linearGradient id="lg3"><stop offset="0" stop-color="#00aa45"/><stop offset=".7542" stop-color="#d3ff33"/><stop offset="1" stop-color="#f9fcca"/></linearGradient><linearGradient id="SVGID_5_" gradientUnits="userSpaceOnUse" x1="-450.218" x2="313.925" xlink:href="#lg3" y1="812.86" y2="48.718"/><linearGradient id="SVGID_6_" gradientUnits="userSpaceOnUse" x1="-28.424" x2="450.751" xlink:href="#lg3" y1="605.304" y2="126.13"/><linearGradient id="SVGID_7_" gradientUnits="userSpaceOnUse" x1="112.191" x2="824.216" y1="613.66" y2="-98.366"><stop offset="0" stop-color="#006946"/><stop offset=".2513" stop-color="#008547"/><stop offset=".3421" stop-color="#128f45"/><stop offset=".5244" stop-color="#41aa41"/><stop offset=".7788" stop-color="#8cd63a"/><stop offset="1" stop-color="#d3ff33"/></linearGradient><linearGradient id="SVGID_8_" gradientUnits="userSpaceOnUse" x1="288.611" x2="692.479" y1="372.747" y2="-31.121"><stop offset="0" stop-color="#00aa45"/><stop offset=".7542" stop-color="#d3ff33"/><stop offset=".7901" stop-color="#d7ff42"/><stop offset=".8592" stop-color="#e1fe69"/><stop offset=".9538" stop-color="#f1fda9"/><stop offset="1" stop-color="#f9fcca"/></linearGradient><linearGradient id="SVGID_9_" gradientUnits="userSpaceOnUse" x1="-294.496" x2="470.874" xlink:href="#lg3" y1="741.615" y2="-23.754"/><linearGradient id="lg4"><stop offset="0" stop-color="#ddff59"/><stop offset="1" stop-color="#fff"/></linearGradient><linearGradient id="SVGID_10_" gradientUnits="userSpaceOnUse" x1="-480.158" x2="219.349" xlink:href="#lg4" y1="778.307" y2="78.8"/><linearGradient id="SVGID_11_" gradientUnits="userSpaceOnUse" x1="-446.939" x2="863.496" xlink:href="#lg3" y1="1098.941" y2="-211.495"/><linearGradient id="SVGID_12_" gradientUnits="userSpaceOnUse" x1="-392.562" x2="506.57" xlink:href="#lg3" y1="920.732" y2="21.6"/><linearGradient id="SVGID_13_" gradientUnits="userSpaceOnUse" x1="-1.102" x2="377.448" xlink:href="#lg4" y1="514.312" y2="135.763"/><linearGradient id="SVGID_14_" gradientUnits="userSpaceOnUse" x1="-337.752" x2="318.079" xlink:href="#lg4" y1="842.107" y2="186.277"/><g><circle cx="256" cy="256" fill="url(#SVGID_1_)" r="256"/><circle cx="256" cy="256" fill="url(#SVGID_2_)" r="256"/><path d="m441.525 256c-.441 99.423-86.102 185.085-185.525 185.525-99.422-.441-185.084-86.101-185.525-185.525.442-99.421 86.102-185.084 185.525-185.525 99.423.444 185.085 86.101 185.525 185.525z" fill="url(#SVGID_3_)"/><path d="m441.525 256c-.441 99.423-86.102 185.085-185.525 185.525-99.422-.441-185.084-86.101-185.525-185.525.442-99.421 86.102-185.084 185.525-185.525 99.423.444 185.085 86.101 185.525 185.525z" fill="url(#SVGID_4_)"/><path d="m108.912 256c-.005-26.441 7.379-51.258 20.105-72.832.102-8.882.222-17.764.36-26.646-15.442.24-30.883.524-46.325.853-17.627 29.391-27.964 62.934-27.952 98.625-.012 35.689 10.325 69.233 27.953 98.626 15.442.329 30.883.612 46.325.853-.139-8.882-.259-17.764-.361-26.646-12.726-21.575-20.109-46.393-20.105-72.833z" fill="url(#SVGID_5_)"/><path d="m256 403.088c-53.608.009-101.026-30.478-126.982-74.255-15.384 8.706-30.712 17.315-45.965 25.793 36.07 59.578 100.708 102.3 172.947 102.274-.056.028 30.136-26.981 30.187-27.006.053.033-30.14-26.775-30.187-26.806z" fill="url(#SVGID_6_)"/><path d="m428.947 354.626c.189-8.806.354-17.611.492-26.417-15.486.24-30.971.448-46.457.624-25.955 43.777-73.373 74.265-126.982 74.255v53.813c72.239.024 136.877-42.698 172.947-102.275z" fill="url(#SVGID_7_)"/><path d="m403.087 256c.004 26.44-7.378 51.258-20.105 72.832 15.384 8.706 30.713 17.316 45.965 25.793 17.627-29.392 27.964-62.934 27.953-98.625.012-35.692-10.326-69.233-27.953-98.626-15.442-.328-30.883-.612-46.325-.853.139 8.882.259 17.764.36 26.646 12.727 21.573 20.11 46.394 20.105 72.833z" fill="url(#SVGID_8_)"/><path d="m382.982 183.168c15.384-8.706 30.712-17.315 45.965-25.793-36.071-59.581-100.707-102.3-172.947-102.275.056-.031-30.136 26.982-30.187 27.005 10.004 8.898 20.071 17.838 30.187 26.807 53.608-.01 101.026 30.48 126.982 74.256z" fill="url(#SVGID_9_)"/><path d="m256 108.913c0-17.938 0-35.875 0-53.813-72.239-.024-136.877 42.696-172.947 102.274 15.252 8.477 30.581 17.087 45.965 25.793 25.955-43.775 73.374-74.264 126.982-74.254z" fill="url(#SVGID_10_)"/><path d="m319.591 314.034c12.323-.055 24.645-.127 36.968-.214 4.068-6.945 7.422-14.334 9.988-22.062-15.661 7.405-31.317 14.84-46.956 22.276z" fill="url(#SVGID_11_)"/><path d="m256 139.663c-10.166 49.029-20.544 98.08-30.732 147.07 41.726 7.974 83.418 15.888 125.034 23.516 6.037-5.587 11.491-11.788 16.246-18.491 3.745-11.279 5.79-23.284 5.79-35.758-.11-63.503-52.836-116.229-116.338-116.337z" fill="url(#SVGID_12_)"/><path d="m350.301 310.249c-31.434.196-62.867.294-94.301.294-31.698-40.441-63.651-80.982-95.01-120.957-13.385 18.907-21.332 41.771-21.328 66.414.109 63.503 52.836 116.229 116.338 116.337 42.647.006 80.184-23.839 100.559-58.518-2.085-1.188-4.171-2.379-6.258-3.57z" fill="url(#SVGID_13_)"/><path d="m271.307 341.576c30.402-.045 58.14-12.041 78.994-31.327-31.32-17.887-62.811-36.068-94.301-54.249 0-38.779 0-77.558 0-116.337-39.036-.006-73.751 19.966-95.01 49.924-3.77 11.313-5.849 23.352-5.895 35.853-.182 63.661 52.415 116.151 116.212 116.136z" fill="url(#SVGID_14_)"/></g></svg>