<svg id="Capa_1" enable-background="new 0 0 482 482" height="512" viewBox="0 0 482 482" width="512" xmlns="http://www.w3.org/2000/svg"><g><path d="m0 140.5v336h241l23-164-23-172-113-28z" fill="#f5f8f9"/><path d="m482 140.5-115-33-126 33v336h241z" fill="#e3eaee"/><path d="m0 50.5v90h241l19-43-19-47z" fill="#ff3f5c"/><path d="m241 50.5h241v90h-241z" fill="#ca2e43"/><path d="m105.5 5.5h30v90h-30z" fill="#c2bce0"/><path d="m346.5 5.5h30v90h-30z" fill="#a299d1"/><path d="m45 401.5h76v30h-76z" fill="#6e61b6"/><path d="m407 401.5h30v30h-30z" fill="#463b84"/><path d="m347 401.5h30v30h-30z" fill="#463b84"/><path d="m191.992 416.249 27.271 12.502 21.737-47.415 9-48.836-9-23.15z" fill="#6e61b6"/><path d="m181.861 192.5v30h59.139l9-14-9-16z" fill="#6e61b6"/><path d="m315.139 192.5h-74.139v30h39.816l-39.816 86.85v71.986l74.139-161.715z" fill="#463b84"/></g></svg>