<svg id="Слой_1" data-name="Слой 1" xmlns="http://www.w3.org/2000/svg" viewBox="0 0 984.95 1052.58"><defs><style>.cls-1{fill:#ff5100;}.cls-2{fill:#d68330;}.cls-2,.cls-3,.cls-4,.cls-5,.cls-6,.cls-7,.cls-8{stroke:#000;stroke-linecap:round;stroke-linejoin:round;stroke-width:9px;}.cls-3{fill:#f7a74f;}.cls-4{fill:#b76e1d;}.cls-5{fill:#f9bc7c;}.cls-6{fill:none;}.cls-7{fill:#f6bc65;}.cls-8{fill:#d6984a;}</style></defs><circle class="cls-1" cx="449.16" cy="603.42" r="449.16"/><path class="cls-2" d="M622.66,490h0A108.33,108.33,0,0,1,514.33,381.7v-50c0-59.83,48.5-175,108.33-175h0c59.84,0,108.34,115.18,108.34,175v50A108.33,108.33,0,0,1,622.66,490Z" transform="translate(-30.55 -10.52)"/><rect class="cls-3" x="308.77" y="204.51" width="208.34" height="500.02" rx="104.17"/><path class="cls-4" d="M384.24,390a16.68,16.68,0,0,1-9.76-30.2l115.75-83.33a16.67,16.67,0,1,1,19.48,27.05L394,386.9A16.7,16.7,0,0,1,384.24,390Z" transform="translate(-30.55 -10.52)"/><rect class="cls-3" x="658.79" y="4.5" width="150.01" height="500.02" rx="75"/><path class="cls-4" d="M689.36,187.85l75.51-75.5a12.5,12.5,0,0,0-17.68-17.68L689.36,152.5Z" transform="translate(-30.55 -10.52)"/><path class="cls-4" d="M689.36,287.86l75.51-75.51a12.5,12.5,0,0,0-17.68-17.68l-57.83,57.84Z" transform="translate(-30.55 -10.52)"/><path class="cls-4" d="M689.36,387.86l75.51-75.5a12.5,12.5,0,0,0-17.68-17.68l-57.83,57.83Z" transform="translate(-30.55 -10.52)"/><path class="cls-4" d="M689.36,487.87l75.51-75.51a12.5,12.5,0,0,0-17.68-17.68l-57.83,57.84Z" transform="translate(-30.55 -10.52)"/><rect class="cls-5" x="836.75" y="162.44" width="150.01" height="500.02" rx="75" transform="translate(1792.96 814.38) rotate(-180)"/><path class="cls-4" d="M986.73,335.27l-75.51-75.51a12.5,12.5,0,1,1,17.68-17.67l57.83,57.83Z" transform="translate(-30.55 -10.52)"/><path class="cls-4" d="M986.73,435.28l-75.51-75.51a12.5,12.5,0,1,1,17.68-17.68l57.83,57.83Z" transform="translate(-30.55 -10.52)"/><path class="cls-4" d="M986.73,535.28l-75.51-75.51A12.5,12.5,0,1,1,928.9,442.1l57.83,57.83Z" transform="translate(-30.55 -10.52)"/><path class="cls-4" d="M986.73,635.29l-75.51-75.51A12.5,12.5,0,0,1,928.9,542.1l57.83,57.83Z" transform="translate(-30.55 -10.52)"/><path class="cls-4" d="M380.89,503.36a16.67,16.67,0,0,1-9.76-30.19l115.75-83.34a16.67,16.67,0,1,1,19.48,27.05L390.62,500.22A16.7,16.7,0,0,1,380.89,503.36Z" transform="translate(-30.55 -10.52)"/><line class="cls-6" x1="316.99" y1="592.85" x2="432.74" y2="509.51"/><rect class="cls-7" x="280.42" y="426.17" width="550.03" height="566.69"/><rect class="cls-8" x="830.44" y="426.17" width="150.01" height="566.69"/><path class="cls-1" d="M522.64,717.46h18.9c7.12,10.74,16.82,19,28.26,28.55,4.89,4.1,10,8.34,15.48,13.32l8.32,7.47,8.31-7.47c5.53-5,10.59-9.21,15.49-13.31,16.44-13.76,29.42-24.64,36.07-44.42l.25-.85c3.74-14.5,2.39-28.26-3.81-38.73a34.89,34.89,0,0,0-21.49-16.25c-16-4.09-27.39,1.84-34.82,7.46-7.44-5.62-18.76-11.56-34.82-7.46A34.86,34.86,0,0,0,537.29,662c-5.15,8.7-6.9,19.67-5.22,31.45h-9.43V643.71H497.58V768.1h25.06Zm36.05-42.77a10,10,0,0,1,6.23-4.81c7.5-1.91,11.39,1.06,17.65,6.48,1.14,1,2.23,1.92,3.28,2.76l7.74,6.17,7.75-6.17c1-.84,2.14-1.77,3.29-2.77,6.26-5.41,10.16-8.38,17.65-6.47a9.91,9.91,0,0,1,6.22,4.81c2.72,4.59,3.17,11.65,1.24,19.41-4.46,12.88-13.47,20.43-28.31,32.84-2.45,2.06-5.08,4.25-7.83,6.61-2.76-2.36-5.38-4.55-7.84-6.61-14.83-12.41-23.84-20-28.3-32.84C555.53,686.34,556,679.28,558.69,674.69Z" transform="translate(-30.55 -10.52)"/></svg>