<svg id="Solid" height="512" viewBox="0 0 512 512" width="512" xmlns="http://www.w3.org/2000/svg"><path d="m400 320a112 112 0 1 0 -112 112 112.127 112.127 0 0 0 112-112zm-208 0a96 96 0 1 1 96 96 96.108 96.108 0 0 1 -96-96z"/><path d="m368 320a80 80 0 1 0 -80 80 80.091 80.091 0 0 0 80-80zm-144 0a8 8 0 0 1 16 0 48.054 48.054 0 0 0 48 48 8 8 0 0 1 0 16 64.072 64.072 0 0 1 -64-64z"/><path d="m456 496a8 8 0 0 0 5.657-13.656l-77.715-77.715a129.039 129.039 0 0 1 -11.313 11.313l77.714 77.714a7.944 7.944 0 0 0 5.657 2.344z"/><path d="m288 56h-48v145.348a127.3 127.3 0 0 1 48-9.348z"/><path d="m144 120v184.949l-3.34 2.671a23.933 23.933 0 0 0 -29.3 3.112l-15.36-7.676v-127.056h-48v156.112l-30.315 38.977a8 8 0 1 0 12.63 9.822l51.973-66.822 21.9 10.95a24 24 0 1 0 46.472-4.93l9.559-7.649a127.906 127.906 0 0 1 3.54-23.31l.01-.011a127.814 127.814 0 0 1 28.23-53.7v-115.439zm-16 216a8 8 0 1 1 6.15-13.109c.007.009.013.02.02.029l.08.1a7.991 7.991 0 0 1 -6.25 12.98z"/><path d="m488 136h-32a8 8 0 0 0 0 16h14.37l-41.454 47.376-21.287-3.548a24.033 24.033 0 0 0 -23.629-19.828v-160h-48v185.348c8.142 3.306 23.084 12.255 23.084 12.255a128.631 128.631 0 0 1 12.816 9.807l1.76-1.75a23.982 23.982 0 0 0 31.34-10.05l25.689 4.282a8.119 8.119 0 0 0 1.311.108 8 8 0 0 0 6.021-2.732l41.979-47.977v10.709a8 8 0 0 0 16 0v-32a8 8 0 0 0 -8-8zm-104 72a8 8 0 1 1 8-8 8.009 8.009 0 0 1 -8 8z"/></svg>