<svg id="Capa_1" enable-background="new 0 0 511.999 511.999" height="512" viewBox="0 0 511.999 511.999" width="512" xmlns="http://www.w3.org/2000/svg"><g><path d="m75.002 248.497c-2.298 0-4.597-.528-6.708-1.583l-68.294-34.147v76.605c.576.205 1.147.434 1.707.714l67.862 33.93c3.42 1.71 7.445 1.71 10.865 0l67.862-33.93c.56-.28 1.131-.509 1.707-.714v-76.605l-68.293 34.146c-2.112 1.056-4.41 1.584-6.708 1.584z"/><path d="m75.002 358.503c-2.298 0-4.597-.528-6.708-1.583l-68.294-34.146v55.732c0 5.682 3.21 10.875 8.292 13.417l60.001 30c2.111 1.056 4.41 1.583 6.708 1.583s4.597-.528 6.708-1.583l60.001-30c5.082-2.541 8.292-7.735 8.292-13.417v-55.732l-68.292 34.146c-2.112 1.056-4.41 1.583-6.708 1.583z"/><path d="m140.003 184.226-58.293-29.146c-4.223-2.111-9.193-2.111-13.416 0l-58.294 29.146 59.569 29.784c3.42 1.71 7.445 1.71 10.865 0z"/><path d="m321.001 119.223-58.293-29.146c-4.223-2.111-9.193-2.111-13.416 0l-58.294 29.146 59.569 29.784c3.42 1.71 7.445 1.71 10.865 0z"/><path d="m256 183.494c-2.298 0-4.597-.528-6.708-1.583l-68.294-34.146v96.606c.576.205 1.147.434 1.707.714l67.862 33.93c3.42 1.71 7.445 1.71 10.865 0l67.862-33.93c.56-.28 1.131-.509 1.707-.714v-96.606l-68.293 34.146c-2.112 1.055-4.41 1.583-6.708 1.583z"/><path d="m256 313.501c-2.298 0-4.597-.528-6.708-1.583l-68.294-34.146v100.734c0 5.682 3.21 10.875 8.292 13.417l60.002 30c2.111 1.056 4.41 1.583 6.708 1.583s4.597-.528 6.708-1.583l60.001-30c5.082-2.541 8.292-7.735 8.292-13.417v-100.734l-68.293 34.146c-2.112 1.056-4.41 1.583-6.708 1.583z"/><path d="m436.997 253.499c-2.298 0-4.597-.528-6.708-1.583l-68.293-34.146v160.737c0 5.682 3.21 10.875 8.292 13.417l60.001 30c2.111 1.056 4.41 1.583 6.708 1.583s4.597-.528 6.708-1.583l60.001-30c5.082-2.541 8.292-7.735 8.292-13.417v-160.738l-68.293 34.146c-2.111 1.056-4.409 1.584-6.708 1.584z"/><path d="m443.706 121.907c-2.111 1.056-4.41 1.583-6.708 1.583s-4.597-.528-6.708-1.583l-68.293-34.146v96.606c.576.205 1.147.434 1.707.714l67.862 33.93c3.42 1.71 7.445 1.71 10.865 0l67.862-33.93c.56-.28 1.131-.509 1.707-.714v-96.606z"/><path d="m501.999 59.22-58.293-29.146c-4.223-2.111-9.193-2.111-13.416 0l-58.294 29.146 59.569 29.784c3.42 1.71 7.445 1.71 10.865 0z"/><path d="m90.002 453.508h-30c-8.284 0-15 6.716-15 15s6.716 15 15 15h30c8.284 0 15-6.716 15-15s-6.716-15-15-15z"/><path d="m271 453.508h-30c-8.284 0-15 6.716-15 15s6.716 15 15 15h30c8.284 0 15-6.716 15-15s-6.716-15-15-15z"/><path d="m451.997 453.508h-30c-8.284 0-15 6.716-15 15s6.716 15 15 15h30c8.284 0 15-6.716 15-15s-6.715-15-15-15z"/></g></svg>