<svg id="Accounting" height="512" viewBox="0 0 64 64" width="512" xmlns="http://www.w3.org/2000/svg"><path d="m32 23h24v4h-24z"/><path d="m52 32h4v4h-4z"/><path d="m32 42h4v4h-4z"/><path d="m32 32h4v4h-4z"/><path d="m32 52h4v4h-4z"/><path d="m42 52h4v4h-4z"/><path d="m13 12.45v-6.9l-7.58 3.45z"/><path d="m42 42h4v4h-4z"/><path d="m52 42h4v14h-4z"/><path d="m42 32h4v4h-4z"/><path d="m15 10h39v3h-39z"/><path d="m26 16v6.39a12 12 0 1 0 0 23.22v6.39a1 1 0 0 1 -1 1h-4a1 1 0 0 1 -1-1v-1.05a3 3 0 0 0 -2-2.82c-.52-.19-.99-.38-1.45-.6a3 3 0 0 0 -3.42.58l-.74.74a1 1 0 0 1 -1.41 0l-2.83-2.83a1 1 0 0 1 -.01-1.41l.76-.74a3.013 3.013 0 0 0 .57-3.42c-.22-.46-.41-.93-.6-1.44a2.994 2.994 0 0 0 -2.82-2.01h-1.05a1 1 0 0 1 -1-1v-4a1 1 0 0 1 1-1h1.05a3 3 0 0 0 2.82-2c.19-.52.38-.99.6-1.45a3 3 0 0 0 -.58-3.42l-.74-.74a1 1 0 0 1 0-1.41l2.83-2.83a1 1 0 0 1 1.41-.01l.74.76a3.013 3.013 0 0 0 3.42.57c.46-.22.93-.41 1.44-.6a2.994 2.994 0 0 0 2.01-2.82v-1.05a1 1 0 0 1 1-1h4a1 1 0 0 1 1 1z"/><path d="m15 5h39v3h-39z"/><path d="m59 5h-3v8h3a1 1 0 0 0 1-1v-6a1 1 0 0 0 -1-1z"/><path d="m29 60h30a1 1 0 0 0 1-1v-39a1 1 0 0 0 -1-1h-30a1 1 0 0 0 -1 1v39a1 1 0 0 0 1 1zm19-3a1 1 0 0 1 -1 1h-6a1 1 0 0 1 -1-1v-6a1 1 0 0 1 1-1h6a1 1 0 0 1 1 1zm0-10a1 1 0 0 1 -1 1h-6a1 1 0 0 1 -1-1v-6a1 1 0 0 1 1-1h6a1 1 0 0 1 1 1zm0-10a1 1 0 0 1 -1 1h-6a1 1 0 0 1 -1-1v-6a1 1 0 0 1 1-1h6a1 1 0 0 1 1 1zm10 20a1 1 0 0 1 -1 1h-6a1 1 0 0 1 -1-1v-16a1 1 0 0 1 1-1h6a1 1 0 0 1 1 1zm0-20a1 1 0 0 1 -1 1h-6a1 1 0 0 1 -1-1v-6a1 1 0 0 1 1-1h6a1 1 0 0 1 1 1zm-28-15a1 1 0 0 1 1-1h26a1 1 0 0 1 1 1v6a1 1 0 0 1 -1 1h-26a1 1 0 0 1 -1-1zm0 9a1 1 0 0 1 1-1h6a1 1 0 0 1 1 1v6a1 1 0 0 1 -1 1h-6a1 1 0 0 1 -1-1zm0 10a1 1 0 0 1 1-1h6a1 1 0 0 1 1 1v6a1 1 0 0 1 -1 1h-6a1 1 0 0 1 -1-1zm0 10a1 1 0 0 1 1-1h6a1 1 0 0 1 1 1v6a1 1 0 0 1 -1 1h-6a1 1 0 0 1 -1-1z"/></svg>