<svg id="Layer_3" enable-background="new 0 0 64 64" height="512" viewBox="0 0 64 64" width="512" xmlns="http://www.w3.org/2000/svg"><g><path d="m24 17c-1.654 0-3 1.346-3 3s1.346 3 3 3c1.653 0 2.999-1.346 2.999-3 0-1.655-1.346-3-2.999-3z"/><path d="m32 41.999c.551 0 .999-.448.999-1s-.448-1-.999-1c-.552 0-1 .448-1 1s.448 1 1 1z"/><path d="m40.161 23.997c1.04.8 2.382 1.156 3.736.94 1.709-.272 3.202-1.555 3.804-3.269.141-.401.52-.668.944-.668h8.354v-2h-8.341c-.426 0-.805-.27-.945-.671-.692-1.992-2.545-3.329-4.609-3.329-1.073 0-2.102.364-2.938 1.004 2.128.088 3.832 1.847 3.832 3.996.001 2.151-1.707 3.912-3.837 3.997z"/><path d="m27.052 48c.613 1.237.947 2.605.947 4 0 1.028-.193 2.039-.533 3h9.067c-.34-.96-.533-1.972-.533-3 0-1.394.334-2.764.947-4z"/><path d="m42.999 57h-21.999c-1.654 0-3 1.346-3 3v1h27.999v-1c0-1.654-1.346-3-3-3z"/><path d="m2.999 43c0 1.654 1.347 3 3 3h52.001c1.653 0 3-1.346 3-3v-7h-58.001zm29.001-5c1.653 0 2.999 1.346 2.999 3s-1.346 3-2.999 3c-1.654 0-3-1.346-3-3 0-1.655 1.346-3 3-3z"/><path d="m56.999 7h-49.999v26.999h49.999v-10.999h-7.684c-.974 2.083-2.874 3.558-5.104 3.912-.37.059-.74.088-1.106.088-2.456 0-4.724-1.302-5.976-3.505-.176-.31-.174-.689.005-.997.18-.309.51-.498.865-.498h2c1.103 0 2-.897 2-2s-.897-2-2-2h-1.999c-.154 0-.308-.036-.446-.105-.246-.123-.432-.341-.511-.604-.08-.263-.05-.547.086-.786 1.229-2.162 3.518-3.505 5.975-3.505 2.674 0 5.093 1.581 6.225 4h7.67zm-22 14.999c0 .553-.447 1-1 1h-1.382l-.401.803 1.491 1.49c.39.391.39 1.024 0 1.415l-3 3c-.39.39-1.023.392-1.415 0l-1.49-1.491-.803.401v1.382c0 .553-.447 1-1 1h-3.999c-.553 0-1-.447-1-1v-1.382l-.803-.401-1.49 1.491c-.391.392-1.024.39-1.415 0l-3-3c-.39-.391-.39-1.024 0-1.415l1.491-1.49-.401-.803h-1.382c-.553 0-1-.447-1-1v-4c0-.553.447-1 1-1h1.382l.401-.803-1.491-1.49c-.39-.391-.39-1.024 0-1.415l3-3c.391-.39 1.024-.391 1.415 0l1.49 1.491.803-.401v-1.381c0-.553.447-1 1-1h3.999c.553 0 1 .447 1 1v1.382l.803.401 1.49-1.491c.392-.391 1.025-.39 1.415 0l3 3c.39.391.39 1.024 0 1.415l-1.491 1.49.401.803h1.382c.553 0 1 .447 1 1z"/><path d="m58 3h-52.001c-1.653 0-3 1.346-3 3v27.999h2.001v-26.999c0-1.103.896-2 2-2h49.999c1.104 0 2 .897 2 2v26.999h2.001v-27.999c0-1.654-1.347-3-3-3z"/><path d="m31.105 18.446-1-2c-.193-.385-.117-.85.187-1.154l1.293-1.292-1.586-1.586-1.292 1.293c-.304.304-.769.383-1.154.187l-2-1c-.339-.169-.554-.516-.554-.894v-1h-1.999v1c0 .378-.215.725-.554.894l-2 1c-.383.196-.85.117-1.154-.187l-1.292-1.293-1.586 1.586 1.293 1.292c.304.305.38.77.187 1.154l-1 2c-.169.339-.516.554-.894.554h-1v2h1c.378 0 .725.214.894.553l1 2c.193.385.117.85-.187 1.154l-1.293 1.292 1.586 1.586 1.292-1.293c.305-.303.771-.379 1.154-.187l2 1c.339.169.554.516.554.894v1h1.999v-1c0-.378.215-.725.554-.894l2-1c.386-.192.851-.116 1.154.187l1.292 1.293 1.586-1.586-1.293-1.292c-.304-.305-.38-.77-.187-1.154l1-2c.169-.339.516-.553.894-.553h1v-2h-1c-.378 0-.725-.215-.894-.554zm-7.105 6.553c-2.758 0-5-2.243-5-5s2.242-5 5-5c2.757 0 4.999 2.243 4.999 5s-2.242 5-4.999 5z"/></g></svg>