<svg id="Layer_1" height="512" viewBox="0 0 512 512" width="512" xmlns="http://www.w3.org/2000/svg" data-name="Layer 1"><path d="m489.423 311.739a4.68 4.68 0 0 0 -.092-.463 4.843 4.843 0 0 0 -.145-.467c-.055-.152-.113-.3-.182-.446s-.148-.285-.231-.425-.172-.275-.269-.406-.195-.247-.3-.365a4.613 4.613 0 0 0 -.37-.37c-.06-.055-.107-.119-.17-.171l-93.1-76a26.1 26.1 0 0 0 17.651-15.568 5 5 0 0 0 -9.274-3.742 16.216 16.216 0 1 1 -15-22.447 5 5 0 0 0 5-5v-56.869h20.232v-19.744h-51.673v19.744h21.435v52.349a26.342 26.342 0 0 0 -3.711 50.636l-93.886 76.641c-.064.052-.11.117-.17.171a4.771 4.771 0 0 0 -.37.369c-.107.119-.208.24-.3.366s-.185.266-.269.406-.162.28-.231.425-.127.294-.182.446a4.843 4.843 0 0 0 -.145.467c-.039.152-.068.306-.092.463a4.825 4.825 0 0 0 -.053.523c0 .081-.024.156-.024.238v97a5 5 0 0 0 5 5h196a5 5 0 0 0 5-5v-97c0-.081-.02-.157-.024-.238a4.825 4.825 0 0 0 -.055-.523zm-157.923 66.761a5 5 0 0 1 -10 0v-35a5 5 0 0 1 10 0zm40 0a5 5 0 0 1 -10 0v-35a5 5 0 0 1 10 0zm40 0a5 5 0 0 1 -10 0v-35a5 5 0 0 1 10 0zm40 0a5 5 0 0 1 -10 0v-35a5 5 0 0 1 10 0zm-148.968-71 83.968-68.545 83.968 68.545z"/><path d="m123.336 289.465-52.014 23.937 52.006 23.933z"/><path d="m123.325 353.491-52.893 24.341 52.885 24.337z"/><path d="m66.342 433.264 50.312-23.153-50.307-23.152z"/><path d="m66.352 322.123-.004 46.58 50.611-23.291z"/><path d="m66.34 459.361h56.967l.007-41.308-56.973 26.219z"/><path d="m66.364 195.786-.004 46.43 50.447-23.216z"/><path d="m66.358 258.386-.004 46.294 50.3-23.148z"/><path d="m129.687 469.361h-70.506a26.683 26.683 0 0 0 -26.168 21.639h122.842a26.684 26.684 0 0 0 -26.168-21.639z"/><path d="m123.357 162.435-52.772 24.286 52.764 24.282z"/><path d="m123.346 226.999-50.636 23.302 50.628 23.299z"/><path d="m431.623 68.05h-54.06l-254.246-38.8v-3.641l-46.263 32.441h46.287l-.015-18.684 187.952 28.684h-270.353l25.359-27.216-.029 12.576 46.214-32.41h-46.141l-.011 5.129-39.061 41.921h-4.756v31.206h409.253zm-106.599 20.95h-127.524a5 5 0 0 1 0-10h127.524a5 5 0 0 1 0 10zm23.743 0h-5.829a5 5 0 0 1 0-10h5.829a5 5 0 0 1 0 10z"/><path d="m123.366 109.256h-56.994l-.001 10.687 56.989 26.226z"/><path d="m66.37 130.95-.004 46.705 50.746-23.353z"/></svg>