<svg height="454pt" viewBox="-23 0 454 454.40313" width="454pt" xmlns="http://www.w3.org/2000/svg"><path d="m183.664062 306.441406c-3.640624-1.828125-6.976562-4.207031-9.894531-7.050781l11.3125-11.3125c9.496094 9.078125 24.453125 9.078125 33.953125 0 3.171875-3 8.136719-3 11.308594 0l33.945312 33.945313c3.164063 3.027343 8.148438 3.027343 11.3125 0 3.125-3.125 3.125-8.1875 0-11.3125l-62.710937-62.710938h-27.3125l-71.199219 71.199219 28.285156 28.289062zm0 0"/><path d="m40.835938 256.976562 79.195312-79.195312 33.941406 33.941406-79.195312 79.195313zm0 0"/><path d="m91.75 296.570312 67.878906-67.898437 11.316406 11.308594-67.878906 67.898437zm0 0"/><path d="m258.601562 452.128906c3.160157 3.03125 8.152344 3.03125 11.3125 0 1.5-1.5 2.347657-3.539062 2.347657-5.660156 0-2.125-.847657-4.160156-2.347657-5.660156l-11.3125-11.304688c-3.167968-2.796875-7.964843-2.644531-10.953124.34375-2.988282 2.988282-3.132813 7.785156-.335938 10.953125zm0 0"/><path d="m251.730469 411.289062c.417969-12.269531 10.320312-22.085937 22.589843-22.402343.421876-12.375 10.308594-22.335938 22.679688-22.847657.316406-7.222656 3.90625-13.910156 9.75-18.160156 5.847656-4.253906 13.3125-5.613281 20.285156-3.6875l2.351563-2.351562-70.546875-70.519532 28.082031 28.078126c9.367187 9.375 9.367187 24.566406 0 33.9375-9.496094 9.070312-24.445313 9.070312-33.945313 0l-28.855468-28.839844c-6.539063 4.335937-14.214844 6.640625-22.0625 6.617187-.136719 0-.273438-.042969-.410156-.042969l-36.34375 36.425782-16.96875 16.96875c-1.5 1.5-2.34375 3.535156-2.34375 5.660156 0 2.121094.84375 4.160156 2.34375 5.660156 3.167968 3.019532 8.148437 3.019532 11.3125 0l22.632812-22.632812 11.3125 11.3125-22.632812 22.632812c-2.902344 3.15625-2.804688 8.039063.230468 11.074219 3.03125 3.03125 7.917969 3.132813 11.074219.226563l22.625-22.621094 11.3125 11.300781-22.625 22.625c-3.125 3.125-3.125 8.1875 0 11.3125 3.121094 2.992187 8.03125 3.03125 11.199219.089844l.0625-.089844 17.289062-17.222656 5.402344-5.402344 11.308594 11.3125-7.542969 7.519531-15.09375 15.113282-.105469.078124c-2.882812 3.183594-2.738281 8.074219.324219 11.078126 3.066406 3.007812 7.957031 3.0625 11.082031.125l2.402344-2.402344c-1.910156-6.964844-.542969-14.417969 3.714844-20.25 4.253906-5.835938 10.933594-9.414063 18.148437-9.726563zm0 0"/><path d="m284.082031 228.6875 33.9375-33.941406 90.511719 90.507812-33.9375 33.941406zm0 0"/><path d="m272.777344 262.621094 11.308594-11.308594 67.882812 67.886719-11.308594 11.308593zm0 0"/><path d="m337.800781 384.246094c3.125-3.121094 3.125-8.1875 0-11.308594l-11.289062-11.335938c-3.121094-3.128906-8.1875-3.128906-11.3125-.003906-3.128907 3.121094-3.128907 8.1875-.003907 11.3125l11.308594 11.3125c3.117188 3.121094 8.167969 3.132813 11.296875.023438zm0 0"/><path d="m292.570312 429.503906c3.121094-3.125 3.121094-8.1875 0-11.3125l-11.3125-11.320312c-3.125-3.121094-8.191406-3.121094-11.316406.003906s-3.121094 8.191406.003906 11.316406l11.3125 11.3125c3.125 3.125 8.1875 3.125 11.3125 0zm0 0"/><path d="m315.195312 406.878906c1.5-1.5 2.34375-3.535156 2.34375-5.660156 0-2.121094-.84375-4.160156-2.34375-5.660156l-11.3125-11.3125c-2.011718-2.078125-4.984374-2.910156-7.78125-2.179688-2.796874.730469-4.980468 2.917969-5.714843 5.714844-.730469 2.796875.101562 5.769531 2.183593 7.777344l11.3125 11.320312c3.164063 3.019532 8.144532 3.019532 11.3125 0zm0 0"/><path d="m280.203125 152v-72h-112v72h32v-40c0-4.417969 3.582031-8 8-8h32c4.417969 0 8 3.582031 8 8v40zm0 0"/><path d="m216.203125 120h16v32h-16zm0 0"/><path d="m289.785156 64-65.582031-53.664062-65.585937 53.664062zm0 0"/><path d="m72.203125 72h16v-16h16v-16h-16v-16h-16v16h-16v16h16zm0 0"/><path d="m360.203125 136v16h16v16h16v-16h16v-16h-16v-16h-16v16zm0 0"/><path d="m328.203125 48h16v-16h16v-16h-16v-16h-16v16h-16v16h16zm0 0"/><path d="m32.203125 168v-16h16v-16h-16v-16h-16v16h-16v16h16v16zm0 0"/></svg>