<svg height="512" viewBox="0 0 64 64" width="512" xmlns="http://www.w3.org/2000/svg"><path d="m33 35h7v2h-7z"/><path d="m33 51h22v-12h-7v3a1 1 0 0 1 -1.555.832l-2.445-1.632-2.445 1.63a1 1 0 0 1 -1.555-.83v-3h-7z"/><path d="m44.555 39.168 1.445.963v-5.131h-4v5.131l1.445-.963a1 1 0 0 1 1.11 0z"/><path d="m9 17h7v2h-7z"/><path d="m54 57h6v2h-6z"/><path d="m48 35h7v2h-7z"/><path d="m9 33h22v-12h-7v3a1 1 0 0 1 -1.555.832l-2.445-1.632-2.445 1.63a1 1 0 0 1 -1.555-.83v-3h-7z"/><path d="m4 53h56v2h-56z"/><path d="m4 57h6v2h-6z"/><path d="m29 57h6v2h-6z"/><path d="m33 17h7v2h-7z"/><path d="m9 35h7v2h-7z"/><path d="m19.445 39.168a1 1 0 0 1 1.11 0l1.445.963v-5.131h-4v5.131z"/><path d="m9 51h22v-12h-7v3a1 1 0 0 1 -1.555.832l-2.445-1.632-2.445 1.63a1 1 0 0 1 -1.555-.83v-3h-7z"/><path d="m24 35h7v2h-7z"/><path d="m24 17h7v2h-7z"/><path d="m48 17h7v2h-7z"/><path d="m44.555 21.168 1.445.963v-5.131h-4v5.131l1.445-.963a1 1 0 0 1 1.11 0z"/><path d="m55 21h-7v3a1 1 0 0 1 -1.555.832l-2.445-1.632-2.445 1.63a1 1 0 0 1 -1.555-.83v-3h-7v12h22z"/><path d="m19.445 21.168a1 1 0 0 1 1.11 0l1.445.963v-5.131h-4v5.131z"/></svg>