<svg id="Layer_5" enable-background="new 0 0 64 64" height="512" viewBox="0 0 64 64" width="512" xmlns="http://www.w3.org/2000/svg"><g><path d="m35.472 19c.693.974 1.29 2.015 1.792 3.109-.126-1.002-.206-2.041-.238-3.109z"/><path d="m52.159 11h-12.318c-.462 1.821-.746 3.858-.816 6h13.951c-.07-2.142-.355-4.179-.817-6z"/><path d="m31.38 14.806c.879.661 1.696 1.395 2.447 2.194h3.199c.063-2.139.322-4.16.752-6h-5.029c-.627 1.182-1.078 2.464-1.369 3.806z"/><path d="m34.028 9h4.308c.658-2.024 1.528-3.762 2.566-5.089-2.759 1.001-5.138 2.785-6.874 5.089z"/><path d="m39.841 25h12.319c.462-1.821.746-3.858.816-6h-13.952c.07 2.142.355 4.179.817 6z"/><path d="m51.546 9c-1.292-3.613-3.314-6-5.546-6s-4.254 2.387-5.546 6z"/><path d="m51.098 32.089c2.759-1.002 5.138-2.785 6.874-5.089h-4.308c-.658 2.023-1.528 3.762-2.566 5.089z"/><path d="m54.222 25h5.034c.961-1.812 1.55-3.845 1.693-6h-5.975c-.063 2.139-.322 4.16-.752 6z"/><path d="m54.974 17h5.975c-.143-2.155-.732-4.188-1.693-6h-5.034c.43 1.84.689 3.861.752 6z"/><path d="m40.454 27c1.292 3.613 3.314 6 5.546 6s4.254-2.387 5.546-6z"/><path d="m39 30v1.261c.623.329 1.263.619 1.922.856-.759-.964-1.424-2.153-1.987-3.506.034.46.065.921.065 1.389z"/><path d="m57.972 9c-1.736-2.304-4.115-4.087-6.874-5.089 1.038 1.327 1.908 3.066 2.566 5.089z"/><path d="m9 58c0 1.654 1.346 3 3 3h16c1.654 0 3-1.346 3-3v-1h-22z"/><path d="m3 44c0 2.206 1.794 4 4 4v-8c-2.206 0-4 1.794-4 4z"/><circle cx="20" cy="42" r="3"/><path d="m13 54v1h14v-1c0-2.488-1.309-4.671-3.27-5.913l-3.73 4.476-3.729-4.476c-1.962 1.241-3.271 3.425-3.271 5.913z"/><path d="m18.177 47.249 1.823 2.189 1.823-2.188c-.582-.158-1.191-.25-1.823-.25s-1.241.092-1.823.249z"/><path d="m28 27h-16c-1.654 0-3 1.346-3 3v3h22v-3c0-1.654-1.346-3-3-3zm-5 4h-6v-2h6z"/><path d="m33 40v8c2.206 0 4-1.794 4-4s-1.794-4-4-4z"/><path d="m9 55h2v-1c0-3.768 2.33-6.998 5.623-8.337-.991-.914-1.623-2.212-1.623-3.663 0-2.757 2.243-5 5-5s5 2.243 5 5c0 1.451-.632 2.749-1.623 3.663 3.293 1.339 5.623 4.569 5.623 8.337v1h2v-20h-22z"/><path d="m50 42h4v20h-4z"/><path d="m58 50h4v12h-4z"/><path d="m42 46h4v16h-4z"/><path d="m23 13.283v-5.283c0-1.654-1.346-3-3-3h-12c-1.654 0-3 1.346-3 3v8c0 1.366.923 2.508 2.174 2.87-2.665 3.073-4.174 7.015-4.174 11.13v9.54c.578-.519 1.254-.926 2-1.19v-8.35c0-4.043 1.652-7.894 4.528-10.708l1.237 2.473c.381.761 1.147 1.235 1.999 1.235 1.233 0 2.236-1.003 2.236-2.236v-1.764h5c1.654 0 3-1.346 3-3v-.69c6.914 1.403 12 7.523 12 14.69v8.35c.746.265 1.422.672 2 1.19v-9.54c0-8.259-5.962-15.284-14-16.717zm-12-.283h-2v-2h2zm4 0h-2v-2h2zm4 0h-2v-2h2z"/></g></svg>