<svg xmlns="http://www.w3.org/2000/svg" xmlns:xlink="http://www.w3.org/1999/xlink" viewBox="0 0 512 401.69"><defs><style>.cls-1{fill:none;}.cls-2{fill:#4a4a4a;}.cls-3{fill:#ebf0f3;}.cls-4{fill:#5a5a5a;}.cls-5{clip-path:url(#clip-path);}.cls-6{fill:#ee7203;}.cls-7{fill:#fff;}</style><clipPath id="clip-path"><rect class="cls-1" x="135" y="115.84" width="242" height="242"/></clipPath></defs><g id="Слой_2" data-name="Слой 2"><g id="Слой_1-2" data-name="Слой 1"><path class="cls-2" d="M32.28,0H154.73a22.41,22.41,0,0,1,19.43,11.23l20.15,27.53A22.42,22.42,0,0,0,213.74,50H512V364.32a29.9,29.9,0,0,1-29.89,29.9H29.89A29.9,29.9,0,0,1,0,364.32V84.87A224.38,224.38,0,0,1,10.58,16.78h0A22.42,22.42,0,0,1,32.28,0Z"/><rect class="cls-3" x="46.59" y="44.86" width="393.56" height="166.25"/><path class="cls-4" d="M489.58,15H366.19a22.41,22.41,0,0,0-20.39,13.1L324.68,74.26a22.43,22.43,0,0,1-20.39,13.1H0V371.8a29.89,29.89,0,0,0,29.89,29.89H482.11A29.89,29.89,0,0,0,512,371.8V37.36A22.41,22.41,0,0,0,489.58,15Z"/><g class="cls-5"><g class="cls-5"><path class="cls-6" d="M347.33,238.84A91.33,91.33,0,1,1,256,147.51a91.33,91.33,0,0,1,91.33,91.33"/><path class="cls-7" d="M221,248.53l13.08,0c4.94,7.42,11.66,13.1,19.58,19.71,3.4,2.83,6.9,5.76,10.74,9.19l5.76,5.16,5.74-5.18c3.82-3.45,7.32-6.39,10.7-9.23,11.35-9.55,20.32-17.09,24.89-30.78l.17-.59c2.57-10,1.62-19.56-2.69-26.79a24.1,24.1,0,0,0-14.89-11.21C283,196,275.15,200.1,270,204c-5.16-3.87-13-8-24.1-5.1a24.18,24.18,0,0,0-14.85,11.27c-3.55,6-4.74,13.62-3.56,21.76l-6.53,0-.07-34.43-17.33,0,.17,86.06,17.34,0Zm24.88-29.64a6.92,6.92,0,0,1,4.3-3.34c5.19-1.33,7.89.73,12.22,4.46.79.69,1.55,1.33,2.28,1.91l5.36,4.26,5.36-4.28c.72-.58,1.47-1.23,2.27-1.92,4.32-3.76,7-5.81,12.2-4.51a6.88,6.88,0,0,1,4.31,3.33c1.89,3.16,2.2,8,.88,13.42-3.07,8.92-9.29,14.15-19.54,22.77-1.69,1.42-3.5,2.94-5.41,4.58q-2.87-2.44-5.42-4.56c-10.28-8.57-16.53-13.78-19.64-22.68-1.34-5.37-1-10.26.83-13.44"/></g></g></g></g></svg>