<?xml version="1.0" standalone="no"?>
<!DOCTYPE svg PUBLIC "-//W3C//DTD SVG 20010904//EN"
 "http://www.w3.org/TR/2001/REC-SVG-20010904/DTD/svg10.dtd">
<svg version="1.0" xmlns="http://www.w3.org/2000/svg"
 width="977.000000pt" height="437.000000pt" viewBox="0 0 977.000000 437.000000"
 preserveAspectRatio="xMidYMid meet">

<g transform="translate(0.000000,437.000000) scale(0.100000,-0.100000)"
fill="#000000" stroke="none">
<path d="M5279 3994 c-13 -27 -26 -51 -29 -54 -3 -3 -63 -120 -133 -260 -71
-140 -144 -282 -163 -315 -19 -33 -40 -72 -45 -87 -6 -16 -15 -28 -19 -28 -4
0 -11 -12 -15 -27 -3 -15 -12 -31 -18 -35 -16 -10 -12 -77 7 -113 9 -16 16
-35 16 -42 0 -6 3 -13 8 -15 7 -3 60 -108 152 -300 23 -49 45 -88 49 -88 4 0
29 42 55 93 27 50 63 119 82 152 19 33 40 71 47 85 6 14 14 27 17 30 5 5 19
31 84 155 67 126 119 220 127 225 4 3 11 18 14 33 4 15 11 27 15 27 4 0 11 12
15 27 3 15 10 30 13 33 4 3 31 55 61 115 30 61 58 112 63 113 4 2 8 11 8 21 0
9 4 21 9 27 5 5 38 66 74 137 l65 127 -172 0 c-94 0 -214 3 -267 6 l-96 7 -24
-49z"/>
<path d="M3825 3993 c-110 -7 -226 -16 -258 -21 l-58 -7 43 -85 c24 -47 46
-87 50 -90 3 -3 10 -18 13 -33 4 -15 11 -27 15 -27 4 0 13 -12 19 -27 6 -16
33 -68 61 -118 27 -49 60 -110 72 -135 13 -25 25 -47 28 -50 3 -3 26 -44 50
-92 25 -48 62 -120 82 -160 21 -40 38 -79 38 -85 0 -7 4 -13 9 -13 5 0 13 -9
16 -21 4 -11 26 -53 48 -92 23 -40 71 -130 107 -202 36 -71 68 -132 72 -135 3
-3 10 -18 13 -33 4 -15 11 -27 15 -27 5 0 11 -13 15 -30 4 -17 10 -30 15 -30
4 0 13 -12 19 -27 5 -16 33 -68 60 -118 28 -49 68 -124 88 -165 21 -41 41 -77
45 -80 3 -3 10 -18 13 -33 4 -15 11 -27 15 -27 4 0 11 -12 15 -27 3 -15 10
-30 13 -33 4 -3 47 -84 96 -180 49 -96 110 -215 137 -265 26 -49 78 -151 116
-225 37 -74 71 -136 76 -138 4 -2 7 -9 7 -14 0 -12 72 -160 81 -168 4 -3 10
-16 14 -30 4 -13 14 -30 21 -38 8 -7 14 -22 14 -32 0 -10 3 -20 8 -22 9 -4 52
-91 52 -107 0 -6 4 -11 9 -11 5 0 12 -12 16 -27 3 -15 10 -30 13 -33 4 -3 32
-54 62 -115 30 -60 66 -127 78 -149 l24 -39 211 6 c218 6 499 25 762 51 229
23 521 61 595 78 25 6 70 14 100 18 30 4 75 12 100 18 25 6 83 18 130 27 122
24 218 45 269 61 25 8 53 14 62 14 10 0 33 6 51 14 18 7 80 29 138 47 58 18
157 55 220 82 159 67 178 76 185 86 3 5 19 12 35 16 17 4 30 11 30 16 0 5 7 9
15 9 8 0 36 13 62 28 26 16 55 31 63 35 24 12 57 32 71 44 8 5 41 25 74 43 33
18 86 53 118 76 31 24 62 44 67 44 6 0 10 4 10 9 0 4 19 21 43 36 53 36 283
268 292 295 3 11 11 20 16 20 5 0 9 7 9 15 0 8 4 15 9 15 27 0 147 248 178
370 64 247 58 544 -15 750 -61 169 -80 210 -136 284 -20 25 -36 48 -36 50 0 4
-44 57 -72 87 -10 11 -18 21 -18 24 0 8 -103 105 -112 105 -4 0 -8 7 -8 15 0
8 -7 15 -15 15 -8 0 -15 4 -15 8 0 10 -121 101 -170 128 -19 10 -37 21 -40 24
-13 14 -139 82 -265 144 -159 77 -151 74 -265 116 -150 56 -214 79 -255 90
-16 5 -68 20 -115 33 -143 42 -296 77 -366 84 -51 5 -52 5 -59 -26 -4 -17 -10
-31 -15 -31 -5 0 -11 -13 -15 -30 -4 -16 -10 -30 -15 -30 -5 0 -11 -13 -15
-30 -4 -16 -11 -30 -16 -30 -5 0 -9 -5 -9 -12 0 -14 -191 -401 -201 -408 -4
-3 -11 -18 -14 -33 -4 -15 -11 -27 -15 -27 -5 0 -11 -14 -15 -30 -4 -17 -10
-30 -15 -30 -5 0 -11 -13 -15 -30 -4 -16 -10 -30 -15 -30 -4 0 -11 -12 -14
-26 -4 -14 -17 -42 -30 -62 -13 -20 -26 -47 -30 -59 -4 -13 -11 -23 -16 -23
-4 0 -11 -12 -15 -27 -3 -15 -10 -30 -13 -33 -4 -3 -44 -79 -90 -170 -92 -183
-162 -317 -177 -340 -5 -8 -15 -30 -21 -47 l-12 -33 77 0 c42 -1 161 -2 265
-3 l189 -2 96 190 c52 105 98 192 102 195 3 3 9 17 13 33 3 15 11 27 16 27 6
0 10 7 10 16 0 15 39 94 51 104 4 3 10 16 14 30 4 14 10 27 14 30 6 5 51 89
113 210 15 30 28 61 28 68 0 6 4 12 9 12 5 0 12 14 16 30 4 17 11 30 16 30 5
0 9 7 9 15 0 20 31 34 55 24 11 -4 34 -8 50 -8 27 -1 69 -12 160 -43 17 -5 46
-14 65 -18 19 -4 51 -14 70 -20 145 -52 200 -74 200 -82 0 -5 6 -8 13 -8 12 0
26 -7 105 -51 60 -33 68 -38 152 -93 80 -53 240 -207 240 -231 0 -8 3 -15 8
-15 6 0 24 -32 94 -173 26 -52 47 -227 36 -300 -18 -127 -29 -182 -38 -191 -6
-6 -10 -17 -10 -25 -1 -9 -9 -34 -20 -56 -11 -22 -19 -46 -20 -52 0 -7 -3 -13
-7 -13 -5 0 -17 -20 -28 -45 -11 -25 -23 -45 -27 -45 -4 0 -14 -12 -22 -27 -8
-16 -37 -52 -65 -82 -28 -30 -51 -58 -51 -62 0 -5 -7 -9 -15 -9 -8 0 -15 -4
-15 -8 0 -15 -231 -180 -284 -203 -12 -5 -28 -13 -36 -18 -33 -21 -228 -110
-272 -125 -26 -9 -56 -20 -65 -26 -23 -13 -381 -130 -399 -130 -7 0 -28 -6
-46 -14 -45 -19 -236 -68 -333 -85 -197 -35 -247 -43 -310 -51 -72 -8 -168
-22 -302 -41 -43 -7 -98 -14 -123 -15 -25 -2 -112 -11 -195 -19 -382 -38 -395
-38 -395 0 0 8 -4 15 -8 17 -5 2 -41 68 -81 148 -40 80 -114 226 -166 325 -51
99 -138 268 -192 375 -54 107 -101 197 -105 198 -5 2 -8 8 -8 14 0 12 -42 100
-51 108 -4 3 -10 16 -14 30 -4 14 -10 27 -14 30 -3 3 -30 52 -60 110 -29 58
-59 112 -66 120 -6 8 -27 47 -46 85 -19 39 -37 72 -40 75 -4 3 -10 16 -14 30
-4 14 -11 27 -14 30 -4 3 -44 77 -88 165 -44 88 -92 180 -107 205 -14 25 -29
52 -32 60 -15 37 -107 216 -115 225 -5 5 -9 16 -9 24 0 8 -6 22 -14 30 -7 9
-28 45 -47 81 -19 36 -36 67 -39 70 -3 3 -18 30 -33 60 -42 85 -85 162 -96
173 -6 6 -11 19 -11 28 0 9 -7 22 -15 29 -8 7 -15 21 -15 31 0 11 -3 19 -8 19
-4 0 -18 24 -32 53 -13 28 -34 69 -47 90 -27 44 -12 43 -338 20z"/>
<path d="M6375 3974 c-9 -13 -20 -34 -25 -47 -6 -12 -33 -62 -60 -112 -28 -49
-55 -102 -61 -117 -6 -16 -15 -28 -20 -28 -5 0 -9 -9 -9 -19 0 -11 -6 -26 -14
-33 -7 -8 -17 -25 -21 -38 -4 -14 -11 -27 -14 -30 -3 -3 -19 -30 -34 -60 -15
-30 -40 -77 -57 -105 -17 -27 -36 -62 -42 -77 -7 -16 -16 -28 -19 -28 -4 0
-10 -13 -14 -30 -4 -16 -10 -30 -15 -30 -4 0 -10 -8 -14 -17 -3 -10 -10 -26
-16 -35 -16 -28 -27 -50 -51 -98 -21 -41 -56 -97 -69 -110 -3 -3 -18 -30 -33
-60 -15 -30 -40 -77 -56 -105 -32 -54 -48 -84 -105 -190 -21 -38 -46 -83 -56
-100 -10 -16 -31 -55 -47 -85 -15 -30 -31 -57 -35 -60 -3 -3 -10 -18 -13 -33
l-7 -27 206 -2 c113 -1 238 -3 277 -3 l72 0 37 70 c20 39 63 120 95 180 32 61
79 151 104 200 25 50 49 92 53 95 3 3 10 18 13 33 4 15 11 27 16 27 5 0 9 6 9
13 0 7 12 30 27 52 14 21 50 84 78 140 82 158 120 230 125 235 3 3 38 70 78
150 41 80 112 219 158 310 46 91 84 168 84 172 0 12 -77 17 -297 21 l-212 5
-16 -24z"/>
<path d="M3160 3913 c-46 -4 -203 -31 -260 -45 -25 -5 -70 -14 -100 -18 -62
-9 -182 -32 -250 -48 -25 -6 -81 -18 -125 -28 -44 -9 -102 -22 -130 -30 -47
-12 -85 -22 -235 -59 -153 -38 -187 -48 -218 -61 -18 -8 -40 -14 -50 -14 -20
0 -218 -65 -244 -80 -10 -6 -23 -10 -28 -10 -11 0 -163 -70 -245 -113 -22 -12
-50 -26 -62 -32 -13 -5 -23 -13 -23 -17 0 -3 -14 -9 -31 -13 -17 -4 -33 -13
-36 -21 -3 -8 -10 -14 -17 -14 -16 0 -206 -127 -233 -156 -12 -13 -25 -24 -28
-24 -16 0 -226 -222 -285 -302 -38 -51 -73 -97 -77 -103 -5 -5 -19 -31 -33
-57 -14 -27 -28 -48 -32 -48 -5 0 -8 -7 -8 -16 0 -9 -6 -30 -14 -47 -8 -18
-21 -54 -30 -82 -51 -165 -51 -162 -51 -376 0 -141 4 -210 12 -220 6 -8 14
-36 18 -63 4 -27 14 -61 21 -75 8 -14 14 -31 14 -37 0 -32 106 -210 152 -256
16 -15 28 -29 28 -31 0 -8 161 -167 170 -167 4 0 10 -3 12 -8 1 -4 35 -34 73
-66 39 -32 71 -63 73 -67 2 -5 10 -9 18 -9 8 0 14 -4 14 -10 0 -5 20 -21 45
-36 25 -14 45 -30 45 -35 0 -5 5 -9 10 -9 6 0 20 -8 31 -18 10 -11 32 -25 46
-33 15 -8 50 -29 78 -47 45 -30 345 -181 456 -230 83 -37 284 -100 531 -166
239 -64 681 -127 988 -141 69 -3 188 -9 265 -13 77 -4 225 -7 329 -7 l189 0
18 30 c10 17 37 68 60 115 23 47 45 87 50 90 4 3 11 18 14 33 4 15 11 27 15
27 5 0 11 13 15 30 4 16 10 30 15 30 5 0 11 14 15 30 4 16 10 30 15 30 4 0 11
12 15 27 3 15 10 30 13 33 4 3 38 67 76 143 39 76 73 140 77 143 4 2 10 18 14
34 4 17 11 30 16 30 5 0 9 8 9 18 1 9 12 35 25 57 13 22 36 65 51 95 15 30 38
72 50 92 23 37 33 108 15 108 -5 0 -12 12 -16 27 -3 15 -10 30 -15 33 -7 4
-97 173 -191 358 -17 34 -36 62 -41 62 -5 0 -29 -44 -55 -98 -25 -53 -50 -98
-54 -100 -5 -2 -9 -9 -9 -15 0 -7 -102 -217 -227 -468 l-228 -456 -83 -7
c-116 -10 -563 2 -712 19 -69 8 -147 16 -175 18 -193 16 -609 125 -825 217
-104 45 -242 108 -260 120 -8 6 -26 15 -40 21 -13 5 -27 13 -30 17 -3 4 -23
16 -45 27 -37 18 -94 53 -105 65 -3 3 -16 10 -30 16 -31 14 -174 121 -178 134
-2 6 -8 10 -13 10 -12 0 -69 49 -128 110 -63 65 -71 75 -71 88 0 7 -4 12 -9
12 -5 0 -12 14 -16 30 -4 17 -10 30 -13 30 -9 0 -38 81 -54 147 -23 96 -9 306
22 337 6 6 10 19 10 29 0 23 30 77 112 201 47 71 219 220 305 264 23 11 50 25
60 31 41 23 213 101 222 101 5 0 22 6 38 14 15 8 48 22 73 31 25 9 60 23 78
31 18 8 40 14 50 14 9 0 26 7 36 15 11 8 30 15 42 15 12 0 35 6 51 14 27 14
156 55 258 81 28 8 75 21 106 29 31 9 70 16 88 16 17 0 48 7 68 15 19 8 50 15
67 15 17 0 60 6 96 14 89 19 190 36 283 47 43 5 83 11 88 15 6 3 50 10 97 14
48 5 116 14 152 19 36 6 100 14 143 17 90 7 92 11 47 89 -16 28 -39 70 -52 95
-13 25 -26 47 -30 50 -3 3 -10 18 -13 33 -4 15 -11 27 -15 27 -5 0 -11 14 -15
30 -4 17 -10 30 -13 30 -4 0 -18 24 -32 53 -46 98 -94 170 -110 165 -3 -1 -21
-3 -40 -5z"/>
</g>
</svg>
