<?xml version="1.0" standalone="no"?>
<!DOCTYPE svg PUBLIC "-//W3C//DTD SVG 20010904//EN"
 "http://www.w3.org/TR/2001/REC-SVG-20010904/DTD/svg10.dtd">
<svg version="1.0" xmlns="http://www.w3.org/2000/svg"
 width="1197.000000pt" height="952.000000pt" viewBox="0 0 1197.000000 952.000000"
 preserveAspectRatio="xMidYMid meet">

<g transform="translate(0.000000,952.000000) scale(0.100000,-0.100000)"
fill="#000000" stroke="none">
<path d="M3745 8819 c-101 -15 -193 -52 -299 -122 -46 -30 -167 -151 -253
-254 -117 -140 -205 -220 -258 -235 -22 -6 -74 -11 -115 -12 -68 -1 -81 3
-140 35 -71 39 -114 90 -107 127 12 62 -47 26 -90 -55 -30 -55 -32 -66 -34
-168 -1 -82 3 -120 15 -149 9 -21 16 -43 16 -49 0 -34 66 -270 95 -337 18 -44
31 -80 28 -80 -2 0 2 -7 9 -15 7 -8 33 -43 57 -77 42 -59 163 -175 220 -208
81 -49 201 -83 254 -73 40 8 33 20 -15 27 -71 11 -128 28 -128 39 0 6 -3 8 -6
4 -12 -11 -108 45 -159 92 -85 79 -145 145 -145 158 0 7 -4 13 -10 13 -10 0
-78 128 -83 157 -2 10 -8 27 -14 38 -15 27 -56 186 -49 192 2 3 9 -5 16 -17
25 -46 134 -162 193 -204 129 -92 235 -152 317 -179 47 -16 92 -31 100 -34 17
-6 24 -7 140 -22 46 -6 112 -11 145 -11 83 0 263 26 354 51 104 28 287 127
269 145 -3 2 -39 -14 -81 -36 -171 -90 -345 -125 -586 -117 -230 7 -361 50
-552 178 -117 78 -186 142 -259 241 -75 100 -97 148 -105 233 l-7 69 44 -40
c25 -23 83 -64 130 -92 184 -108 346 -159 478 -148 109 8 390 78 575 142 207
72 296 94 373 94 50 0 146 -15 159 -25 2 0 -20 -57 -48 -126 -74 -183 -109
-328 -110 -462 -1 -65 -8 -77 -46 -77 -13 0 -23 -4 -23 -10 0 -5 15 -10 34
-10 l33 0 2 -77 c1 -43 5 -80 7 -83 3 -3 12 4 21 15 11 15 13 36 9 82 -6 69
-11 64 89 79 55 8 68 10 85 17 8 4 83 23 165 42 134 32 163 43 273 103 67 36
145 83 172 104 l49 37 6 -32 c3 -18 17 -95 32 -172 27 -148 40 -282 35 -362
l-4 -49 -828 1 c-456 1 -864 -2 -907 -6 -43 -4 -215 -13 -383 -18 -584 -21
-827 -50 -982 -118 -77 -34 -89 -62 -55 -129 57 -111 136 -182 267 -238 64
-28 94 -36 101 -29 14 14 2 53 -15 53 -22 0 -156 62 -156 72 0 5 -5 6 -10 3
-6 -3 -13 1 -16 9 -3 9 -12 16 -18 16 -23 0 -136 142 -136 171 0 10 89 42 170
62 64 16 266 47 305 46 11 0 117 7 235 16 118 8 249 15 290 14 41 0 210 5 375
11 196 8 587 10 1130 6 457 -3 866 -5 910 -5 44 -1 170 -6 280 -12 110 -5 211
-10 225 -10 28 1 413 -20 790 -44 313 -19 382 -23 510 -30 58 -3 166 -10 240
-15 74 -6 241 -17 370 -25 129 -8 271 -19 315 -25 44 -5 111 -12 149 -16 38
-3 77 -9 86 -14 10 -5 19 -7 22 -5 2 3 38 -2 79 -10 41 -9 97 -18 124 -20 28
-3 61 -8 75 -11 14 -4 39 -8 57 -10 86 -8 202 -90 188 -132 -3 -12 -14 -24
-24 -27 -31 -10 -40 -44 -20 -85 9 -19 24 -71 33 -115 9 -44 32 -147 51 -230
19 -82 46 -213 61 -290 15 -77 44 -194 64 -260 21 -66 50 -160 65 -209 15 -49
45 -141 67 -204 39 -108 43 -115 77 -129 54 -21 129 -62 191 -103 30 -20 108
-67 173 -104 64 -37 117 -72 117 -77 0 -5 6 -9 13 -10 24 -1 182 -114 203
-146 23 -34 65 -226 64 -290 -1 -21 2 -99 5 -173 3 -74 7 -189 8 -256 l4 -121
-33 -18 c-44 -24 -65 -76 -54 -135 5 -25 6 -48 4 -52 -3 -4 -34 -7 -70 -5 -58
2 -68 -1 -84 -20 -19 -25 -36 -129 -25 -162 5 -16 18 -21 63 -26 31 -3 89 -11
127 -17 39 -6 79 -11 89 -10 28 2 84 60 101 106 21 56 34 239 19 268 -13 25
-51 47 -81 48 -24 0 -39 15 -24 24 5 3 7 86 3 194 l-5 189 41 38 c51 46 65 88
60 171 -3 52 -9 70 -34 101 -17 21 -47 46 -66 56 -30 14 -38 25 -43 56 -6 34
-76 137 -86 126 -3 -2 -36 18 -74 45 -39 27 -108 73 -155 101 -47 29 -87 55
-90 58 -3 3 -9 7 -15 8 -5 1 -70 37 -143 81 -73 44 -142 82 -155 86 -20 5 -22
11 -23 83 -2 72 -16 185 -45 343 -7 36 -13 74 -14 85 -1 11 -5 27 -9 35 -3 8
-8 29 -10 45 -2 17 -6 37 -9 45 -5 12 -38 150 -51 213 -2 7 -6 19 -9 27 -3 8
-23 60 -43 115 -46 125 -147 329 -180 362 -13 13 -24 31 -24 39 0 8 -5 24 -10
34 -8 15 -6 24 7 39 49 54 53 80 19 131 -29 45 -128 97 -201 106 -16 3 -111
17 -210 33 -233 38 -502 66 -720 76 -60 3 -127 8 -147 11 -35 5 -205 104 -220
128 -4 6 -8 8 -8 4 0 -8 -162 90 -171 104 -3 5 -9 9 -13 8 -12 -2 -126 62
-126 71 0 5 -3 8 -7 7 -5 -2 -80 36 -168 83 -88 47 -281 150 -430 229 -148 79
-273 148 -277 154 -4 6 -8 8 -8 4 0 -9 -152 72 -162 86 -4 6 -8 8 -8 3 0 -9
-283 132 -292 147 -4 6 -8 8 -8 3 0 -7 -220 99 -230 112 -3 3 -10 7 -15 8 -6
1 -87 37 -180 81 -94 44 -263 120 -376 170 -250 110 -279 127 -279 156 0 39
-81 146 -136 179 -149 91 -462 139 -689 106z m410 -56 c177 -30 260 -76 357
-194 l36 -45 -46 -35 c-54 -39 -140 -161 -207 -290 l-45 -88 -36 15 c-116 48
-198 39 -480 -55 -278 -94 -551 -155 -654 -148 -94 6 -234 52 -353 115 l-88
47 77 7 c144 14 233 58 361 181 47 45 116 121 154 169 112 140 272 268 382
304 135 45 345 52 542 17z m401 -294 c7 -12 111 -61 319 -151 199 -85 465
-210 465 -217 0 -20 -337 -311 -360 -311 -4 0 -23 64 -42 143 -38 156 -80 265
-133 348 -30 47 -35 51 -35 28 0 -15 23 -74 51 -133 47 -100 119 -341 119
-402 0 -40 -273 -206 -390 -237 -92 -25 -352 -85 -399 -92 l-44 -7 6 108 c14
225 129 533 292 784 54 83 114 150 137 150 4 0 10 -5 14 -11z m-1981 -216 c46
-54 139 -95 214 -95 48 1 53 -1 36 -11 -13 -8 -64 -12 -137 -12 -109 0 -118 2
-142 24 -14 13 -23 27 -21 32 9 14 -16 21 -30 9 -34 -28 -10 71 29 119 9 12
12 11 14 -6 2 -11 18 -38 37 -60z m2825 -178 c17 -9 30 -22 30 -31 0 -8 25
-48 57 -87 61 -78 125 -206 166 -332 29 -86 67 -244 67 -274 0 -20 -61 -50
-230 -114 -239 -90 -355 -127 -396 -127 l-44 0 0 118 c0 86 -8 159 -29 277
-16 88 -32 180 -36 205 l-6 45 109 83 c60 46 147 121 193 168 46 46 85 84 87
84 2 0 16 -7 32 -15z m623 -313 l148 -77 -73 -70 c-73 -70 -247 -207 -312
-246 l-34 -20 -12 68 c-30 173 -106 384 -180 496 -26 41 -53 78 -59 81 -6 4
-16 16 -21 27 -11 20 229 -94 543 -259z m244 -125 c70 -36 147 -118 190 -202
33 -63 66 -269 49 -300 -6 -11 -12 -21 -12 -23 -1 -2 -37 -16 -80 -33 l-79
-29 -145 10 c-220 15 -762 40 -875 40 -58 0 -95 4 -90 9 6 5 75 32 155 59 80
28 187 69 239 92 52 22 98 40 103 40 4 0 8 -36 8 -81 0 -60 3 -80 13 -76 8 2
12 31 13 92 l2 88 48 30 c80 49 234 170 314 245 41 39 77 71 80 71 3 0 33 -14
67 -32z m417 -222 l209 -108 -29 -24 c-46 -36 -133 -80 -228 -113 -49 -17 -89
-30 -90 -28 -2 2 -8 52 -16 113 -16 136 -31 190 -70 243 -36 50 -38 59 -7 40
12 -8 116 -64 231 -123z m349 -187 c133 -73 366 -215 387 -235 13 -13 12 -14
-10 -9 -14 2 -74 8 -135 11 -60 3 -218 13 -350 20 -132 8 -300 18 -372 21 -73
4 -133 10 -133 13 0 7 68 35 205 87 118 45 203 87 245 124 19 16 39 29 43 30
5 0 59 -28 120 -62z m1857 -895 c114 -243 208 -581 259 -929 28 -189 27 -218
-5 -134 -53 141 -183 592 -204 710 -13 69 -39 196 -60 283 -20 86 -36 157 -34
157 2 0 22 -39 44 -87z m1160 -1894 c9 -33 9 -53 0 -84 -12 -39 -36 -75 -51
-75 -4 0 -10 35 -14 78 -3 42 -8 104 -11 137 l-5 60 35 -37 c19 -20 40 -56 46
-79z m-56 -655 c21 -3 45 -17 57 -32 18 -23 19 -35 14 -107 -9 -107 -20 -148
-52 -185 -21 -26 -31 -30 -52 -24 -14 4 -71 12 -126 18 l-100 11 -3 35 c-2 18
-1 48 2 65 l6 32 64 -1 c51 -1 68 3 86 19 20 18 22 27 17 82 -5 66 12 109 38
99 8 -3 30 -8 49 -12z"/>
<path d="M4087 7227 c-42 -27 -99 -85 -89 -91 6 -3 29 9 53 26 63 49 92 101
36 65z"/>
<path d="M3535 6888 c-521 -6 -965 -19 -1147 -34 -63 -6 -79 -10 -83 -25 -10
-31 1 -36 67 -28 35 4 185 12 333 18 149 5 302 11 340 13 138 6 1216 3 1530
-4 176 -4 403 -10 505 -12 352 -8 1179 -45 1605 -72 55 -3 118 -5 141 -4 50 1
517 -27 599 -37 33 -4 63 -6 67 -5 4 1 78 -5 165 -13 87 -9 165 -16 173 -16 8
-1 103 -10 210 -22 128 -13 267 -21 405 -21 129 0 213 -5 217 -11 5 -6 8 -3 8
7 0 10 -8 21 -17 26 -10 5 -112 12 -228 15 -121 4 -276 15 -365 27 -85 12
-162 21 -170 22 -8 0 -60 4 -115 9 -184 16 -630 51 -645 51 -34 -1 -477 19
-635 29 -93 6 -177 11 -185 11 -8 0 -148 7 -310 15 -162 8 -302 14 -310 15 -8
0 -193 6 -410 14 -217 7 -525 16 -685 20 -159 3 -337 9 -395 13 -58 3 -357 3
-665 -1z"/>
<path d="M2164 6508 c-16 -26 1 -1197 22 -1523 3 -38 6 -169 8 -290 2 -121 7
-254 10 -295 3 -41 10 -151 16 -245 6 -93 16 -217 21 -275 5 -58 14 -157 20
-220 5 -63 14 -149 20 -190 6 -41 12 -86 14 -100 4 -46 46 -174 71 -217 14
-24 26 -43 27 -44 3 -1 170 -17 227 -22 168 -15 499 -29 570 -23 148 10 328
25 341 28 31 7 75 58 106 125 18 39 33 80 33 90 1 30 28 -42 43 -115 8 -37 24
-86 36 -110 12 -23 19 -48 15 -54 -4 -6 -3 -8 3 -5 13 8 26 -20 16 -36 -3 -7
-3 -9 2 -5 4 4 36 -28 71 -72 87 -107 137 -140 267 -175 88 -23 297 -16 399
13 75 21 185 88 224 136 14 17 47 54 73 81 26 28 59 71 74 97 15 26 34 53 42
62 9 8 15 17 15 18 -1 2 4 17 11 33 7 17 12 72 13 123 0 50 2 92 3 92 5 0 32
-71 36 -93 2 -12 7 -30 11 -39 4 -9 5 -21 2 -26 -3 -6 2 -19 12 -30 19 -23
127 -37 412 -52 85 -5 205 -12 265 -16 61 -3 382 -7 715 -9 333 -1 720 -4 860
-8 230 -5 264 -3 348 14 135 29 197 53 284 110 101 67 142 113 191 218 22 47
43 88 46 91 3 3 7 12 9 20 6 27 115 219 135 237 11 11 5 -6 -17 -42 -58 -95
-104 -254 -111 -373 -2 -56 -1 -103 4 -106 4 -3 14 -34 21 -68 7 -35 28 -94
47 -131 18 -37 31 -73 27 -79 -4 -6 -3 -9 2 -6 5 4 36 -28 69 -70 80 -101 141
-140 283 -178 107 -29 372 -2 464 47 110 59 280 244 342 374 33 69 35 84 25
245 -5 86 -13 132 -33 183 -14 37 -23 67 -20 67 3 0 0 6 -6 13 -5 6 -28 40
-50 73 -54 83 -107 135 -177 171 -70 37 -133 49 -133 27 0 -8 5 -12 10 -9 15
9 139 -51 174 -83 93 -88 180 -253 194 -371 10 -84 8 -241 -3 -249 -5 -4 -11
-14 -13 -22 -2 -8 -18 -49 -35 -90 -26 -64 -44 -88 -121 -166 -108 -108 -153
-135 -266 -164 -166 -43 -370 -24 -485 45 -117 70 -278 322 -280 441 -1 28 -5
55 -9 62 -13 21 14 181 45 270 42 118 85 186 161 253 96 85 190 123 367 148
78 11 146 22 149 25 4 5 -142 11 -169 8 -85 -11 -151 -28 -191 -48 -28 -14
-52 -23 -55 -20 -6 5 -14 -1 -87 -64 -93 -82 -102 -85 -31 -12 38 40 85 78
102 84 18 7 33 16 33 21 0 4 5 5 10 2 6 -3 10 -2 10 4 0 10 38 27 53 23 4 -1
7 2 7 7 0 5 30 17 68 27 52 15 101 19 217 19 133 -1 157 -3 208 -24 155 -61
269 -176 358 -361 41 -85 54 -124 66 -205 22 -139 60 -296 77 -313 47 -47 311
-60 342 -18 15 22 21 196 6 196 -20 0 -33 -54 -26 -107 9 -72 -2 -83 -80 -83
-78 0 -198 26 -212 45 -16 22 -51 166 -69 290 -12 78 -27 131 -50 183 -19 39
-31 72 -27 72 4 0 2 4 -4 8 -6 4 -21 25 -32 47 -33 65 -128 171 -189 213 -53
36 -121 75 -133 77 -3 0 -33 7 -66 14 -43 9 -107 12 -205 9 -160 -6 -206 -18
-326 -85 -38 -20 -69 -35 -69 -33 -3 10 -166 -168 -202 -220 -20 -30 -39 -57
-42 -60 -3 -3 -27 -51 -55 -107 -27 -57 -54 -103 -59 -103 -5 0 -7 -3 -3 -6 9
-10 -39 -111 -75 -156 -49 -63 -180 -143 -279 -171 -166 -48 -183 -50 -494
-41 -159 5 -551 9 -870 9 -577 0 -785 8 -1145 41 -91 9 -165 17 -165 17 -12
65 -48 168 -91 256 -30 63 -56 122 -58 130 -11 62 -108 202 -195 284 -87 82
-212 139 -340 157 -76 10 -156 9 -168 -4 -3 -3 -13 -6 -22 -6 -9 0 -47 -16
-86 -36 -38 -20 -88 -45 -110 -56 -21 -11 -65 -46 -98 -76 -118 -113 -211
-288 -245 -464 -24 -121 -78 -250 -112 -268 -12 -6 -47 -13 -78 -15 -32 -3
-104 -9 -162 -14 -232 -22 -184 -23 -665 16 -200 16 -222 19 -242 39 -42 42
-92 261 -108 479 -3 44 -10 114 -15 155 -5 41 -12 131 -15 200 -3 69 -10 166
-16 215 -5 50 -12 200 -15 335 -5 253 -10 362 -24 585 -13 201 -24 747 -22
1083 2 284 -1 327 -24 290z m2278 -2509 c71 -15 183 -69 237 -115 64 -55 172
-207 215 -302 98 -217 51 -454 -125 -633 -74 -75 -122 -114 -169 -139 -50 -27
-168 -51 -275 -57 -96 -5 -120 -3 -185 17 -79 23 -151 58 -185 87 -27 24 -123
146 -159 201 -32 50 -50 100 -71 189 -12 50 -13 84 -4 170 13 149 29 193 110
304 111 152 244 240 424 282 38 9 134 7 187 -4z"/>
<path d="M4205 3731 c-83 -24 -154 -65 -209 -120 -37 -38 -50 -61 -66 -116
-37 -128 -23 -233 48 -368 78 -151 224 -213 403 -173 139 32 232 103 290 222
32 65 34 75 34 174 0 149 -12 180 -98 266 -59 58 -85 75 -142 96 -94 35 -183
42 -260 19z m262 -55 c77 -35 175 -133 193 -192 6 -21 14 -77 17 -124 6 -95
-11 -153 -68 -237 -80 -116 -295 -185 -429 -138 -178 63 -281 297 -223 506 14
51 25 68 71 110 89 81 169 110 297 105 62 -2 94 -9 142 -30z"/>
<path d="M4260 3535 c-21 -26 -4 -47 32 -41 l33 5 -34 -11 c-19 -7 -48 -26
-66 -44 -82 -82 -50 -211 58 -238 73 -18 185 88 173 162 -7 46 -49 98 -91 113
-19 7 -34 18 -31 24 13 36 -48 61 -74 30z m111 -101 c34 -17 63 -75 54 -104
-3 -10 -24 -35 -47 -55 -34 -31 -45 -36 -72 -31 -41 8 -96 67 -96 103 1 82 85
127 161 87z"/>
<path d="M4513 3453 c-19 -7 -16 -47 5 -74 37 -44 67 -3 40 56 -11 25 -21 28
-45 18z"/>
<path d="M4075 3340 c-9 -15 11 -37 40 -43 29 -5 31 0 9 31 -16 23 -39 29 -49
12z"/>
<path d="M4366 3154 c-37 -37 -4 -50 53 -21 22 11 41 24 41 29 0 15 -78 8 -94
-8z"/>
<path d="M7177 6472 l-277 -2 -30 -42 c-27 -37 -31 -49 -28 -102 4 -81 28 -90
28 -11 0 31 7 69 15 85 l16 30 393 0 c216 0 474 3 572 7 l180 6 26 -24 c43
-40 65 -159 74 -399 16 -400 4 -1520 -16 -1528 -4 -1 -5 -35 -3 -75 8 -127
-43 -497 -68 -497 -5 0 -8 -3 -7 -7 4 -13 -44 -133 -53 -133 -5 0 -8 -3 -7 -7
2 -5 -37 -85 -85 -180 -70 -136 -100 -183 -144 -227 -55 -55 -138 -105 -185
-110 -13 -1 -29 -5 -35 -9 -6 -4 -30 -9 -54 -12 -24 -3 -73 -10 -109 -15 -36
-6 -178 -9 -316 -8 l-251 3 -7 160 c-4 88 -9 228 -12 310 -2 83 -8 249 -14
370 -28 633 -12 1498 35 1895 8 69 18 146 21 173 4 31 2 47 -5 47 -6 0 -11
-11 -11 -24 0 -14 -5 -28 -10 -31 -6 -4 -8 -10 -6 -14 3 -4 -4 -68 -15 -142
-43 -293 -64 -846 -54 -1414 4 -225 9 -441 11 -480 9 -178 26 -613 30 -734 2
-74 6 -136 8 -138 5 -6 218 -13 376 -13 209 0 397 29 499 76 57 26 160 102
161 119 0 6 10 21 23 35 12 14 51 84 86 155 35 72 68 133 73 136 5 3 9 9 9 13
-1 3 5 19 13 34 72 140 110 282 126 466 43 508 57 1873 20 2046 -7 30 -13 63
-14 72 -1 10 -5 21 -9 24 -4 4 -7 18 -7 31 0 14 -12 37 -28 52 l-28 28 -308 2
c-170 1 -312 3 -315 4 -3 1 -131 1 -284 -1z"/>
<path d="M4035 6462 c-2 -2 -124 -7 -272 -12 -510 -16 -808 -31 -835 -41 -43
-17 -84 -71 -107 -142 -13 -37 -26 -67 -31 -67 -4 0 -12 -30 -18 -67 -6 -38
-20 -120 -32 -183 -18 -103 -19 -142 -14 -385 4 -188 11 -314 25 -415 11 -80
22 -161 24 -180 2 -19 11 -73 20 -120 10 -47 18 -89 19 -95 3 -24 48 -54 88
-59 105 -13 225 -17 455 -17 137 0 354 -4 483 -9 259 -11 1314 -14 1700 -5
248 6 461 28 565 60 28 8 84 34 125 58 57 32 83 55 108 92 39 60 82 189 88
265 2 30 6 73 9 95 2 22 6 246 7 498 3 425 2 453 -12 395 -12 -49 -16 -148
-18 -443 -3 -359 -12 -528 -32 -620 -23 -100 -85 -214 -127 -235 -16 -8 -40
-23 -56 -33 -78 -53 -312 -98 -502 -97 -66 1 -185 -4 -265 -10 -197 -15 -1338
-4 -2391 24 -158 4 -179 13 -197 81 -14 58 -46 266 -67 439 -26 214 -17 751
13 801 7 11 8 16 18 98 4 36 11 56 18 54 6 -3 12 6 12 20 3 42 51 127 83 146
32 19 91 22 731 45 211 7 748 9 1330 5 500 -4 970 9 1185 32 102 11 132 11
140 1 6 -6 25 -18 43 -25 42 -17 62 -64 62 -143 0 -43 3 -59 13 -56 12 4 28
148 17 148 -4 0 -11 15 -18 33 -9 25 -24 39 -61 56 -47 23 -54 23 -252 17
-632 -19 -1103 -25 -1354 -15 -277 10 -714 17 -720 11z"/>
<path d="M8317 6365 c-39 -108 -42 -902 -5 -1080 5 -27 12 -60 13 -73 5 -33
32 -72 53 -74 9 -1 31 -3 47 -5 17 -2 111 -6 209 -9 139 -5 185 -10 204 -22
22 -14 25 -14 48 11 20 22 34 27 72 27 33 0 43 3 32 10 -10 6 -15 28 -16 72
-1 35 -9 107 -18 160 -10 53 -19 107 -20 120 -2 13 -6 30 -9 38 -3 8 -10 37
-17 64 -6 28 -29 95 -50 150 -22 56 -41 108 -42 116 -2 8 -5 17 -8 20 -3 3
-19 34 -34 70 -16 36 -51 100 -77 143 -26 42 -45 77 -42 77 4 0 0 6 -8 13 -8
6 -34 37 -57 68 -53 70 -137 119 -205 119 -35 0 -46 4 -49 18 -2 10 -11 -3
-21 -33z m149 -51 c55 -32 92 -75 169 -194 82 -126 97 -156 172 -350 69 -179
109 -344 120 -494 l6 -90 -46 39 c-43 36 -91 89 -111 123 -4 7 -2 20 5 28 7 9
12 48 13 97 1 69 -3 91 -26 140 -15 31 -33 57 -40 57 -8 0 -40 -23 -71 -51
-104 -92 -175 -288 -137 -378 16 -39 36 -45 90 -26 63 22 81 19 130 -25 l45
-41 -150 5 c-82 3 -175 9 -205 13 l-55 8 -17 65 c-19 66 -43 411 -42 595 0
107 13 398 20 471 l5 52 41 -10 c22 -5 60 -20 84 -34z m274 -731 c29 -61 31
-168 3 -188 -15 -11 -15 -18 -5 -53 9 -28 33 -60 86 -110 73 -69 78 -82 28
-82 -20 0 -112 89 -112 108 0 16 -60 11 -133 -10 -52 -16 -59 -3 -54 97 3 63
10 92 31 134 26 51 110 151 126 151 4 0 18 -21 30 -47z"/>
<path d="M7075 6346 c-27 -6 -45 -21 -74 -60 -51 -69 -62 -92 -78 -156 -24
-102 -31 -401 -13 -562 5 -45 8 -83 6 -86 -9 -8 64 -196 90 -230 35 -47 103
-113 134 -131 76 -44 308 -83 490 -82 180 1 322 77 390 211 106 208 119 623
27 900 -60 180 -70 189 -212 196 -174 9 -724 9 -760 0z m853 -39 c58 -53 118
-247 138 -447 37 -358 -47 -659 -206 -740 -90 -46 -136 -52 -332 -41 -142 8
-201 16 -264 35 -155 46 -250 146 -298 316 -39 140 -46 568 -11 703 16 61 76
161 103 172 10 4 169 8 355 10 186 1 340 5 343 8 3 3 39 4 79 3 54 -1 78 -6
93 -19z"/>
<path d="M6474 4748 c-17 -14 -38 -21 -55 -20 -40 5 -84 -22 -119 -73 -17 -24
-38 -50 -48 -57 -9 -7 -18 -20 -20 -28 -2 -8 -27 -76 -56 -150 -48 -123 -63
-168 -81 -254 -6 -26 -4 -28 17 -22 13 4 29 8 36 8 6 1 12 5 12 9 0 4 11 10
25 13 23 6 119 68 263 170 51 35 54 36 59 17 3 -12 9 -21 14 -21 16 0 23 32
11 51 -16 26 -15 39 4 39 41 0 59 141 24 198 -11 17 -15 32 -9 32 5 0 16 14
23 32 28 66 -38 104 -100 56z m66 -23 c7 -8 10 -21 7 -30 -5 -11 -12 -12 -37
-4 -33 12 -36 19 -18 37 16 16 33 15 48 -3z m-99 -57 c6 -12 17 -17 27 -13 30
9 82 -69 82 -122 0 -43 -23 -103 -38 -103 -5 0 -21 14 -38 31 -16 17 -62 51
-101 76 -40 25 -73 50 -73 57 0 20 51 87 73 95 29 11 55 3 68 -21z m-76 -168
c45 -33 90 -71 99 -84 16 -25 15 -26 -13 -41 -16 -8 -70 -43 -118 -77 -90 -64
-188 -116 -199 -106 -8 8 23 108 68 223 22 55 44 110 49 123 5 12 14 22 20 22
6 0 48 -27 94 -60z"/>
<path d="M2372 4675 c-41 -34 -66 -103 -66 -184 -1 -76 22 -133 79 -195 29
-31 41 -37 62 -33 19 3 49 -7 102 -35 42 -22 79 -45 82 -50 3 -5 8 -8 10 -7 2
2 54 -22 114 -52 61 -31 142 -68 180 -83 39 -15 82 -34 97 -41 24 -12 30 -12
43 1 8 9 15 18 15 21 0 38 -313 440 -412 529 -30 27 -41 45 -42 68 -1 27 -8
34 -50 56 -36 19 -69 27 -116 28 -60 3 -70 0 -98 -23z m197 -36 c28 -12 51
-25 51 -28 0 -4 -32 -45 -71 -92 -40 -46 -88 -108 -107 -137 l-36 -53 -18 23
c-42 52 -52 83 -52 148 0 76 24 133 63 156 34 19 103 12 170 -17z m135 -171
c140 -154 336 -412 322 -425 -10 -10 -108 33 -286 125 -263 136 -280 143 -302
136 -16 -5 -12 4 18 48 51 73 155 198 165 198 4 0 42 -37 83 -82z"/>
<path d="M3377 4603 c-4 -3 -7 -21 -7 -38 0 -28 4 -33 31 -39 17 -3 57 -6 89
-6 70 0 85 -13 76 -67 -3 -21 -6 -46 -7 -55 0 -10 -4 -20 -9 -23 -4 -3 -6 -13
-4 -23 2 -9 0 -23 -5 -31 -7 -11 -19 -9 -65 12 -53 24 -56 25 -56 7 0 -20 47
-51 85 -57 11 -2 27 -6 35 -9 8 -4 24 -8 35 -9 35 -5 215 -77 215 -86 0 -5 -4
-9 -9 -9 -5 0 -37 -42 -72 -92 -98 -145 -238 -338 -280 -389 -34 -41 -40 -59
-19 -59 10 0 99 114 194 250 48 69 92 127 97 128 5 2 9 10 9 17 0 7 27 50 60
94 l60 81 -48 24 c-26 13 -75 34 -109 46 -35 12 -63 28 -63 34 0 6 6 43 14 81
18 87 23 172 10 184 -5 6 -60 17 -122 25 -130 18 -127 18 -135 9z m128 -43
c26 -7 23 -8 -20 -8 -27 0 -59 3 -70 8 -26 11 46 11 90 0z m105 -68 c0 -65
-18 -172 -31 -186 -13 -14 -11 10 6 79 19 80 19 124 -2 147 -15 17 -15 18 5
18 20 0 22 -5 22 -58z"/>
<path d="M5021 4404 c-26 -33 -29 -130 -6 -195 19 -52 67 -106 114 -126 l34
-15 -98 -39 c-55 -22 -105 -45 -113 -51 -17 -15 -46 19 -63 74 -10 32 -8 50
11 123 13 47 26 87 29 89 3 2 6 -28 6 -67 1 -104 52 -204 87 -169 7 7 4 17
-10 33 -26 28 -52 102 -52 148 0 20 7 64 15 99 16 69 13 91 -12 71 -18 -15
-56 -90 -73 -144 -7 -22 -17 -46 -23 -52 -5 -7 -7 -13 -4 -13 3 0 0 -24 -7
-53 -12 -49 -11 -58 9 -104 20 -45 68 -93 93 -93 5 0 13 -7 16 -16 15 -40 89
-137 166 -220 47 -50 102 -111 124 -135 36 -42 112 -153 119 -172 1 -4 11 -4
22 0 16 6 20 18 21 58 0 28 1 68 3 90 3 43 -52 439 -68 493 -5 17 -7 32 -3 32
4 0 0 5 -8 10 -12 7 -12 12 -2 22 16 16 15 28 -3 28 -8 0 -15 8 -15 18 0 58
-85 127 -175 142 -96 16 -144 64 -111 111 33 48 12 68 -23 23z m52 -149 c20
-8 49 -15 64 -15 43 0 113 -40 144 -83 16 -22 26 -43 23 -48 -4 -8 -31 -16
-105 -34 -24 -6 -26 -4 -22 19 5 23 2 26 -22 26 -36 0 -96 61 -112 113 -6 20
-10 37 -8 37 1 0 19 -7 38 -15z m256 -197 c-2 -7 5 -56 14 -108 39 -225 59
-393 46 -401 -8 -5 -10 -23 -6 -59 l6 -52 -51 73 c-29 41 -93 117 -143 169
-50 52 -105 113 -121 135 -38 49 -84 128 -84 143 0 19 261 110 323 111 10 1
17 -5 16 -11z"/>
<path d="M5735 4339 c9 -28 49 -80 160 -204 45 -49 98 -112 120 -138 35 -44
37 -50 22 -59 -10 -5 -32 -24 -50 -41 -18 -18 -49 -45 -70 -61 l-38 -29 -26
24 c-70 63 -115 122 -213 277 -68 109 -84 146 -67 160 7 6 37 18 67 28 30 9
61 22 68 27 26 20 -5 27 -56 12 -28 -9 -54 -16 -57 -15 -15 1 -65 -56 -65 -74
1 -56 151 -292 257 -403 l68 -72 44 19 43 20 82 -87 c92 -97 93 -97 146 -24
l32 44 -81 81 -80 81 25 23 c26 22 26 23 9 50 -10 15 -49 63 -86 107 -225 263
-271 308 -254 254z m359 -538 l69 -69 -21 -26 -20 -26 -76 81 c-71 75 -75 82
-59 95 10 7 23 14 28 14 6 0 41 -31 79 -69z"/>
<path d="M3371 4313 c-7 -15 -26 -70 -43 -122 -17 -53 -33 -100 -36 -106 -3
-5 -7 -22 -9 -38 -2 -16 -21 -82 -42 -146 -21 -64 -42 -130 -45 -147 -7 -31
-6 -31 39 -37 25 -4 63 -16 85 -27 43 -22 70 -26 70 -10 0 12 -85 55 -127 65
-19 4 -33 13 -33 21 0 8 15 63 34 122 43 134 116 376 126 420 10 39 -2 42 -19
5z"/>
<path d="M9514 3949 c-10 -11 -19 -41 -22 -72 -4 -53 -4 -54 29 -70 19 -8 52
-19 74 -23 22 -4 43 -11 46 -17 4 -5 12 -6 20 -1 8 5 37 7 64 6 70 -4 112 23
121 78 4 22 11 43 15 46 20 12 7 35 -28 50 -27 12 -75 18 -169 20 -121 3 -133
1 -150 -17z m294 -57 c15 -20 15 -44 -1 -66 -10 -13 -24 -17 -67 -14 l-54 3 3
54 c3 64 -13 62 -30 -5 -13 -50 -32 -56 -93 -30 -42 18 -49 29 -41 68 7 30 8
31 59 26 28 -3 65 -2 81 2 37 8 125 -16 143 -38z"/>
<path d="M2719 3850 c-84 -6 -102 -16 -128 -69 -19 -40 -13 -97 11 -112 7 -5
52 -9 99 -9 47 0 113 -3 147 -6 56 -6 62 -5 84 19 21 23 23 32 18 86 -3 33
-11 66 -18 73 -16 16 -117 24 -213 18z m51 -95 l0 -55 -64 0 c-79 0 -96 6 -96
34 0 51 33 72 118 75 l42 1 0 -55z m146 31 c3 -13 4 -38 2 -57 l-3 -34 -55 3
c-30 2 -55 4 -56 5 -1 1 -5 26 -9 55 l-7 52 61 0 c55 0 61 -2 67 -24z"/>
<path d="M8743 3765 c-45 -7 -100 -22 -122 -34 -23 -11 -41 -19 -41 -16 0 6
-34 -22 -97 -79 -54 -48 -83 -135 -83 -248 0 -126 66 -282 145 -342 74 -57
127 -76 212 -76 81 0 171 18 223 45 17 9 32 15 35 15 3 0 12 5 21 12 90 72
156 196 162 301 5 77 -12 174 -39 228 -23 47 -114 123 -184 155 -98 45 -140
52 -232 39z m158 -45 c72 -20 111 -44 175 -112 56 -58 63 -70 78 -135 23 -103
21 -162 -10 -238 -35 -86 -95 -152 -175 -191 -155 -76 -313 -61 -419 37 -68
64 -120 197 -120 306 0 120 23 185 83 239 61 55 93 72 172 95 65 18 145 18
216 -1z"/>
<path d="M8750 3562 c-30 -24 -18 -45 21 -40 37 6 38 -8 1 -15 -39 -8 -90 -63
-103 -110 -22 -81 42 -167 123 -167 42 0 110 46 133 89 20 39 19 92 -2 129
-18 32 -61 62 -87 62 -10 0 -16 9 -16 23 0 25 -17 47 -36 47 -6 0 -22 -8 -34
-18z m92 -99 c50 -18 68 -43 68 -95 0 -44 -59 -98 -107 -98 -49 0 -103 54
-103 103 0 38 30 84 64 97 29 12 25 12 78 -7z"/>
<path d="M9001 3473 c-18 -15 -21 -23 -13 -44 6 -13 17 -31 26 -39 15 -11 19
-11 33 3 17 17 13 49 -9 80 -13 18 -15 18 -37 0z"/>
<path d="M8571 3371 c-20 -13 -7 -37 24 -45 38 -10 43 0 14 29 -16 17 -28 22
-38 16z"/>
<path d="M8870 3187 c-35 -18 -39 -47 -6 -47 13 0 31 7 40 15 8 8 22 15 30 15
9 0 16 7 16 15 0 19 -45 20 -80 2z"/>
<path d="M7055 1824 c-181 -47 -247 -186 -262 -551 -7 -178 3 -232 50 -281 50
-53 76 -62 174 -62 153 0 299 45 394 121 49 38 96 119 105 177 14 91 -55 185
-160 218 l-51 16 3 101 c5 141 -18 206 -89 242 -30 16 -130 27 -164 19z m116
-81 c67 -26 93 -112 73 -235 -6 -37 -7 -37 -48 -32 -57 8 -202 -11 -271 -35
l-57 -20 7 55 c19 154 69 233 171 269 52 19 75 18 125 -2z m120 -357 c109 -25
167 -77 155 -140 -9 -47 -61 -114 -120 -153 -107 -72 -316 -109 -393 -70 -52
27 -72 111 -65 273 l2 51 74 18 c155 36 258 42 347 21z"/>
<path d="M2880 1505 c-249 -74 -400 -213 -400 -368 0 -75 24 -117 88 -154 39
-23 60 -28 138 -31 163 -7 253 25 356 129 37 38 70 64 74 58 3 -6 7 -63 7
-127 2 -143 -14 -196 -71 -236 -51 -35 -115 -56 -171 -56 -51 0 -173 28 -264
59 -57 20 -58 20 -77 1 -14 -14 -17 -25 -11 -42 6 -18 29 -30 105 -56 132 -45
239 -60 313 -44 120 25 223 102 252 189 41 125 7 468 -61 611 -40 84 -139 108
-278 67z m172 -76 c24 -13 55 -68 67 -118 l9 -44 -86 -87 c-106 -107 -165
-140 -267 -147 -104 -8 -162 3 -197 37 -35 35 -36 68 -4 135 41 87 154 173
280 214 95 31 151 34 198 10z"/>
<path d="M3645 1486 c-111 -26 -173 -55 -233 -111 -163 -150 -146 -318 41
-417 37 -20 57 -23 162 -23 132 0 186 11 279 58 68 33 160 121 181 171 34 80
3 202 -66 260 -72 61 -242 90 -364 62z m270 -101 c97 -49 126 -116 89 -203
-44 -107 -180 -174 -359 -176 -69 -1 -88 3 -138 27 -95 47 -135 123 -104 198
49 118 193 191 368 186 73 -2 94 -6 144 -32z"/>
<path d="M5255 1490 c-67 -11 -100 -25 -146 -61 l-39 -31 0 41 c0 46 -14 57
-55 47 l-25 -6 1 -183 c1 -100 4 -229 8 -287 6 -100 7 -105 29 -108 50 -7 54
7 51 205 l-3 183 28 29 c84 88 270 128 323 69 16 -18 19 -46 23 -247 5 -223 5
-226 27 -229 12 -2 31 2 42 8 20 10 21 19 21 194 l0 183 49 46 c72 67 123 90
188 85 63 -5 101 -29 126 -80 15 -31 18 -63 17 -231 0 -171 2 -196 16 -201 9
-4 27 1 40 9 24 15 24 17 24 197 0 324 -43 387 -255 376 -90 -5 -126 -20 -181
-74 l-36 -36 -30 36 c-16 20 -42 43 -56 50 -36 19 -125 26 -187 16z"/>
<path d="M6342 1485 c-71 -16 -139 -51 -147 -75 -14 -44 21 -64 60 -34 28 21
140 54 186 54 105 0 190 -42 203 -100 10 -46 -3 -52 -140 -61 -263 -17 -424
-91 -424 -195 0 -84 65 -134 185 -142 114 -7 225 26 332 99 23 16 44 29 47 29
3 0 6 -29 6 -65 0 -65 0 -65 29 -65 51 0 53 12 49 227 -3 189 -4 201 -28 248
-35 69 -73 86 -198 91 -62 2 -120 -1 -160 -11z m298 -312 c0 -35 -5 -41 -58
-75 -101 -65 -169 -91 -252 -96 -85 -4 -122 6 -145 42 -49 74 59 134 275 154
52 5 114 10 138 11 l42 1 0 -37z"/>
<path d="M8552 1485 c-71 -16 -139 -51 -147 -75 -14 -44 21 -64 60 -34 28 21
140 54 186 54 105 0 190 -42 203 -100 10 -46 -3 -52 -140 -61 -263 -17 -424
-91 -424 -195 0 -84 65 -134 185 -142 114 -7 225 26 332 99 23 16 44 29 47 29
3 0 6 -29 6 -65 0 -65 0 -65 29 -65 51 0 53 12 49 227 -3 189 -4 201 -28 248
-35 69 -73 86 -198 91 -62 2 -120 -1 -160 -11z m298 -312 c0 -35 -5 -41 -58
-75 -101 -65 -169 -91 -252 -96 -85 -4 -122 6 -145 42 -49 74 59 134 275 154
52 5 114 10 138 11 l42 1 0 -37z"/>
<path d="M4522 1470 c-250 -66 -405 -253 -333 -403 53 -108 224 -160 407 -123
103 20 305 84 323 101 15 15 7 51 -14 59 -8 3 -51 -9 -97 -25 -282 -103 -428
-105 -516 -5 -49 56 -42 112 25 195 93 112 269 165 478 142 89 -9 108 -2 103
38 -2 21 -10 27 -43 33 -81 14 -257 8 -333 -12z"/>
<path d="M7597 1484 c-4 -4 -7 -135 -7 -291 l0 -283 29 0 c48 0 54 17 50 157
-3 82 0 127 6 126 6 -1 123 -61 262 -132 138 -72 258 -131 265 -131 8 0 19 5
26 12 32 32 13 45 -223 164 -129 66 -235 122 -235 125 0 3 80 43 178 89 97 45
183 89 191 96 18 17 0 64 -25 64 -9 0 -113 -47 -232 -105 -118 -58 -216 -105
-218 -105 -2 0 -5 48 -6 108 -3 106 -3 107 -28 110 -14 2 -29 0 -33 -4z"/>
</g>
</svg>
