<?xml version="1.0" standalone="no"?>
<!DOCTYPE svg PUBLIC "-//W3C//DTD SVG 20010904//EN"
 "http://www.w3.org/TR/2001/REC-SVG-20010904/DTD/svg10.dtd">
<svg version="1.0" xmlns="http://www.w3.org/2000/svg"
 width="548.000000pt" height="48.000000pt" viewBox="0 0 548.000000 48.000000"
 preserveAspectRatio="xMidYMid meet">

<g transform="translate(0.000000,48.000000) scale(0.100000,-0.100000)"
fill="#000000" stroke="none">
<path d="M17 459 c-17 -10 -18 -23 -11 -177 3 -92 8 -168 9 -170 1 -1 10 0 19
4 14 5 16 27 16 160 l0 154 130 0 130 0 0 -155 c0 -151 0 -155 21 -155 21 0
22 2 17 163 -2 90 -8 168 -12 175 -9 15 -293 16 -319 1z"/>
<path d="M5424 365 c-8 -21 2 -45 19 -45 21 0 38 25 31 44 -8 20 -43 21 -50 1z"/>
<path d="M990 345 c-14 -17 -26 -132 -16 -168 14 -56 121 -60 187 -7 41 33 49
30 49 -16 0 -101 -43 -117 -234 -87 -54 8 -44 -17 15 -35 67 -19 148 -19 191
2 49 23 63 65 54 163 -10 120 -17 153 -34 153 -12 0 -13 -9 -8 -49 6 -47 6
-49 -38 -89 -53 -49 -89 -61 -125 -41 -22 13 -26 22 -25 59 0 25 4 64 8 88 9
44 -1 55 -24 27z"/>
<path d="M4195 339 c-78 -31 -125 -80 -125 -131 0 -85 140 -102 225 -27 l35
31 0 -61 c0 -49 -4 -64 -22 -80 -30 -29 -75 -34 -133 -17 -62 20 -75 20 -75 1
0 -17 86 -45 138 -45 48 0 100 28 119 63 29 57 1 253 -40 279 -20 13 -70 8
-122 -13z m107 -26 c31 -37 28 -50 -21 -96 -54 -50 -105 -66 -149 -45 -57 28
-27 93 62 134 61 28 88 30 108 7z"/>
<path d="M475 337 c-53 -21 -74 -37 -90 -67 -24 -47 -19 -85 16 -114 30 -26
50 -30 119 -26 80 4 160 65 160 122 0 74 -112 121 -205 85z m143 -37 c24 -15
32 -27 32 -48 0 -86 -184 -132 -235 -59 -21 29 -19 41 11 76 43 51 134 66 192
31z"/>
<path d="M743 344 c-22 -5 -23 -9 -23 -115 0 -90 3 -109 15 -109 12 0 15 18
15 100 l0 101 78 -3 77 -3 3 -98 c2 -72 6 -97 15 -94 15 5 22 196 8 210 -11
11 -151 19 -188 11z"/>
<path d="M1312 238 c-45 -81 -60 -114 -52 -122 14 -14 26 2 80 105 23 44 44
79 48 79 4 0 35 -44 70 -96 46 -69 67 -93 74 -86 8 8 -10 43 -62 122 -40 60
-78 110 -84 110 -6 0 -39 -50 -74 -112z"/>
<path d="M1625 335 c-41 -21 -55 -43 -55 -81 0 -33 16 -56 52 -75 21 -11 21
-11 -3 -30 -19 -14 -21 -21 -12 -30 9 -9 21 -5 55 23 33 27 94 58 113 58 1 0
5 -18 9 -40 4 -26 11 -40 21 -40 12 0 15 19 15 109 0 111 -10 142 -34 108 -8
-9 -17 -12 -26 -7 -33 18 -105 21 -135 5z m131 -37 c17 -8 24 -19 24 -38 0
-24 -6 -29 -51 -43 -69 -23 -91 -21 -118 7 -60 64 48 118 145 74z"/>
<path d="M1850 180 c0 -107 4 -170 10 -170 6 0 10 34 10 81 l0 81 28 -6 c15
-4 50 -10 78 -13 46 -5 54 -3 84 24 29 26 33 36 33 77 -1 56 -13 72 -63 87
-37 11 -86 5 -144 -17 -11 -4 -16 -1 -16 10 0 9 -4 16 -10 16 -6 0 -10 -63
-10 -170z m203 108 c22 -26 16 -65 -15 -90 -25 -22 -83 -23 -132 -3 -31 13
-36 20 -36 50 0 36 13 48 69 66 39 12 94 1 114 -23z"/>
<path d="M2130 235 c0 -89 3 -116 13 -113 6 3 13 25 15 51 l3 47 80 0 79 0 0
-51 c0 -36 4 -49 13 -46 17 5 17 219 0 224 -8 3 -13 -12 -15 -44 -3 -47 -3
-48 -43 -54 -21 -4 -56 -4 -77 -2 -36 5 -37 7 -40 51 -2 25 -9 47 -15 50 -10
3 -13 -24 -13 -113z"/>
<path d="M2380 236 c0 -113 4 -128 27 -105 8 8 21 8 48 -1 50 -16 139 -8 165
15 14 13 20 31 20 61 0 35 -5 47 -32 69 -30 25 -38 27 -98 22 -36 -2 -73 -8
-82 -12 -13 -5 -17 0 -20 26 -2 18 -9 34 -15 37 -10 3 -13 -24 -13 -112z m207
19 c27 -18 31 -60 6 -87 -20 -22 -98 -24 -148 -4 -31 13 -35 19 -35 50 0 33 3
36 48 50 52 17 94 14 129 -9z"/>
<path d="M2677 344 c-9 -9 -9 -151 -1 -193 4 -17 12 -31 18 -31 8 0 10 35 9
112 -1 103 -8 130 -26 112z"/>
<path d="M2855 338 c-44 -16 -93 -55 -111 -90 -20 -38 -4 -82 37 -103 77 -41
299 2 253 48 -3 3 -27 -4 -52 -15 -64 -27 -150 -29 -188 -3 l-29 20 79 7 c156
14 251 95 160 137 -30 14 -108 13 -149 -1z m135 -28 c42 -27 -61 -79 -157 -80
-57 0 -68 13 -35 43 41 38 157 60 192 37z"/>
<path d="M3230 180 c0 -107 4 -170 10 -170 6 0 10 34 10 81 l0 81 28 -6 c15
-4 50 -10 78 -13 46 -5 54 -3 84 24 29 26 33 36 33 77 -1 56 -13 72 -63 87
-37 11 -86 5 -144 -17 -11 -4 -16 -1 -16 10 0 9 -4 16 -10 16 -6 0 -10 -63
-10 -170z m203 108 c22 -26 16 -65 -15 -90 -25 -22 -83 -23 -132 -3 -31 13
-36 20 -36 50 0 36 13 48 69 66 39 12 94 1 114 -23z"/>
<path d="M3583 335 c-38 -16 -46 -42 -10 -30 50 17 123 17 140 0 32 -32 21
-42 -52 -47 -91 -7 -145 -33 -149 -73 -5 -39 19 -55 82 -55 35 0 64 8 94 25
l42 24 0 -25 c0 -15 6 -24 15 -24 12 0 15 16 15 85 0 78 -2 88 -25 110 -19 20
-34 25 -72 25 -26 -1 -63 -7 -80 -15z m142 -116 c0 -16 -99 -69 -130 -69 -12
0 -30 6 -41 14 -19 15 -19 15 3 37 15 16 39 24 85 29 75 9 83 8 83 -11z"/>
<path d="M3858 337 c-26 -8 -35 -16 -30 -24 6 -9 17 -10 45 -2 53 14 122 8
122 -11 0 -9 -13 -17 -34 -20 -45 -7 -54 -30 -11 -30 67 0 94 -44 45 -76 -29
-19 -78 -22 -154 -10 -43 7 -53 6 -49 -5 12 -37 158 -45 219 -14 37 20 55 66
37 97 -7 12 -13 36 -13 53 0 21 -7 33 -25 42 -31 16 -102 15 -152 0z"/>
<path d="M4525 338 c-44 -16 -93 -55 -111 -90 -20 -38 -4 -82 37 -103 77 -41
299 2 253 48 -3 3 -27 -4 -52 -15 -64 -27 -150 -29 -188 -3 l-29 20 79 7 c156
14 251 95 160 137 -30 14 -108 13 -149 -1z m135 -28 c42 -27 -61 -79 -157 -80
-57 0 -68 13 -35 43 41 38 157 60 192 37z"/>
<path d="M4792 238 c-45 -81 -60 -114 -52 -122 14 -14 26 2 80 105 23 44 44
79 48 79 4 0 35 -44 70 -96 46 -69 67 -93 74 -86 8 8 -10 43 -62 122 -40 60
-78 110 -84 110 -6 0 -39 -50 -74 -112z"/>
<path d="M5050 236 c0 -113 4 -128 27 -105 8 8 21 8 48 -1 50 -16 139 -8 165
15 14 13 20 31 20 61 0 35 -5 47 -32 69 -30 25 -38 27 -98 22 -36 -2 -73 -8
-82 -12 -13 -5 -17 0 -20 26 -2 18 -9 34 -15 37 -10 3 -13 -24 -13 -112z m207
19 c27 -18 31 -60 6 -87 -20 -22 -98 -24 -148 -4 -31 13 -35 19 -35 50 0 33 3
36 48 50 52 17 94 14 129 -9z"/>
<path d="M5347 344 c-9 -9 -9 -151 -1 -193 4 -17 12 -31 18 -31 8 0 10 35 9
112 -1 103 -8 130 -26 112z"/>
<path d="M5432 221 c-21 -13 -10 -46 16 -49 27 -4 40 22 22 43 -14 17 -20 18
-38 6z"/>
</g>
</svg>
