<?xml version="1.0" standalone="no"?>
<!DOCTYPE svg PUBLIC "-//W3C//DTD SVG 20010904//EN"
 "http://www.w3.org/TR/2001/REC-SVG-20010904/DTD/svg10.dtd">
<svg version="1.0" xmlns="http://www.w3.org/2000/svg"
 width="1197.000000pt" height="952.000000pt" viewBox="0 0 1197.000000 952.000000"
 preserveAspectRatio="xMidYMid meet">

<g transform="translate(0.000000,952.000000) scale(0.100000,-0.100000)"
fill="#000000" stroke="none">
<path d="M6635 8099 c-151 -21 -283 -42 -310 -49 -87 -25 -304 -93 -330 -105
-16 -7 -60 -27 -96 -44 -36 -17 -69 -31 -72 -31 -3 0 -52 -26 -109 -58 -112
-62 -202 -121 -289 -189 -30 -24 -61 -43 -68 -43 -7 0 -47 18 -88 40 -76 40
-255 106 -368 135 -121 31 -335 55 -499 55 -465 0 -904 -125 -1376 -392 -102
-58 -374 -236 -435 -285 -16 -13 -93 -74 -170 -136 -131 -104 -255 -208 -302
-253 -11 -10 -67 -61 -124 -113 -157 -142 -320 -311 -374 -386 -109 -154 -163
-357 -134 -509 3 -16 -14 -29 -87 -65 -159 -80 -270 -183 -364 -336 -45 -74
-58 -103 -94 -210 -47 -137 -52 -304 -13 -430 50 -161 84 -221 172 -305 50
-46 200 -130 234 -130 20 0 12 -28 -18 -60 -47 -52 -129 -213 -156 -307 -34
-116 -48 -231 -40 -323 21 -241 121 -398 340 -530 285 -173 561 -228 1248
-249 432 -13 972 10 1452 64 77 9 185 20 240 25 92 8 216 25 370 49 33 6 139
21 235 36 96 14 218 34 270 44 52 11 147 29 210 41 160 30 251 48 355 71 50
10 133 28 185 39 120 25 394 91 570 137 74 19 185 48 245 63 61 16 135 36 165
45 86 26 123 36 150 42 14 3 77 21 140 40 63 19 147 44 185 54 82 23 268 82
600 193 132 44 267 88 300 98 33 11 78 26 100 35 22 8 58 22 80 30 22 9 49 19
60 24 11 4 31 11 45 14 27 7 195 69 392 146 70 27 131 49 135 49 4 0 64 23
133 51 69 29 181 74 250 102 69 27 144 58 167 68 24 11 82 35 130 55 362 149
498 265 580 492 28 77 25 327 -7 460 -21 90 -22 108 -11 135 51 124 54 139 55
287 1 162 -12 214 -80 331 -19 31 -34 62 -34 68 0 6 14 32 30 58 70 109 66
205 -10 302 -46 58 -142 109 -250 134 -36 8 -100 23 -143 32 -42 10 -80 22
-84 29 -4 6 -6 67 -4 136 3 156 -11 268 -51 384 -39 118 -68 181 -112 250 -20
31 -36 60 -36 65 0 15 -192 211 -249 254 -111 85 -250 155 -416 212 -114 38
-369 75 -526 75 -166 0 -419 -36 -579 -82 -213 -61 -230 -62 -411 -9 -137 40
-182 49 -373 76 -118 16 -426 19 -531 4z m510 -200 c92 -11 210 -34 295 -58
360 -101 606 -202 753 -308 34 -25 72 -57 84 -72 11 -14 24 -23 28 -19 23 22
-181 242 -297 321 -54 37 -62 64 -20 73 15 3 50 12 77 19 120 31 319 55 464
55 456 0 828 -170 1031 -470 58 -87 121 -228 148 -335 23 -89 22 -312 -2 -390
-40 -130 -87 -210 -176 -301 -129 -131 -293 -210 -695 -332 -55 -17 -161 -49
-235 -72 -74 -23 -168 -50 -208 -61 -40 -10 -132 -36 -205 -58 -132 -39 -420
-119 -532 -148 -33 -8 -71 -19 -85 -24 -28 -9 -176 -48 -290 -77 -78 -20 -223
-57 -465 -119 -77 -20 -178 -44 -225 -54 -47 -10 -146 -33 -220 -52 -74 -19
-162 -40 -195 -47 -33 -6 -132 -29 -220 -50 -88 -21 -180 -41 -205 -45 -25 -4
-81 -15 -125 -25 -147 -34 -404 -88 -570 -120 -22 -4 -82 -17 -134 -29 -51
-11 -97 -18 -102 -15 -5 3 -25 37 -44 75 -65 130 -192 295 -456 593 -376 424
-706 671 -1089 816 -159 60 -283 82 -496 87 -155 4 -196 2 -291 -16 -130 -25
-133 -25 -133 -7 0 12 41 48 235 206 306 249 660 470 914 570 30 11 73 29 95
39 148 65 407 130 598 151 202 21 548 6 683 -30 181 -49 407 -144 490 -206 17
-12 47 -29 68 -38 61 -25 196 -128 287 -220 47 -47 88 -86 92 -86 28 0 -166
307 -239 378 -13 13 -23 27 -23 32 0 10 179 140 245 177 269 154 552 251 835
288 125 16 429 18 555 4z m2847 -1289 c46 -12 112 -28 148 -37 36 -9 69 -20
75 -24 5 -5 17 -9 26 -9 44 0 121 -98 121 -154 0 -41 -31 -102 -69 -137 -88
-82 -204 -96 -448 -53 -30 5 -32 3 -79 -90 -70 -139 -192 -274 -321 -358 -72
-46 -149 -86 -190 -98 -22 -6 -65 -19 -95 -28 -47 -14 -104 -17 -400 -17
l-345 0 -81 -28 c-56 -19 -96 -41 -133 -72 -65 -55 -81 -75 -166 -205 -82
-126 -129 -177 -215 -234 -88 -59 -118 -73 -224 -107 -154 -50 -256 -62 -455
-56 -97 3 -194 10 -216 15 -167 39 -484 49 -594 18 -169 -46 -263 -121 -386
-306 -83 -126 -126 -174 -225 -253 -97 -77 -229 -142 -360 -175 -89 -22 -125
-26 -240 -26 -183 1 -261 24 -512 147 -308 152 -383 177 -543 177 -109 0 -163
-12 -240 -55 -80 -44 -104 -63 -215 -170 -180 -172 -258 -211 -425 -209 -129
1 -232 34 -348 111 -125 83 -222 192 -368 416 -62 95 -83 110 -154 109 -64 0
-74 -6 -212 -113 -195 -150 -348 -224 -519 -249 -147 -23 -314 29 -417 128
-78 75 -122 164 -152 305 -19 86 -19 133 0 227 41 213 140 373 315 513 54 42
185 107 217 107 16 0 58 -33 131 -104 105 -102 163 -152 292 -252 72 -55 264
-184 275 -184 4 0 19 -9 35 -20 43 -30 255 -137 350 -176 292 -119 444 -160
805 -216 118 -18 526 -15 640 5 50 9 128 22 175 31 119 21 299 78 460 144 45
19 123 39 195 51 66 11 152 27 190 36 39 9 140 29 225 46 85 17 202 41 260 54
58 13 139 31 180 40 127 27 442 98 700 160 102 24 226 53 275 65 83 19 146 36
235 61 19 5 55 13 80 18 25 5 81 18 125 31 44 12 139 37 210 55 72 19 164 43
205 54 41 12 135 37 207 55 73 19 170 46 215 59 46 14 130 39 188 55 58 17
139 40 180 52 41 12 152 45 245 72 624 182 806 257 986 405 122 100 191 199
263 376 8 20 20 37 25 37 6 0 48 -9 93 -20z m-7026 -169 c62 -10 198 -54 269
-85 397 -177 704 -440 1155 -991 149 -182 223 -294 218 -328 -2 -18 -24 -28
-128 -64 -207 -70 -266 -83 -525 -113 -270 -32 -679 10 -960 100 -38 12 -92
29 -120 38 -27 8 -83 30 -123 48 -41 19 -78 34 -84 34 -29 0 -342 175 -472
264 -201 137 -485 397 -506 462 -33 99 124 330 309 456 129 88 312 161 466
186 74 12 418 8 501 -7z m7361 -376 c55 -83 73 -153 73 -283 0 -79 -3 -113
-11 -110 -13 4 -78 176 -88 233 -4 22 -21 69 -39 104 -38 76 -39 85 -9 99 32
15 38 11 74 -43z m-302 8 c44 -3 86 -10 92 -16 28 -21 74 -118 89 -186 14 -62
15 -81 3 -133 -11 -54 -19 -68 -69 -117 -82 -82 -229 -150 -415 -192 -113 -26
-172 -32 -305 -32 -156 -1 -254 15 -340 56 -64 31 -59 51 15 58 114 12 284 77
405 155 117 75 274 239 325 341 38 75 51 86 89 79 17 -4 67 -9 111 -13z m305
-374 c0 -10 -7 -19 -15 -19 -15 0 -21 31 -9 43 11 10 24 -3 24 -24z m-36 -106
c3 -10 8 -43 11 -73 6 -51 4 -58 -23 -93 -43 -53 -118 -111 -204 -156 -97 -51
-158 -72 -313 -112 -120 -31 -142 -34 -280 -34 -154 0 -168 3 -302 53 -82 31
-165 85 -242 156 -47 45 -121 139 -121 156 0 5 13 10 28 10 22 0 39 -12 71
-50 69 -82 192 -129 388 -150 321 -35 772 95 917 265 41 48 61 56 70 28z
m-1694 -132 c0 -47 -12 -72 -24 -52 -4 5 -9 30 -12 55 -6 42 -5 46 15 46 19 0
21 -6 21 -49z m-147 21 c29 -32 42 -174 29 -308 -13 -126 -51 -288 -80 -339
-27 -45 -97 -88 -241 -144 -177 -70 -298 -105 -501 -145 -188 -37 -404 -52
-494 -35 -124 23 -236 111 -296 232 -42 87 -37 94 62 76 110 -20 441 -17 543
5 156 33 284 84 387 152 112 74 173 140 276 299 81 123 140 180 216 206 66 23
79 23 99 1z m315 -96 c122 -186 385 -339 622 -362 36 -4 71 -11 78 -17 22 -17
13 -38 -25 -54 -44 -18 -380 -135 -468 -163 -33 -10 -109 -36 -169 -56 l-108
-38 -25 29 c-19 24 -23 37 -18 65 22 140 35 283 39 455 2 110 5 201 5 203 1 1
7 2 14 2 7 0 32 -29 55 -64z m1603 -133 c7 -17 9 -84 7 -168 -4 -137 -4 -141
-40 -215 -80 -165 -192 -248 -513 -380 -379 -157 -508 -208 -650 -261 -44 -17
-118 -45 -165 -64 -106 -43 -480 -178 -725 -263 -49 -17 -115 -39 -145 -50
-30 -11 -127 -42 -215 -70 -88 -28 -210 -67 -271 -87 -61 -20 -148 -46 -195
-59 -46 -13 -122 -36 -169 -50 -47 -15 -125 -38 -175 -51 -49 -13 -135 -37
-190 -53 -55 -16 -127 -35 -160 -42 -33 -7 -78 -18 -100 -25 -142 -45 -996
-241 -1135 -261 -25 -3 -99 -16 -165 -29 -188 -36 -284 -53 -370 -65 -147 -21
-279 -40 -335 -50 -98 -17 -291 -40 -465 -55 -93 -8 -188 -18 -210 -20 -111
-14 -463 -36 -730 -45 -273 -10 -816 -1 -920 15 -16 2 -81 9 -143 15 -132 12
-335 52 -407 79 -258 98 -404 195 -485 321 -71 111 -97 291 -65 455 24 125 40
135 65 42 14 -50 65 -142 108 -196 92 -114 265 -209 457 -250 110 -24 325 -41
614 -47 l303 -7 27 -25 c95 -89 261 -170 396 -193 186 -32 417 20 605 137 80
50 102 67 191 151 39 37 41 37 259 63 47 6 108 14 135 20 28 5 140 25 250 45
258 46 375 69 510 100 61 14 139 30 175 35 36 6 79 15 95 20 17 5 91 24 165
41 74 17 187 44 250 60 63 15 144 35 180 44 117 28 264 67 308 81 61 20 79 18
120 -16 83 -66 226 -87 367 -55 194 45 336 136 382 244 25 58 29 64 44 72 49
27 256 80 344 88 67 6 153 25 260 56 150 44 437 150 523 194 37 19 273 101
290 101 4 0 34 -20 66 -44 173 -129 377 -174 579 -127 206 48 297 177 297 422
0 76 -19 62 183 140 206 80 437 203 524 280 42 36 51 36 64 2z m-1791 -318
c-17 -128 -50 -205 -122 -277 -51 -53 -58 -56 -213 -106 -198 -64 -361 -115
-440 -137 -33 -9 -125 -37 -204 -62 -140 -45 -146 -46 -240 -40 -127 8 -208
30 -246 67 -37 37 -26 53 30 40 123 -29 445 2 690 65 33 9 78 20 100 25 101
22 366 126 454 179 60 35 70 46 98 103 16 35 42 113 57 173 15 61 30 117 34
125 13 31 14 -57 2 -155z m-2009 -95 c-8 -30 -2 -51 35 -128 46 -97 118 -195
195 -266 77 -72 129 -107 222 -150 49 -23 78 -43 82 -57 8 -25 5 -29 -37 -39
-18 -4 -87 -24 -153 -44 -66 -19 -169 -49 -230 -65 -60 -17 -140 -39 -178 -50
l-67 -20 -27 23 -27 24 28 40 c40 59 76 190 76 280 0 93 -39 258 -86 360 -19
42 -33 81 -30 88 6 17 38 22 126 20 61 -1 74 -4 71 -16z m2927 -43 c6 -122
-46 -223 -141 -270 -45 -23 -73 -29 -154 -33 -133 -8 -210 6 -311 57 -77 39
-103 61 -89 75 3 3 142 52 309 109 166 56 314 107 328 113 46 20 55 12 58 -51z
m-2759 31 c5 -13 16 -48 25 -78 21 -74 84 -167 151 -225 49 -41 72 -85 46 -85
-16 0 -111 86 -160 144 -55 65 -145 231 -137 251 3 9 18 15 36 15 22 0 33 -6
39 -22z m-458 -48 c12 -21 55 -119 68 -155 42 -119 52 -272 23 -369 -17 -57
-26 -68 -66 -80 -15 -5 -16 -9 -6 -22 8 -9 9 -18 4 -23 -58 -55 -111 -92 -151
-107 -26 -9 -70 -27 -98 -39 -69 -31 -408 -145 -475 -161 -361 -85 -428 -94
-680 -94 -256 0 -329 11 -617 93 -73 21 -267 116 -349 172 -76 51 -229 182
-238 204 -7 15 30 61 49 61 6 0 55 -29 110 -65 54 -36 100 -65 102 -65 2 0 39
-22 82 -50 43 -28 80 -50 83 -50 3 0 45 -22 94 -50 49 -27 94 -50 101 -50 6 0
44 -15 85 -34 85 -39 136 -55 273 -87 89 -21 123 -24 310 -23 198 0 218 2 351
32 78 17 186 47 240 67 54 20 125 45 157 56 32 11 92 35 133 54 42 19 78 35
80 35 5 0 61 26 216 99 82 39 134 91 152 152 12 38 12 59 1 130 -8 46 -21 111
-30 144 -10 33 -21 77 -26 97 -5 21 -16 56 -25 78 -9 22 -13 47 -10 56 7 19
46 15 57 -6z m-129 -107 c6 -16 14 -44 18 -63 5 -19 18 -73 30 -120 12 -47 22
-108 23 -137 2 -45 -2 -56 -28 -84 -16 -17 -57 -44 -90 -59 -33 -15 -94 -43
-135 -62 -41 -20 -86 -39 -100 -43 -14 -4 -45 -18 -70 -30 -41 -21 -78 -35
-291 -111 -114 -40 -326 -81 -476 -90 -279 -18 -641 95 -963 301 -36 23 -100
64 -143 91 -43 27 -81 53 -84 58 -17 27 130 86 216 86 62 -1 192 -31 271 -64
36 -15 151 -69 255 -121 254 -124 342 -148 545 -147 129 0 158 3 264 31 199
52 371 153 503 295 32 34 93 114 136 179 43 64 85 117 93 117 8 0 19 -12 26
-27z m-3798 -86 c12 -12 41 -54 64 -92 57 -94 105 -161 158 -217 24 -26 44
-52 44 -58 0 -31 -263 -238 -390 -307 -124 -67 -180 -83 -292 -83 -88 0 -111
3 -148 23 -62 31 -102 91 -108 163 -5 66 16 230 32 243 6 5 52 25 101 44 84
32 265 136 310 177 11 10 34 29 52 42 17 13 50 38 74 56 50 38 72 40 103 9z
m-880 -353 c13 -5 16 -23 16 -88 1 -141 23 -254 69 -344 38 -74 211 -221 313
-266 152 -67 245 -39 607 187 52 32 97 54 102 50 4 -4 15 -51 23 -103 11 -68
25 -115 50 -164 20 -38 33 -73 29 -79 -8 -14 -489 -1 -653 17 -69 8 -151 21
-182 30 -289 79 -456 248 -475 483 -6 77 11 153 48 204 10 15 19 39 19 53 0
27 7 31 34 20z m1284 -124 c23 -16 39 -35 36 -42 -2 -7 -26 -28 -52 -45 -26
-18 -100 -70 -164 -115 -121 -86 -249 -168 -278 -180 -9 -3 -41 -22 -71 -41
-66 -42 -188 -87 -235 -87 -41 0 -116 36 -194 93 -89 66 -88 77 5 52 75 -19
191 -19 274 0 64 15 203 80 276 128 91 60 243 177 270 207 19 22 74 60 86 60
3 0 25 -13 47 -30z m899 -14 c58 -69 258 -217 347 -257 71 -31 79 -46 66 -120
-13 -74 -49 -155 -84 -188 -17 -16 -43 -25 -93 -32 -199 -25 -450 -49 -628
-58 -110 -6 -253 -13 -317 -17 -117 -6 -117 -6 -141 20 -13 14 -41 59 -61 98
-35 70 -48 125 -61 259 -5 53 -2 57 134 159 l84 63 66 -21 c137 -44 231 -52
333 -28 100 24 178 60 236 108 32 25 65 47 74 47 9 1 29 -14 45 -33z m3433
-10 c0 -47 -182 -143 -326 -171 -81 -16 -96 -17 -150 -4 -35 9 -59 20 -59 28
0 12 166 66 314 101 29 7 83 23 120 35 79 27 101 30 101 11z m-2782 -370 c143
-45 204 -59 286 -65 79 -7 97 -25 39 -40 -85 -22 -483 -82 -495 -75 -12 8 -10
28 13 112 12 42 23 83 25 90 5 17 13 16 132 -22z m-473 -335 c6 -10 -105 -86
-166 -114 -19 -9 -70 -28 -114 -43 -72 -25 -94 -28 -225 -28 -139 0 -148 1
-229 32 -87 33 -156 77 -146 93 4 5 41 9 83 9 42 0 127 5 187 10 61 5 182 15
270 21 88 6 187 14 220 18 89 12 113 12 120 2z"/>
<path d="M6155 1824 c-181 -47 -247 -186 -262 -551 -7 -178 3 -232 50 -281 50
-53 76 -62 174 -62 153 0 299 45 394 121 49 38 96 119 105 177 14 91 -55 185
-160 218 l-51 16 3 101 c5 141 -18 206 -89 242 -30 16 -130 27 -164 19z m116
-81 c67 -26 93 -112 73 -235 -6 -37 -7 -37 -48 -32 -57 8 -202 -11 -271 -35
l-57 -20 7 55 c19 154 69 233 171 269 52 19 75 18 125 -2z m120 -357 c109 -25
167 -77 155 -140 -9 -47 -61 -114 -120 -153 -107 -72 -316 -109 -393 -70 -52
27 -72 111 -65 273 l2 51 74 18 c155 36 258 42 347 21z"/>
<path d="M5460 1505 c-249 -74 -400 -213 -400 -368 0 -75 24 -117 88 -154 39
-23 60 -28 138 -31 163 -7 253 25 356 129 37 38 70 64 74 58 3 -6 7 -63 7
-127 2 -143 -14 -196 -71 -236 -51 -35 -115 -56 -171 -56 -51 0 -173 28 -264
59 -57 20 -58 20 -77 1 -14 -14 -17 -25 -11 -42 6 -18 29 -30 105 -56 132 -45
239 -60 313 -44 120 25 223 102 252 189 41 125 7 468 -61 611 -40 84 -139 108
-278 67z m172 -76 c24 -13 55 -68 67 -118 l9 -44 -86 -87 c-106 -107 -165
-140 -267 -147 -104 -8 -162 3 -197 37 -35 35 -36 68 -4 135 41 87 154 173
280 214 95 31 151 34 198 10z"/>
<path d="M3850 1480 c-170 -31 -235 -52 -238 -75 -1 -11 4 -29 11 -39 14 -19
16 -19 108 7 140 38 206 50 289 51 86 0 154 -24 207 -76 34 -33 60 -84 49 -96
-4 -4 -121 -7 -259 -8 l-252 0 0 -34 c0 -34 1 -35 55 -43 30 -5 142 -7 247 -4
l193 5 -20 -28 c-30 -43 -79 -80 -140 -109 -51 -24 -65 -26 -185 -25 -81 0
-153 6 -192 16 -69 17 -83 11 -83 -32 0 -25 5 -28 73 -45 107 -26 257 -31 337
-11 98 25 184 69 233 120 63 64 82 108 82 187 0 79 -28 130 -100 179 -108 74
-238 93 -415 60z"/>
<path d="M4452 1492 c-9 -7 -12 -71 -10 -288 l3 -279 35 0 35 0 3 118 3 117
147 0 c81 0 171 3 200 6 l52 7 0 -121 c0 -108 2 -122 18 -131 10 -6 28 -7 40
-4 22 5 22 7 22 288 0 273 -1 284 -20 290 -10 3 -28 1 -40 -5 -18 -10 -20 -20
-20 -125 l0 -114 -47 -8 c-60 -10 -266 -10 -315 0 l-38 8 0 118 c0 99 -3 120
-16 125 -21 8 -36 7 -52 -2z"/>
<path d="M7211 1486 c-9 -11 -12 -63 -10 -192 l2 -178 -46 -42 c-57 -51 -129
-77 -217 -78 -79 -1 -126 17 -148 58 -14 26 -17 61 -17 231 l0 200 -25 3 c-52
5 -54 -3 -58 -195 -5 -244 14 -304 112 -352 43 -22 63 -25 145 -24 109 1 166
17 224 64 l37 30 0 -41 c0 -45 14 -56 55 -46 l25 6 -1 188 c-1 103 -4 230 -8
282 -6 93 -7 95 -32 98 -14 2 -31 -4 -38 -12z"/>
<path d="M7428 1493 c-29 -7 -61 -130 -56 -213 6 -109 56 -159 177 -180 100
-17 166 -2 304 68 4 2 7 -51 7 -117 0 -109 2 -121 19 -131 53 -28 61 15 61
336 0 205 -1 214 -21 224 -11 6 -30 10 -42 8 -21 -3 -22 -8 -25 -125 l-3 -122
-82 -41 c-100 -50 -146 -57 -219 -36 -106 30 -127 91 -85 236 29 97 24 109
-35 93z"/>
<path d="M8541 1486 c-9 -11 -12 -63 -10 -192 l2 -178 -46 -42 c-57 -51 -129
-77 -217 -78 -79 -1 -126 17 -148 58 -14 26 -17 61 -17 231 l0 200 -25 3 c-52
5 -54 -3 -58 -195 -5 -244 14 -304 112 -352 43 -22 63 -25 145 -24 109 1 166
17 224 64 l37 30 0 -41 c0 -45 14 -56 55 -46 l25 6 -1 188 c-1 103 -4 230 -8
282 -6 93 -7 95 -32 98 -14 2 -31 -4 -38 -12z"/>
<path d="M3172 1470 c-250 -66 -405 -253 -333 -403 53 -108 224 -160 407 -123
103 20 305 84 323 101 15 15 7 51 -14 59 -8 3 -51 -9 -97 -25 -282 -103 -428
-105 -516 -5 -49 56 -42 112 25 195 93 112 269 165 478 142 89 -9 108 -2 103
38 -2 21 -10 27 -43 33 -81 14 -257 8 -333 -12z"/>
</g>
</svg>
