<?xml version="1.0" standalone="no"?>
<!DOCTYPE svg PUBLIC "-//W3C//DTD SVG 20010904//EN"
 "http://www.w3.org/TR/2001/REC-SVG-20010904/DTD/svg10.dtd">
<svg version="1.0" xmlns="http://www.w3.org/2000/svg"
 width="1143.000000pt" height="346.000000pt" viewBox="0 0 1143.000000 346.000000"
 preserveAspectRatio="xMidYMid meet">

<g transform="translate(0.000000,346.000000) scale(0.100000,-0.100000)"
fill="#000000" stroke="none">
<path d="M11215 3448 c-2 -7 -22 -61 -44 -121 -35 -97 -38 -129 -12 -112 5 3
24 48 41 100 17 52 35 95 40 95 5 0 41 -36 81 -80 63 -70 99 -97 99 -72 0 11
-180 202 -191 202 -5 0 -12 -6 -14 -12z"/>
<path d="M10964 3421 c-57 -14 -115 -55 -140 -97 -29 -50 -30 -74 -4 -102 27
-29 59 -36 132 -29 60 5 146 47 156 75 6 20 -26 14 -69 -15 -48 -32 -157 -45
-185 -23 -18 16 -3 30 32 30 51 0 130 33 166 70 21 21 38 42 38 47 0 36 -66
59 -126 44z m83 -36 c13 -36 -69 -87 -159 -100 -41 -5 -48 -4 -48 10 0 57 188
138 207 90z"/>
<path d="M10580 3348 c-92 -56 -128 -140 -79 -189 18 -18 29 -21 75 -16 62 6
103 28 130 68 24 37 30 36 38 -2 12 -63 7 -95 -20 -120 -23 -22 -34 -24 -110
-23 -62 2 -84 -1 -84 -11 0 -17 32 -25 103 -25 62 0 100 14 132 50 36 40 13
195 -40 277 -23 34 -78 31 -145 -9z m129 -30 c14 -24 13 -29 -12 -67 -37 -56
-70 -75 -131 -76 -50 0 -51 1 -54 32 -4 42 21 79 78 115 56 36 98 35 119 -4z"/>
<path d="M10297 3309 c-52 -12 -101 -39 -91 -49 5 -5 34 0 64 10 72 25 113 26
108 3 -2 -10 -18 -22 -36 -28 -44 -13 -35 -30 14 -27 46 4 69 -15 59 -48 -10
-31 -63 -53 -142 -58 -73 -5 -92 -14 -50 -26 57 -15 148 3 190 37 37 30 45 79
19 105 -13 13 -18 28 -15 45 4 20 0 26 -28 36 -36 12 -39 12 -92 0z"/>
<path d="M10009 3254 c-45 -14 -78 -39 -66 -50 3 -4 26 3 50 15 51 25 99 27
117 6 15 -19 6 -45 -16 -45 -34 0 -126 -35 -150 -57 -13 -12 -24 -33 -24 -47
0 -65 120 -58 193 11 l27 27 0 -27 c0 -18 5 -27 16 -27 14 0 15 9 9 67 -15
138 -44 162 -156 127z m119 -111 c-2 -9 -23 -32 -46 -50 -49 -37 -117 -46
-129 -17 -8 22 17 44 79 65 69 24 101 25 96 2z"/>
<path d="M9705 3200 c-37 -15 -51 -17 -57 -7 -5 8 -10 8 -16 2 -5 -6 1 -74 16
-167 19 -119 29 -158 40 -158 11 0 13 8 9 29 -3 15 -9 52 -13 80 l-7 53 46 -7
c96 -15 157 25 157 102 0 87 -67 115 -175 73z m126 -20 c31 -17 26 -83 -8
-110 -24 -19 -37 -21 -86 -17 -32 3 -61 7 -63 10 -2 2 -5 21 -7 42 -2 36 1 41
38 62 43 24 94 30 126 13z"/>
<path d="M9314 3151 c-57 -14 -115 -55 -140 -97 -29 -50 -30 -74 -4 -102 27
-29 59 -36 132 -29 60 5 146 47 156 75 6 20 -26 14 -69 -15 -48 -32 -157 -45
-185 -23 -18 16 -3 30 32 30 51 0 130 33 166 70 21 21 38 42 38 47 0 36 -66
59 -126 44z m83 -36 c13 -36 -69 -87 -159 -100 -41 -5 -48 -4 -48 10 0 57 188
138 207 90z"/>
<path d="M8959 3085 c-15 -8 -30 -22 -33 -31 -6 -15 -8 -15 -26 1 -26 24 -102
16 -135 -15 -21 -20 -24 -20 -33 -4 -5 9 -14 14 -19 11 -9 -6 -5 -42 22 -194
4 -20 12 -33 21 -33 13 0 14 8 7 48 -16 98 -11 124 27 149 22 15 45 23 65 21
29 -3 30 -6 43 -73 20 -111 22 -117 35 -112 7 2 11 13 10 23 -16 144 -17 137
12 167 36 35 88 37 109 5 8 -13 19 -52 23 -87 5 -41 13 -66 22 -69 19 -6 7
120 -17 168 -15 32 -21 35 -62 37 -25 2 -57 -4 -71 -12z"/>
<path d="M8644 3017 c3 -13 8 -48 12 -78 6 -50 4 -58 -17 -78 -27 -25 -89 -44
-114 -35 -22 9 -33 40 -41 119 -5 48 -11 65 -22 65 -12 0 -14 -12 -9 -69 6
-68 25 -122 48 -137 24 -15 100 -6 136 16 23 14 39 18 41 11 6 -19 34 -13 28
7 -2 9 -10 51 -16 92 -15 100 -19 110 -37 110 -11 0 -14 -6 -9 -23z"/>
<path d="M7564 2991 c-54 -33 -66 -103 -39 -219 30 -125 65 -151 155 -116 91
35 142 88 142 149 0 44 -14 62 -60 74 -58 17 -130 -4 -173 -50 -35 -36 -37
-37 -43 -16 -3 12 -6 43 -6 69 0 38 5 50 26 67 36 28 79 34 146 18 32 -8 60
-12 63 -9 16 16 -1 32 -45 41 -75 16 -131 13 -166 -8z m223 -157 c39 -54 -111
-183 -186 -159 -26 8 -46 58 -33 82 18 31 78 84 108 93 39 12 96 4 111 -16z"/>
<path d="M8255 2960 c-37 -15 -51 -17 -57 -7 -5 8 -10 8 -16 2 -5 -6 1 -74 16
-167 19 -119 29 -158 40 -158 11 0 13 8 9 29 -3 15 -9 52 -13 80 l-7 53 46 -7
c96 -15 157 25 157 102 0 87 -67 115 -175 73z m126 -20 c31 -17 26 -83 -8
-110 -24 -19 -37 -21 -86 -17 -32 3 -61 7 -63 10 -2 2 -5 21 -7 42 -2 36 1 41
38 62 43 24 94 30 126 13z"/>
<path d="M8024 2941 c-57 -14 -115 -55 -140 -97 -29 -50 -30 -74 -4 -102 27
-29 59 -36 132 -29 60 5 146 47 156 75 6 20 -26 14 -69 -15 -48 -32 -157 -45
-185 -23 -18 16 -3 30 32 30 51 0 130 33 166 70 21 21 38 42 38 47 0 36 -66
59 -126 44z m83 -36 c13 -36 -69 -87 -159 -100 -41 -5 -48 -4 -48 10 0 57 188
138 207 90z"/>
<path d="M6912 2870 c-42 -26 -52 -54 -52 -153 0 -102 13 -152 47 -174 22 -14
33 -15 81 -5 95 20 156 76 154 142 -1 40 -16 58 -56 68 -27 7 -33 15 -43 58
-20 80 -67 103 -131 64z m90 -27 c10 -9 18 -30 18 -49 0 -29 -4 -35 -27 -40
-16 -3 -45 -12 -66 -20 -20 -8 -40 -14 -42 -14 -3 0 -5 18 -5 39 0 76 74 128
122 84z m96 -129 c29 -20 28 -46 -5 -85 -32 -38 -95 -68 -141 -69 -28 0 -35 5
-48 35 -7 19 -14 48 -14 64 0 30 8 35 100 65 32 10 87 5 108 -10z"/>
<path d="M7454 2778 c9 -87 29 -161 45 -166 10 -3 12 3 7 24 -3 16 -11 68 -18
117 -9 63 -16 87 -26 87 -12 0 -14 -12 -8 -62z"/>
<path d="M7153 2768 c3 -13 11 -59 18 -103 6 -44 18 -87 25 -95 12 -12 14 -12
14 4 0 16 6 18 53 13 112 -12 186 34 173 108 -14 73 -108 95 -204 46 l-40 -20
-6 34 c-5 22 -13 35 -23 35 -11 0 -14 -7 -10 -22z m238 -49 c31 -31 22 -70
-21 -92 -26 -14 -49 -17 -94 -13 -63 5 -76 15 -76 57 0 56 146 93 191 48z"/>
<path d="M6474 2618 c9 -87 29 -161 45 -166 10 -3 12 3 7 24 -3 16 -11 68 -18
117 -9 63 -16 87 -26 87 -12 0 -14 -12 -8 -62z"/>
<path d="M6173 2608 c3 -13 11 -59 18 -103 6 -44 18 -87 25 -95 12 -12 14 -12
14 4 0 16 6 18 53 13 112 -12 186 34 173 108 -14 73 -108 95 -204 46 l-40 -20
-6 34 c-5 22 -13 35 -23 35 -11 0 -14 -7 -10 -22z m238 -49 c31 -31 22 -70
-21 -92 -26 -14 -49 -17 -94 -13 -63 5 -76 15 -76 57 0 56 146 93 191 48z"/>
<path d="M5144 2601 c-54 -33 -66 -103 -39 -219 30 -125 65 -151 155 -116 91
35 142 88 142 149 0 44 -14 62 -60 74 -58 17 -130 -4 -173 -50 -35 -36 -37
-37 -43 -16 -3 12 -6 43 -6 69 0 38 5 50 26 67 36 28 79 34 146 18 32 -8 60
-12 63 -9 16 16 -1 32 -45 41 -75 16 -131 13 -166 -8z m223 -157 c39 -54 -111
-183 -186 -159 -26 8 -46 58 -33 82 18 31 78 84 108 93 39 12 96 4 111 -16z"/>
<path d="M6009 2595 c-15 -8 -30 -22 -33 -31 -6 -15 -8 -15 -26 1 -26 24 -102
16 -135 -15 -21 -20 -24 -20 -33 -4 -5 9 -14 14 -19 11 -9 -6 -5 -42 22 -194
4 -20 12 -33 21 -33 13 0 14 8 7 48 -16 98 -11 124 27 149 22 15 45 23 65 21
29 -3 30 -6 43 -73 20 -111 22 -117 35 -112 7 2 11 13 10 23 -16 144 -17 137
12 167 36 35 88 37 109 5 8 -13 19 -52 23 -87 5 -41 13 -66 22 -69 19 -6 7
120 -17 168 -15 32 -21 35 -62 37 -25 2 -57 -4 -71 -12z"/>
<path d="M10073 2538 c3 -13 11 -59 18 -103 6 -44 18 -87 25 -95 12 -12 14
-12 14 4 0 16 6 18 45 13 110 -16 193 32 181 102 -12 78 -93 102 -189 58 l-55
-25 -7 34 c-4 21 -12 34 -22 34 -11 0 -14 -7 -10 -22z m238 -49 c52 -52 -9
-114 -108 -106 -62 4 -83 19 -83 59 0 24 7 32 43 48 57 26 121 26 148 -1z"/>
<path d="M9953 2540 c-118 -24 -206 -117 -174 -186 25 -55 115 -59 219 -9 40
19 72 39 72 45 0 16 -16 12 -77 -20 -32 -17 -75 -33 -95 -37 -79 -12 -115 53
-63 115 29 35 83 58 154 68 31 4 50 11 48 18 -5 14 -32 16 -84 6z"/>
<path d="M5534 2517 c-119 -57 -136 -166 -31 -205 91 -35 252 71 231 152 -17
70 -111 95 -200 53z m139 -18 c12 -7 25 -17 29 -23 30 -44 -30 -117 -109 -135
-130 -28 -171 95 -50 150 48 21 98 24 130 8z"/>
<path d="M9604 2491 c-57 -14 -115 -55 -140 -97 -29 -50 -30 -74 -4 -102 27
-29 59 -36 132 -29 60 5 146 47 156 75 6 20 -26 14 -69 -15 -48 -32 -157 -45
-185 -23 -18 16 -3 30 32 30 51 0 130 33 166 70 21 21 38 42 38 47 0 36 -66
59 -126 44z m83 -36 c13 -36 -69 -87 -159 -100 -41 -5 -48 -4 -48 10 0 57 188
138 207 90z"/>
<path d="M8872 2428 c-20 -20 -25 -21 -58 -9 -41 15 -58 6 -30 -15 39 -28 126
-7 126 32 0 20 -12 18 -38 -8z"/>
<path d="M4919 2424 c-45 -14 -78 -39 -66 -50 3 -4 26 3 50 15 51 25 99 27
117 6 15 -19 6 -45 -16 -45 -34 0 -126 -35 -150 -57 -13 -12 -24 -33 -24 -47
0 -65 120 -58 193 11 l27 27 0 -27 c0 -18 5 -27 16 -27 14 0 15 9 9 67 -15
138 -44 162 -156 127z m119 -111 c-2 -9 -23 -32 -46 -50 -49 -37 -117 -46
-129 -17 -8 22 17 44 79 65 69 24 101 25 96 2z"/>
<path d="M9259 2425 c-15 -8 -30 -22 -33 -31 -6 -15 -8 -15 -26 1 -26 24 -102
16 -135 -15 -21 -20 -24 -20 -33 -4 -5 9 -14 14 -19 11 -9 -6 -5 -42 22 -194
4 -20 12 -33 21 -33 13 0 14 8 7 48 -16 98 -11 124 27 149 22 15 45 23 65 21
29 -3 30 -6 43 -73 20 -111 22 -117 35 -112 7 2 11 13 10 23 -16 144 -17 137
12 167 36 35 88 37 109 5 8 -13 19 -52 23 -87 5 -41 13 -66 22 -69 19 -6 7
120 -17 168 -15 32 -21 35 -62 37 -25 2 -57 -4 -71 -12z"/>
<path d="M4615 2370 c-37 -15 -51 -17 -57 -7 -5 8 -10 8 -16 2 -5 -6 1 -74 16
-167 19 -119 29 -158 40 -158 11 0 13 8 9 29 -3 15 -9 52 -13 80 l-7 53 46 -7
c96 -15 157 25 157 102 0 87 -67 115 -175 73z m126 -20 c31 -17 26 -83 -8
-110 -24 -19 -37 -21 -86 -17 -32 3 -61 7 -63 10 -2 2 -5 21 -7 42 -2 36 1 41
38 62 43 24 94 30 126 13z"/>
<path d="M8944 2347 c3 -13 8 -48 12 -78 6 -50 4 -58 -17 -78 -27 -25 -89 -44
-114 -35 -22 9 -33 40 -41 119 -5 48 -11 65 -22 65 -12 0 -14 -12 -9 -69 6
-68 25 -122 48 -137 24 -15 100 -6 136 16 23 14 39 18 41 11 6 -19 34 -13 28
7 -2 9 -10 51 -16 92 -15 100 -19 110 -37 110 -11 0 -14 -6 -9 -23z"/>
<path d="M8666 2313 c4 -16 11 -39 16 -51 6 -19 2 -32 -23 -63 -41 -52 -67
-69 -104 -69 -53 0 -60 11 -60 100 0 66 -3 80 -15 78 -25 -5 -21 -159 4 -187
38 -42 139 -18 189 45 24 31 33 25 41 -27 13 -82 -41 -122 -162 -118 -61 2
-77 -1 -77 -12 0 -11 19 -15 82 -17 108 -4 171 25 185 84 13 51 -42 264 -68
264 -11 0 -13 -7 -8 -27z"/>
<path d="M4209 2304 c-45 -14 -78 -39 -66 -50 3 -4 26 3 50 15 51 25 99 27
117 6 15 -19 6 -45 -16 -45 -34 0 -126 -35 -150 -57 -13 -12 -24 -33 -24 -47
0 -65 120 -58 193 11 l27 27 0 -27 c0 -18 5 -27 16 -27 14 0 15 9 9 67 -15
138 -44 162 -156 127z m119 -111 c-2 -9 -23 -32 -46 -50 -49 -37 -117 -46
-129 -17 -8 22 17 44 79 65 69 24 101 25 96 2z"/>
<path d="M8287 2269 c-52 -12 -101 -39 -91 -49 5 -5 34 0 64 10 72 25 113 26
108 3 -2 -10 -18 -22 -36 -28 -44 -13 -35 -30 14 -27 46 4 69 -15 59 -48 -10
-31 -63 -53 -142 -58 -73 -5 -92 -14 -50 -26 57 -15 148 3 190 37 37 30 45 79
19 105 -13 13 -18 28 -15 45 4 20 0 26 -28 36 -36 12 -39 12 -92 0z"/>
<path d="M3895 2248 c-2 -7 -22 -61 -44 -121 -35 -97 -38 -129 -12 -112 5 3
24 48 41 100 17 52 35 95 40 95 5 0 41 -36 81 -80 63 -70 99 -97 99 -72 0 11
-180 202 -191 202 -5 0 -12 -6 -14 -12z"/>
<path d="M3629 2214 c-45 -14 -78 -39 -66 -50 3 -4 26 3 50 15 51 25 99 27
117 6 15 -19 6 -45 -16 -45 -34 0 -126 -35 -150 -57 -13 -12 -24 -33 -24 -47
0 -65 120 -58 193 11 l27 27 0 -27 c0 -18 5 -27 16 -27 14 0 15 9 9 67 -15
138 -44 162 -156 127z m119 -111 c-2 -9 -23 -32 -46 -50 -49 -37 -117 -46
-129 -17 -8 22 17 44 79 65 69 24 101 25 96 2z"/>
<path d="M7863 2178 c3 -13 11 -59 18 -103 6 -44 18 -87 25 -95 12 -12 14 -12
14 4 0 16 6 18 45 13 110 -16 193 32 181 102 -12 78 -93 102 -189 58 l-55 -25
-7 34 c-4 21 -12 34 -22 34 -11 0 -14 -7 -10 -22z m238 -49 c52 -52 -9 -114
-108 -106 -62 4 -83 19 -83 59 0 24 7 32 43 48 57 26 121 26 148 -1z"/>
<path d="M3458 2184 c-4 -3 -5 -11 -3 -17 18 -61 15 -76 -23 -102 -74 -51
-142 -19 -128 60 6 28 4 35 -9 35 -25 0 -24 -93 2 -122 22 -25 99 -24 141 2
18 11 34 20 36 20 2 0 7 -20 10 -45 5 -30 12 -45 22 -45 11 0 13 8 9 33 -3 17
-11 65 -18 106 -11 68 -23 91 -39 75z"/>
<path d="M7675 2158 c-2 -7 -22 -61 -44 -121 -35 -97 -38 -129 -12 -112 5 3
24 48 41 100 17 52 35 95 40 95 5 0 41 -36 81 -80 63 -70 99 -97 99 -72 0 11
-180 202 -191 202 -5 0 -12 -6 -14 -12z"/>
<path d="M3089 2124 c-45 -14 -78 -39 -66 -50 3 -4 26 3 50 15 51 25 99 27
117 6 15 -19 6 -45 -16 -45 -34 0 -126 -35 -150 -57 -13 -12 -24 -33 -24 -47
0 -65 120 -58 193 11 l27 27 0 -27 c0 -18 5 -27 16 -27 14 0 15 9 9 67 -15
138 -44 162 -156 127z m119 -111 c-2 -9 -23 -32 -46 -50 -49 -37 -117 -46
-129 -17 -8 22 17 44 79 65 69 24 101 25 96 2z"/>
<path d="M7354 2107 c-119 -57 -136 -166 -31 -205 91 -35 252 71 231 152 -17
70 -111 95 -200 53z m139 -18 c12 -7 25 -17 29 -23 30 -44 -30 -117 -109 -135
-130 -28 -171 95 -50 150 48 21 98 24 130 8z"/>
<path d="M2926 2051 l6 -49 -38 -11 c-22 -6 -58 -11 -81 -11 -38 0 -43 3 -43
23 0 38 -12 67 -27 67 -10 0 -12 -8 -8 -32 3 -18 11 -66 18 -107 8 -46 18 -76
26 -79 11 -4 13 5 8 47 l-6 51 30 0 c17 0 50 5 75 11 25 6 47 9 50 6 3 -3 8
-24 11 -46 4 -27 11 -41 21 -41 12 0 13 9 8 48 -17 126 -28 172 -42 172 -12 0
-13 -10 -8 -49z"/>
<path d="M7067 2069 c-77 -18 -76 -15 -58 -126 12 -72 21 -99 32 -101 14 -3
14 6 1 88 -11 65 -12 94 -4 102 6 6 42 13 80 16 l69 4 13 -91 c9 -63 17 -91
26 -91 18 0 17 15 -1 120 -8 47 -15 86 -15 88 0 6 -109 -1 -143 -9z"/>
<path d="M6092 2030 c-42 -26 -52 -54 -52 -153 0 -102 13 -152 47 -174 22 -14
33 -15 81 -5 95 20 156 76 154 142 -1 40 -16 58 -56 68 -27 7 -33 15 -43 58
-20 80 -67 103 -131 64z m90 -27 c10 -9 18 -30 18 -49 0 -29 -4 -35 -27 -40
-16 -3 -45 -12 -66 -20 -20 -8 -40 -14 -42 -14 -3 0 -5 18 -5 39 0 76 74 128
122 84z m96 -129 c29 -20 28 -46 -5 -85 -32 -38 -95 -68 -141 -69 -28 0 -35 5
-48 35 -7 19 -14 48 -14 64 0 30 8 35 100 65 32 10 87 5 108 -10z"/>
<path d="M6873 2040 c-118 -24 -206 -117 -174 -186 25 -55 115 -59 219 -9 40
19 72 39 72 45 0 16 -16 12 -77 -20 -32 -17 -75 -33 -95 -37 -79 -12 -115 53
-63 115 29 35 83 58 154 68 31 4 50 11 48 18 -5 14 -32 16 -84 6z"/>
<path d="M2510 2019 c0 -8 -14 -10 -44 -6 -88 12 -156 -30 -156 -99 0 -36 37
-74 73 -74 20 0 20 -1 -2 -24 -13 -14 -20 -30 -16 -36 5 -8 23 3 54 33 25 25
61 52 78 61 l33 16 6 -40 c4 -24 12 -40 20 -40 18 0 18 23 -2 131 -11 61 -21
89 -30 89 -8 0 -14 -5 -14 -11z m-27 -40 c30 -8 37 -15 37 -34 0 -31 -72 -75
-123 -75 -63 0 -87 48 -44 87 37 34 67 40 130 22z"/>
<path d="M6454 1957 c-119 -57 -136 -166 -31 -205 91 -35 252 71 231 152 -17
70 -111 95 -200 53z m139 -18 c12 -7 25 -17 29 -23 30 -44 -30 -117 -109 -135
-130 -28 -171 95 -50 150 48 21 98 24 130 8z"/>
<path d="M2105 1958 c-2 -7 -22 -61 -44 -121 -35 -97 -38 -129 -12 -112 5 3
24 48 41 100 17 52 35 95 40 95 5 0 41 -36 81 -80 63 -70 99 -97 99 -72 0 11
-180 202 -191 202 -5 0 -12 -6 -14 -12z"/>
<path d="M1790 1908 c-92 -56 -128 -140 -79 -189 18 -18 29 -21 75 -16 62 6
103 28 130 68 24 37 30 36 38 -2 12 -63 7 -95 -20 -120 -23 -22 -34 -24 -110
-23 -62 2 -84 -1 -84 -11 0 -17 32 -25 103 -25 62 0 100 14 132 50 36 40 13
195 -40 277 -23 34 -78 31 -145 -9z m129 -30 c14 -24 13 -29 -12 -67 -37 -56
-70 -75 -131 -76 -50 0 -51 1 -54 32 -4 42 21 79 78 115 56 36 98 35 119 -4z"/>
<path d="M10246 1863 c-2 -10 -12 -53 -21 -95 -9 -43 -20 -78 -24 -78 -3 0
-30 36 -59 80 -28 44 -58 80 -66 80 -10 0 -17 -25 -25 -82 -7 -46 -15 -100
-18 -120 -3 -24 -2 -38 5 -38 17 0 22 14 34 105 6 47 13 85 17 85 3 0 30 -36
59 -80 28 -44 58 -80 66 -80 8 0 19 29 31 83 9 45 21 88 25 96 5 9 22 -11 56
-68 33 -54 55 -81 67 -81 23 0 25 -6 -48 112 -59 96 -88 119 -99 81z"/>
<path d="M5814 1837 c3 -13 8 -48 12 -78 6 -50 4 -58 -17 -78 -27 -25 -89 -44
-114 -35 -22 9 -33 40 -41 119 -5 48 -11 65 -22 65 -12 0 -14 -12 -9 -69 6
-68 25 -122 48 -137 24 -15 100 -6 136 16 23 14 39 18 41 11 6 -19 34 -13 28
7 -2 9 -10 51 -16 92 -15 100 -19 110 -37 110 -11 0 -14 -6 -9 -23z"/>
<path d="M9794 1797 c-119 -57 -136 -166 -31 -205 91 -35 252 71 231 152 -17
70 -111 95 -200 53z m139 -18 c12 -7 25 -17 29 -23 30 -44 -30 -117 -109 -135
-130 -28 -171 95 -50 150 48 21 98 24 130 8z"/>
<path d="M5425 1788 c-2 -7 -22 -61 -44 -121 -35 -97 -38 -129 -12 -112 5 3
24 48 41 100 17 52 35 95 40 95 5 0 41 -36 81 -80 63 -70 99 -97 99 -72 0 11
-180 202 -191 202 -5 0 -12 -6 -14 -12z"/>
<path d="M5254 1747 c3 -13 8 -48 12 -78 6 -50 4 -58 -17 -78 -27 -25 -89 -44
-114 -35 -22 9 -33 40 -41 119 -5 48 -11 65 -22 65 -12 0 -14 -12 -9 -69 6
-68 25 -122 48 -137 24 -15 100 -6 136 16 23 14 39 18 41 11 6 -19 34 -13 28
7 -2 9 -10 51 -16 92 -15 100 -19 110 -37 110 -11 0 -14 -6 -9 -23z"/>
<path d="M9495 1740 c-37 -15 -51 -17 -57 -7 -5 8 -10 8 -16 2 -5 -6 1 -74 16
-167 19 -119 29 -158 40 -158 11 0 13 8 9 29 -3 15 -9 52 -13 80 l-7 53 46 -7
c96 -15 157 25 157 102 0 87 -67 115 -175 73z m126 -20 c31 -17 26 -83 -8
-110 -24 -19 -37 -21 -86 -17 -32 3 -61 7 -63 10 -2 2 -5 21 -7 42 -2 36 1 41
38 62 43 24 94 30 126 13z"/>
<path d="M9239 1715 c-15 -8 -30 -22 -33 -31 -6 -15 -8 -15 -26 1 -26 24 -102
16 -135 -15 -21 -20 -24 -20 -33 -4 -5 9 -14 14 -19 11 -9 -6 -5 -42 22 -194
4 -20 12 -33 21 -33 13 0 14 8 7 48 -16 98 -11 124 27 149 22 15 45 23 65 21
29 -3 30 -6 43 -73 20 -111 22 -117 35 -112 7 2 11 13 10 23 -16 144 -17 137
12 167 36 35 88 37 109 5 8 -13 19 -52 23 -87 5 -41 13 -66 22 -69 19 -6 7
120 -17 168 -15 32 -21 35 -62 37 -25 2 -57 -4 -71 -12z"/>
<path d="M4555 1654 c-47 -17 -101 -67 -110 -101 -4 -16 -12 -23 -23 -21 -12
2 -18 15 -20 48 -3 47 -14 66 -30 57 -9 -6 -3 -73 18 -170 8 -39 16 -57 27
-57 15 0 14 14 -3 73 -8 26 21 21 40 -8 25 -38 82 -51 148 -31 111 32 166 114
122 181 -28 43 -97 55 -169 29z m129 -35 c69 -54 -13 -149 -129 -149 -49 0
-85 25 -85 59 0 47 89 110 156 111 17 0 43 -9 58 -21z"/>
<path d="M8693 1608 c3 -13 11 -59 18 -103 6 -44 18 -87 25 -95 12 -12 14 -12
14 4 0 16 6 18 45 13 110 -16 193 32 181 102 -12 78 -93 102 -189 58 l-55 -25
-7 34 c-4 21 -12 34 -22 34 -11 0 -14 -7 -10 -22z m238 -49 c52 -52 -9 -114
-108 -106 -62 4 -83 19 -83 59 0 24 7 32 43 48 57 26 121 26 148 -1z"/>
<path d="M4316 1571 l6 -49 -38 -11 c-22 -6 -58 -11 -81 -11 -38 0 -43 3 -43
23 0 38 -12 67 -27 67 -10 0 -12 -8 -8 -32 3 -18 11 -66 18 -107 8 -46 18 -76
26 -79 11 -4 13 5 8 47 l-6 51 30 0 c17 0 50 5 75 11 25 6 47 9 50 6 3 -3 8
-24 11 -46 4 -27 11 -41 21 -41 12 0 13 9 8 48 -17 126 -28 172 -42 172 -12 0
-13 -10 -8 -49z"/>
<path d="M8495 1588 c-2 -7 -22 -61 -44 -121 -35 -97 -38 -129 -12 -112 5 3
24 48 41 100 17 52 35 95 40 95 5 0 41 -36 81 -80 63 -70 99 -97 99 -72 0 11
-180 202 -191 202 -5 0 -12 -6 -14 -12z"/>
<path d="M3974 1561 c-57 -14 -115 -55 -140 -97 -29 -50 -30 -74 -4 -102 27
-29 59 -36 132 -29 60 5 146 47 156 75 6 20 -26 14 -69 -15 -48 -32 -157 -45
-185 -23 -18 16 -3 30 32 30 51 0 130 33 166 70 21 21 38 42 38 47 0 36 -66
59 -126 44z m83 -36 c13 -36 -69 -87 -159 -100 -41 -5 -48 -4 -48 10 0 57 188
138 207 90z"/>
<path d="M4803 1563 c-8 -3 -13 -25 -13 -59 0 -47 2 -54 20 -54 18 0 20 7 20
60 0 59 -2 64 -27 53z"/>
<path d="M8334 1547 c3 -13 8 -48 12 -78 6 -50 4 -58 -17 -78 -27 -25 -89 -44
-114 -35 -22 9 -33 40 -41 119 -5 48 -11 65 -22 65 -12 0 -14 -12 -9 -69 6
-68 25 -122 48 -137 24 -15 100 -6 136 16 23 14 39 18 41 11 6 -19 34 -13 28
7 -2 9 -10 51 -16 92 -15 100 -19 110 -37 110 -11 0 -14 -6 -9 -23z"/>
<path d="M3002 1530 c-42 -26 -52 -54 -52 -153 0 -102 13 -152 47 -174 22 -14
33 -15 81 -5 95 20 156 76 154 142 -1 40 -16 58 -56 68 -27 7 -33 15 -43 58
-20 80 -67 103 -131 64z m90 -27 c10 -9 18 -30 18 -49 0 -29 -4 -35 -27 -40
-16 -3 -45 -12 -66 -20 -20 -8 -40 -14 -42 -14 -3 0 -5 18 -5 39 0 76 74 128
122 84z m96 -129 c29 -20 28 -46 -5 -85 -32 -38 -95 -68 -141 -69 -28 0 -35 5
-48 35 -7 19 -14 48 -14 64 0 30 8 35 100 65 32 10 87 5 108 -10z"/>
<path d="M3646 1493 c-2 -10 -12 -53 -21 -95 -9 -43 -20 -78 -24 -78 -3 0 -30
36 -59 80 -28 44 -58 80 -66 80 -10 0 -17 -25 -25 -82 -7 -46 -15 -100 -18
-120 -3 -24 -2 -38 5 -38 17 0 22 14 34 105 6 47 13 85 17 85 3 0 30 -36 59
-80 28 -44 58 -80 66 -80 8 0 19 29 31 83 9 45 21 88 25 96 5 9 22 -11 56 -68
33 -54 55 -81 67 -81 23 0 25 -6 -48 112 -59 96 -88 119 -99 81z"/>
<path d="M7965 1496 c-22 -7 -50 -18 -62 -25 -15 -7 -23 -8 -23 -1 0 5 -7 10
-15 10 -8 0 -15 -6 -15 -13 0 -11 -11 -12 -42 -8 -103 16 -171 -24 -170 -97 2
-99 71 -128 181 -77 30 14 55 24 56 23 1 -2 7 -37 14 -78 13 -81 16 -89 31
-74 7 7 7 28 0 63 -17 93 -19 90 59 88 57 -2 74 2 98 19 51 38 56 97 10 149
-27 31 -69 38 -122 21z m100 -41 c66 -65 -1 -136 -109 -116 -54 10 -66 22 -66
67 0 64 126 99 175 49z m-238 -26 c24 -8 32 -18 36 -42 2 -18 3 -35 0 -40 -9
-15 -103 -57 -128 -57 -29 0 -75 40 -75 65 0 63 88 102 167 74z"/>
<path d="M7473 1403 c-41 -10 -63 -20 -63 -29 0 -18 21 -18 109 2 46 11 71 21
71 30 0 17 -34 17 -117 -3z"/>
<path d="M7229 1385 c-15 -8 -30 -22 -33 -31 -6 -15 -8 -15 -26 1 -26 24 -102
16 -135 -15 -21 -20 -24 -20 -33 -4 -5 9 -14 14 -19 11 -9 -6 -5 -42 22 -194
4 -20 12 -33 21 -33 13 0 14 8 7 48 -16 98 -11 124 27 149 22 15 45 23 65 21
29 -3 30 -6 43 -73 20 -111 22 -117 35 -112 7 2 11 13 10 23 -16 144 -17 137
12 167 36 35 88 37 109 5 8 -13 19 -52 23 -87 5 -41 13 -66 22 -69 19 -6 7
120 -17 168 -15 32 -21 35 -62 37 -25 2 -57 -4 -71 -12z"/>
<path d="M6785 1300 c-37 -15 -51 -17 -57 -7 -5 8 -10 8 -16 2 -5 -6 1 -74 16
-167 19 -119 29 -158 40 -158 11 0 13 8 9 29 -3 15 -9 52 -13 80 l-7 53 46 -7
c96 -15 157 25 157 102 0 87 -67 115 -175 73z m126 -20 c31 -17 26 -83 -8
-110 -24 -19 -37 -21 -86 -17 -32 3 -61 7 -63 10 -2 2 -5 21 -7 42 -2 36 1 41
38 62 43 24 94 30 126 13z"/>
<path d="M6539 1274 c-45 -14 -78 -39 -66 -50 3 -4 26 3 50 15 51 25 99 27
117 6 15 -19 6 -45 -16 -45 -34 0 -126 -35 -150 -57 -13 -12 -24 -33 -24 -47
0 -65 120 -58 193 11 l27 27 0 -27 c0 -18 5 -27 16 -27 14 0 15 9 9 67 -15
138 -44 162 -156 127z m119 -111 c-2 -9 -23 -32 -46 -50 -49 -37 -117 -46
-129 -17 -8 22 17 44 79 65 69 24 101 25 96 2z"/>
<path d="M6276 1213 c-2 -10 -12 -53 -21 -95 -9 -43 -20 -78 -24 -78 -3 0 -30
36 -59 80 -28 44 -58 80 -66 80 -10 0 -17 -25 -25 -82 -7 -46 -15 -100 -18
-120 -3 -24 -2 -38 5 -38 17 0 22 14 34 105 6 47 13 85 17 85 3 0 30 -36 59
-80 28 -44 58 -80 66 -80 8 0 19 29 31 83 9 45 21 88 25 96 5 9 22 -11 56 -68
33 -54 55 -81 67 -81 23 0 25 -6 -48 112 -59 96 -88 119 -99 81z"/>
<path d="M5923 1170 c-118 -24 -206 -117 -174 -186 25 -55 115 -59 219 -9 40
19 72 39 72 45 0 16 -16 12 -77 -20 -32 -17 -75 -33 -95 -37 -79 -12 -115 53
-63 115 29 35 83 58 154 68 31 4 50 11 48 18 -5 14 -32 16 -84 6z"/>
<path d="M5416 1073 c-2 -10 -12 -53 -21 -95 -9 -43 -20 -78 -24 -78 -3 0 -30
36 -59 80 -28 44 -58 80 -66 80 -10 0 -17 -25 -25 -82 -7 -46 -15 -100 -18
-120 -3 -24 -2 -38 5 -38 17 0 22 14 34 105 6 47 13 85 17 85 3 0 30 -36 59
-80 28 -44 58 -80 66 -80 8 0 19 29 31 83 9 45 21 88 25 96 5 9 22 -11 56 -68
33 -54 55 -81 67 -81 23 0 25 -6 -48 112 -59 96 -88 119 -99 81z"/>
<path d="M4304 1041 c-54 -33 -66 -103 -39 -219 30 -125 65 -151 155 -116 91
35 142 88 142 149 0 44 -14 62 -60 74 -58 17 -130 -4 -173 -50 -35 -36 -37
-37 -43 -16 -3 12 -6 43 -6 69 0 38 5 50 26 67 36 28 79 34 146 18 32 -8 60
-12 63 -9 16 16 -1 32 -45 41 -75 16 -131 13 -166 -8z m223 -157 c39 -54 -111
-183 -186 -159 -26 8 -46 58 -33 82 18 31 78 84 108 93 39 12 96 4 111 -16z"/>
<path d="M5134 988 c9 -87 29 -161 45 -166 10 -3 12 3 7 24 -3 16 -11 68 -18
117 -9 63 -16 87 -26 87 -12 0 -14 -12 -8 -62z"/>
<path d="M4833 978 c3 -13 11 -59 18 -103 6 -44 18 -87 25 -95 12 -12 14 -12
14 4 0 16 6 18 53 13 112 -12 186 34 173 108 -14 73 -108 95 -204 46 l-40 -20
-6 34 c-5 22 -13 35 -23 35 -11 0 -14 -7 -10 -22z m238 -49 c31 -31 22 -70
-21 -92 -26 -14 -49 -17 -94 -13 -63 5 -76 15 -76 57 0 56 146 93 191 48z"/>
<path d="M4776 941 l6 -49 -38 -11 c-22 -6 -58 -11 -81 -11 -38 0 -43 3 -43
23 0 38 -12 67 -27 67 -10 0 -12 -8 -8 -32 3 -18 11 -66 18 -107 8 -46 18 -76
26 -79 11 -4 13 5 8 47 l-6 51 30 0 c17 0 50 5 75 11 25 6 47 9 50 6 3 -3 8
-24 11 -46 4 -27 11 -41 21 -41 12 0 13 9 8 48 -17 126 -28 172 -42 172 -12 0
-13 -10 -8 -49z"/>
<path d="M4034 857 c-119 -57 -136 -166 -31 -205 91 -35 252 71 231 152 -17
70 -111 95 -200 53z m139 -18 c12 -7 25 -17 29 -23 30 -44 -30 -117 -109 -135
-130 -28 -171 95 -50 150 48 21 98 24 130 8z"/>
<path d="M3720 798 c-92 -56 -128 -140 -79 -189 18 -18 29 -21 75 -16 62 6
103 28 130 68 24 37 30 36 38 -2 12 -63 7 -95 -20 -120 -23 -22 -34 -24 -110
-23 -62 2 -84 -1 -84 -11 0 -17 32 -25 103 -25 62 0 100 14 132 50 36 40 13
195 -40 277 -23 34 -78 31 -145 -9z m129 -30 c14 -24 13 -29 -12 -67 -37 -56
-70 -75 -131 -76 -50 0 -51 1 -54 32 -4 42 21 79 78 115 56 36 98 35 119 -4z"/>
<path d="M1829 765 c-212 -160 -755 -369 -1113 -430 -274 -46 -458 -92 -391
-96 185 -13 725 114 1035 242 272 113 570 283 570 325 0 25 -25 15 -101 -41z"/>
<path d="M3526 763 c4 -16 11 -39 16 -51 6 -19 2 -32 -23 -63 -41 -52 -67 -69
-104 -69 -53 0 -60 11 -60 100 0 66 -3 80 -15 78 -25 -5 -21 -159 4 -187 38
-42 139 -18 189 45 24 31 33 25 41 -27 13 -82 -41 -122 -162 -118 -61 2 -77
-1 -77 -12 0 -11 19 -15 82 -17 108 -4 171 25 185 84 13 51 -42 264 -68 264
-11 0 -13 -7 -8 -27z"/>
<path d="M335 420 c-121 -71 -239 -140 -262 -154 -50 -30 -67 -57 -50 -78 7
-9 122 -52 256 -97 257 -85 271 -87 271 -35 0 13 -8 29 -18 35 -11 7 -113 39
-227 73 -115 34 -210 66 -212 71 -2 6 107 76 242 155 135 79 245 148 245 152
0 18 -35 0 -245 -122z"/>
</g>
</svg>
