<?xml version="1.0" standalone="no"?>
<!DOCTYPE svg PUBLIC "-//W3C//DTD SVG 20010904//EN"
 "http://www.w3.org/TR/2001/REC-SVG-20010904/DTD/svg10.dtd">
<svg version="1.0" xmlns="http://www.w3.org/2000/svg"
 width="1197.000000pt" height="952.000000pt" viewBox="0 0 1197.000000 952.000000"
 preserveAspectRatio="xMidYMid meet">

<g transform="translate(0.000000,952.000000) scale(0.100000,-0.100000)"
fill="#000000" stroke="none">
<path d="M7910 8660 c-131 -16 -283 -54 -415 -104 l-70 -27 -135 12 c-175 15
-276 7 -446 -35 -339 -84 -430 -115 -634 -215 -211 -104 -223 -107 -348 -87
-299 47 -520 -6 -792 -191 -333 -225 -405 -285 -775 -638 -99 -94 -199 -188
-222 -209 -169 -151 -360 -463 -425 -691 -12 -44 -21 -117 -25 -197 l-6 -128
-86 -74 c-180 -155 -311 -328 -436 -576 -71 -141 -83 -260 -41 -385 l24 -70
-45 -95 c-107 -222 -134 -284 -157 -363 -43 -138 -57 -291 -36 -369 12 -43 97
-125 177 -170 29 -16 53 -33 53 -36 0 -4 -18 -29 -41 -57 -54 -67 -119 -169
-147 -230 -14 -29 -35 -57 -52 -67 -43 -24 -45 -59 -11 -173 87 -290 198 -445
427 -593 170 -110 187 -120 300 -177 182 -93 324 -127 524 -127 89 -1 132 4
190 21 41 12 100 26 130 32 145 29 448 173 652 310 37 26 68 39 90 39 73 1
124 22 248 104 69 46 158 105 198 130 41 26 91 63 112 82 l38 35 124 2 c107 2
129 5 172 26 69 34 112 81 210 228 47 70 157 218 243 329 87 110 185 240 218
288 113 165 179 241 400 466 266 269 455 474 618 670 161 192 278 308 412 405
131 95 166 144 173 235 3 35 -2 78 -11 111 -9 29 -14 56 -12 60 3 4 62 39 132
79 396 226 530 385 550 656 l6 73 91 32 c245 88 353 198 364 373 2 39 0 88 -6
108 -10 36 -9 39 28 68 89 70 150 193 150 300 0 104 -51 226 -149 355 -163
216 -311 319 -491 345 -90 13 -211 1 -282 -27 -37 -15 -39 -15 -125 30 -197
101 -395 135 -633 107z m293 -46 c33 -8 78 -24 99 -35 21 -11 51 -24 66 -29
l27 -10 -30 25 c-44 37 -21 31 106 -26 84 -38 139 -72 209 -128 112 -90 255
-231 334 -330 60 -74 176 -249 176 -264 0 -5 -16 5 -35 22 -39 34 -46 36 -62
20 -13 -13 -83 58 -197 200 -76 94 -98 114 -64 54 28 -48 86 -121 161 -200 41
-45 57 -68 53 -81 -4 -12 8 -37 35 -73 43 -57 93 -148 86 -155 -2 -3 -22 26
-43 63 -21 38 -68 97 -105 133 -36 36 -89 99 -118 142 -29 42 -88 118 -131
170 -91 108 -289 317 -289 305 -1 -7 114 -137 255 -290 40 -42 87 -102 104
-131 17 -30 48 -76 70 -102 22 -26 42 -61 46 -78 4 -17 30 -64 59 -106 61 -88
136 -230 121 -230 -2 0 -26 35 -54 78 -28 42 -91 123 -141 179 -111 127 -181
217 -181 235 0 32 -258 333 -342 399 l-43 34 22 -31 c12 -17 30 -37 39 -45 59
-49 247 -267 269 -312 13 -28 62 -100 108 -158 46 -59 98 -130 116 -158 31
-48 148 -301 227 -491 34 -79 35 -85 18 -97 -10 -7 -22 -13 -27 -13 -13 0 -77
145 -77 177 -1 96 -84 273 -200 428 -45 60 -113 155 -153 212 -41 60 -78 103
-87 103 -9 0 -49 38 -90 85 -67 79 -185 191 -220 210 -17 9 51 -65 236 -255
172 -177 227 -254 334 -469 72 -145 220 -478 220 -495 0 -13 -25 -26 -77 -41
-16 -4 -23 -2 -23 7 0 7 -13 40 -29 74 -31 67 -47 124 -34 124 4 0 26 -34 48
-76 43 -81 74 -119 60 -74 -4 14 -21 50 -37 80 -16 30 -58 111 -93 180 -112
222 -250 435 -374 580 -62 73 -36 19 49 -100 159 -222 230 -331 271 -413 22
-43 38 -81 36 -84 -3 -2 -20 17 -38 44 -18 26 -87 122 -154 213 -66 91 -135
188 -153 215 -31 49 -322 348 -322 331 0 -5 60 -70 134 -145 89 -91 152 -166
191 -226 31 -49 72 -108 89 -130 18 -22 52 -76 76 -120 24 -44 70 -123 103
-175 55 -88 126 -217 154 -283 10 -24 9 -29 -10 -42 -12 -8 -25 -15 -28 -15
-4 0 -15 24 -25 53 -40 123 -96 214 -288 467 -191 253 -220 286 -445 515 -144
147 -219 216 -282 258 -88 58 -264 146 -353 177 -28 9 -51 21 -53 26 -2 6 20
15 49 21 l53 11 203 -101 c111 -55 205 -98 207 -95 3 3 -6 13 -21 23 -54 35
-270 143 -311 155 -24 7 -43 16 -43 20 0 18 70 35 135 34 83 -2 162 -31 254
-93 70 -48 84 -37 15 12 -47 33 -167 86 -196 87 -9 0 -20 5 -23 10 -10 15 106
12 153 -4 22 -8 84 -42 137 -76 53 -34 99 -59 102 -57 7 7 -113 90 -175 121
-30 15 -52 30 -49 33 11 10 84 -21 175 -75 51 -30 95 -52 98 -49 7 7 -49 43
-140 91 -35 19 -62 37 -59 40 11 11 74 6 136 -10z m864 -134 c66 -29 94 -58
174 -178 38 -57 90 -129 115 -160 25 -31 50 -67 55 -80 5 -13 13 -21 18 -18
13 8 99 -166 106 -216 6 -45 -5 -100 -21 -105 -5 -1 -17 23 -27 53 -23 73
-127 294 -138 294 -14 0 -12 -5 50 -138 66 -144 81 -184 81 -220 0 -37 -12
-18 -49 75 -18 45 -47 104 -64 130 -17 26 -32 62 -33 80 -3 36 -31 93 -104
218 -52 87 -148 210 -157 201 -3 -3 21 -42 54 -88 75 -106 173 -266 173 -284
0 -3 -7 -1 -15 6 -30 25 -24 2 22 -75 102 -175 168 -345 134 -345 -12 0 -27
31 -85 169 -19 46 -33 88 -30 93 6 10 -73 158 -128 241 -42 62 -158 190 -166
183 -2 -3 22 -38 55 -78 99 -122 129 -169 165 -258 19 -47 63 -149 97 -228 35
-78 60 -149 57 -157 -12 -33 -33 -9 -81 91 -111 240 -315 505 -539 704 -53 47
-96 88 -96 93 0 4 22 7 48 7 39 0 64 -9 136 -51 49 -27 90 -48 93 -45 6 6 -43
37 -117 74 l-55 27 30 7 c55 13 192 0 242 -22z m-1566 -171 c23 -11 43 -18 46
-16 7 8 -129 81 -259 139 -65 29 -118 56 -118 61 0 4 15 7 33 7 68 -1 170 -31
283 -84 64 -31 119 -56 122 -56 14 0 -54 44 -102 66 -59 27 -75 48 -28 39 37
-8 331 -157 417 -213 47 -30 125 -101 241 -221 251 -259 332 -352 508 -580 9
-12 7 -12 -13 -2 -23 13 -23 12 -17 -15 7 -27 5 -26 -43 19 -28 26 -55 47 -61
47 -5 0 -10 7 -10 15 0 8 -33 54 -74 102 -88 104 -336 353 -336 337 0 -7 7
-17 15 -24 9 -7 30 -32 48 -54 36 -46 28 -41 -93 60 -47 39 -98 79 -115 89
l-30 19 20 -23 c11 -13 68 -61 127 -107 58 -46 122 -103 142 -126 19 -24 38
-39 42 -35 4 4 -1 17 -11 29 -10 13 27 -22 81 -77 104 -104 151 -167 274 -370
91 -150 87 -143 65 -125 -21 17 -21 17 26 -75 48 -92 142 -307 163 -371 16
-49 16 -54 -1 -88 -9 -20 -21 -35 -26 -33 -13 4 -106 282 -117 351 -17 103
-73 204 -196 357 -38 47 -102 133 -143 192 -41 59 -77 105 -79 102 -3 -2 3
-16 12 -30 9 -14 24 -37 34 -52 36 -57 -12 -7 -107 110 -90 112 -237 264 -247
255 -2 -3 21 -31 52 -64 30 -32 103 -115 161 -184 58 -69 137 -156 175 -194
45 -44 67 -73 64 -83 -4 -9 12 -41 37 -77 131 -186 231 -393 297 -619 31 -104
31 -109 15 -128 -10 -10 -23 -19 -29 -19 -6 0 -21 33 -34 73 -13 39 -31 91
-40 115 -13 34 -14 45 -4 51 24 15 -15 99 -153 331 -51 85 -116 196 -145 245
-69 116 -129 194 -177 229 -21 16 -113 105 -204 200 -92 94 -170 168 -173 165
-4 -4 84 -100 194 -215 169 -174 340 -375 340 -398 0 -3 -7 -6 -15 -6 -24 0
-18 -14 42 -107 147 -228 197 -323 284 -538 54 -135 62 -190 29 -220 -19 -17
-20 -17 -26 1 -4 11 -45 116 -91 234 -97 243 -196 446 -285 582 -63 96 -187
252 -195 245 -2 -3 36 -61 86 -129 95 -131 214 -324 209 -338 -4 -11 -93 93
-211 247 -113 147 -167 210 -167 195 0 -6 52 -80 115 -164 82 -110 113 -158
109 -171 -4 -13 5 -31 29 -56 45 -47 79 -99 167 -256 40 -71 85 -141 100 -155
29 -26 97 -182 106 -243 5 -29 1 -35 -39 -59 -56 -35 -66 -35 -79 3 -6 17 -30
71 -55 121 -34 71 -42 97 -37 123 13 73 -64 239 -196 421 -37 51 -98 145 -136
209 -38 65 -89 139 -112 164 l-44 46 23 -40 c12 -22 64 -104 115 -183 52 -78
91 -148 88 -155 -3 -8 13 -44 36 -80 44 -73 53 -92 172 -367 44 -102 94 -212
110 -245 l30 -59 -26 -23 c-32 -28 -45 -29 -52 -5 -4 9 -26 67 -50 128 -26 66
-44 127 -44 151 0 84 -68 232 -187 406 -42 62 -107 157 -143 212 -37 55 -90
125 -119 155 -59 62 -57 52 11 -41 159 -220 362 -623 486 -966 l30 -82 -75
-41 c-41 -22 -78 -40 -83 -40 -4 0 -14 24 -20 53 -39 164 -121 397 -191 540
-26 55 -27 59 -7 35 13 -16 27 -28 31 -28 11 0 -35 69 -165 245 -65 88 -141
194 -170 235 -37 51 -91 106 -175 178 -68 57 -120 96 -117 88 3 -8 60 -63 125
-121 104 -93 209 -215 209 -241 0 -5 -91 84 -203 198 -228 233 -254 252 -522
389 -275 139 -658 287 -892 344 -40 9 -73 21 -73 26 0 4 10 13 22 20 35 19
110 3 200 -42 80 -41 287 -113 296 -104 6 6 -74 40 -183 77 -81 28 -137 58
-108 58 17 0 219 -64 341 -108 61 -23 112 -37 112 -32 0 12 -23 22 -173 79
-165 63 -271 91 -343 91 -35 0 -64 4 -64 9 0 4 23 18 51 29 l51 22 161 -56
c89 -31 213 -76 275 -101 118 -46 148 -51 88 -14 -35 22 -323 128 -427 157
-32 9 -59 20 -59 24 0 8 256 98 395 139 55 16 120 37 145 46 99 36 115 31 414
-129 71 -38 127 -63 124 -55 -4 12 -149 93 -308 172 l-65 32 35 5 c29 4 66 -9
213 -77 97 -46 196 -92 218 -104z m1924 -168 c53 -82 127 -239 106 -227 -5 4
-32 50 -61 104 -29 56 -68 112 -90 132 -40 36 -140 176 -140 195 1 19 140
-135 185 -204z m-3480 9 c165 -36 342 -89 480 -142 72 -28 177 -67 235 -88
249 -90 551 -244 679 -347 86 -69 358 -354 372 -390 5 -13 15 -23 23 -23 17 0
122 -127 188 -230 71 -110 142 -260 181 -385 49 -154 110 -376 104 -381 -9
-10 -101 254 -132 379 -38 153 -67 229 -87 222 -8 -3 -32 30 -65 89 -62 113
-181 296 -191 294 -4 -1 -19 5 -35 12 -58 28 -50 9 66 -154 67 -93 154 -262
143 -274 -7 -7 -17 5 -103 133 -122 182 -204 287 -218 282 -8 -4 -31 17 -58
51 -25 31 -62 74 -82 96 -20 21 -34 40 -32 42 2 2 25 -12 51 -32 25 -21 49
-35 51 -32 15 15 -216 172 -390 265 -183 99 -203 109 -185 90 8 -9 76 -48 150
-88 74 -40 162 -91 196 -115 98 -69 296 -302 398 -469 27 -44 76 -122 108
-173 76 -119 103 -181 117 -267 6 -39 29 -113 52 -165 110 -255 135 -320 169
-440 19 -69 19 -76 4 -85 -9 -5 -45 -29 -80 -52 -35 -24 -65 -43 -68 -43 -3 0
-23 56 -45 125 -22 68 -45 134 -51 145 -12 22 -1 27 18 8 7 -7 12 -9 12 -5 0
10 -72 187 -123 303 -32 72 -42 106 -35 117 13 23 -9 61 -120 207 -164 215
-252 303 -278 277 -3 -3 30 -46 74 -96 84 -95 196 -254 254 -361 34 -64 118
-245 118 -256 0 -37 -106 136 -129 211 -24 79 -57 139 -70 130 -10 -5 -5 -27
23 -104 9 -24 13 -47 11 -52 -3 -4 10 -39 28 -76 19 -37 58 -124 87 -193 69
-165 82 -188 124 -231 25 -25 42 -58 57 -105 l21 -68 -28 -23 c-16 -13 -32
-23 -35 -23 -4 0 -9 18 -13 40 -19 117 -114 355 -203 508 -30 51 -51 97 -48
102 16 26 -55 143 -174 286 -42 50 -89 107 -104 128 -28 36 -57 48 -57 23 0
-23 69 -129 145 -222 109 -134 140 -187 196 -330 61 -154 81 -195 124 -256 20
-27 49 -96 74 -174 38 -119 40 -130 26 -152 -28 -42 -35 -32 -74 100 -11 37
-25 75 -30 86 -6 11 -7 21 -1 27 6 6 -1 32 -20 69 -16 33 -58 121 -93 195
-130 271 -305 501 -669 879 -76 79 -138 139 -138 134 0 -13 175 -205 279 -308
45 -44 81 -84 81 -88 0 -5 -7 -4 -15 3 -9 7 -18 10 -21 8 -14 -15 20 -70 156
-255 83 -111 150 -210 150 -221 0 -10 12 -29 26 -43 66 -62 137 -191 201 -369
18 -52 41 -100 49 -106 8 -6 25 -44 39 -84 22 -65 23 -75 10 -99 -18 -37 -43
-57 -55 -45 -5 5 -24 63 -41 128 -51 197 -112 339 -197 461 -27 39 -87 126
-132 195 -129 195 -242 339 -368 472 -65 67 -109 119 -99 115 32 -12 8 11 -54
54 -33 22 -76 54 -96 72 -19 17 -42 32 -49 33 -7 1 -58 33 -111 70 -54 37
-142 99 -197 136 -54 38 -100 67 -103 65 -7 -7 63 -58 262 -192 234 -158 261
-181 447 -379 132 -141 194 -216 253 -308 33 -53 6 -28 -34 30 -44 65 -113
132 -136 132 -10 0 18 -44 73 -117 90 -120 150 -205 192 -278 21 -35 21 -38 4
-24 -10 9 -27 19 -36 22 -9 3 -40 41 -69 83 -51 76 -137 170 -146 160 -3 -3
29 -49 72 -102 72 -92 131 -191 120 -203 -6 -6 0 -12 -114 126 -87 106 -166
182 -177 170 -13 -13 12 -52 96 -151 185 -220 319 -414 308 -447 -2 -7 -27 27
-55 77 -77 137 -87 154 -96 154 -22 0 23 -101 85 -193 60 -89 93 -168 137
-327 22 -80 47 -165 55 -189 22 -61 20 -94 -8 -120 -13 -12 -26 -19 -29 -14
-3 4 -17 53 -32 108 -14 55 -29 108 -31 117 -4 13 -1 16 10 12 32 -12 18 66
-32 182 -71 163 -150 300 -213 369 -30 33 -90 104 -132 158 -43 53 -96 111
-119 127 -22 16 -61 57 -85 90 -32 43 -50 59 -62 55 -12 -4 -45 28 -118 112
-98 114 -175 194 -157 163 4 -8 58 -73 119 -145 130 -153 312 -379 449 -557
61 -81 104 -128 115 -128 39 0 158 -278 217 -507 45 -179 40 -210 -11 -59 -22
66 -72 184 -111 263 -73 148 -82 186 -20 86 25 -42 36 -52 36 -37 0 24 -135
222 -246 359 -77 96 -184 206 -184 190 0 -6 41 -57 90 -115 67 -78 103 -130
140 -205 72 -147 186 -358 202 -375 8 -8 39 -86 68 -173 l54 -157 -20 -27
c-11 -15 -25 -28 -30 -30 -6 -2 -16 26 -23 62 -31 170 -91 310 -211 493 -82
126 -92 144 -65 122 31 -26 24 -1 -23 76 -70 114 -262 378 -278 382 -7 2 -52
55 -99 117 -47 63 -134 164 -193 226 -59 62 -105 115 -102 118 4 5 -195 165
-265 212 -61 42 63 -67 163 -143 56 -42 98 -78 93 -80 -5 -2 36 -52 91 -113
163 -179 301 -354 311 -395 3 -14 63 -119 133 -235 151 -252 204 -356 255
-495 21 -58 59 -161 84 -230 65 -175 66 -179 52 -205 -16 -29 -192 -215 -204
-215 -5 0 -15 33 -21 73 -6 39 -23 113 -38 162 -42 144 -40 132 -19 115 17
-14 18 -13 11 15 -13 51 -58 146 -112 235 -63 104 -124 214 -124 224 0 19 23
-13 66 -92 55 -102 104 -176 111 -168 7 6 -109 208 -192 336 -139 211 -254
354 -481 596 -106 112 -157 157 -257 226 -68 48 -161 121 -205 163 -45 43 -82
73 -82 69 0 -12 130 -130 286 -259 186 -156 302 -264 386 -361 89 -104 98
-119 69 -109 -12 3 -21 3 -21 0 0 -4 24 -34 53 -68 55 -66 247 -330 247 -341
0 -12 -21 -6 -51 17 -17 12 -60 60 -94 107 -84 111 -122 156 -129 149 -3 -3
33 -57 80 -120 196 -262 343 -514 388 -668 9 -30 25 -62 35 -72 12 -11 27 -54
41 -116 12 -54 24 -107 26 -118 4 -15 -10 -33 -51 -69 -31 -26 -58 -47 -60
-45 -1 2 -14 40 -28 84 -14 44 -28 88 -32 98 -7 16 -4 18 16 15 21 -3 26 -13
43 -80 10 -43 22 -78 27 -78 13 0 12 6 -16 116 -14 54 -25 123 -25 154 0 46
-6 66 -40 124 -22 37 -40 72 -40 76 0 4 -9 15 -21 26 -12 10 -44 57 -72 104
-29 47 -80 113 -114 147 -34 34 -81 93 -103 130 -51 84 -90 136 -97 129 -3 -3
15 -38 39 -78 63 -103 63 -102 49 -94 -7 5 -43 50 -81 101 -37 51 -91 112
-119 136 -29 24 -85 90 -127 146 -68 93 -273 318 -274 301 0 -4 61 -78 136
-165 74 -87 162 -198 195 -248 33 -49 71 -99 84 -110 45 -39 183 -282 369
-651 58 -117 113 -217 121 -224 8 -7 15 -10 15 -8 0 3 -21 54 -46 114 -46 111
-128 270 -194 379 -52 86 -64 109 -51 101 6 -4 29 -34 52 -67 42 -63 63 -74
34 -20 -8 17 -12 31 -7 31 18 0 182 -309 182 -342 0 -6 -9 0 -21 13 -24 28
-25 29 39 -126 27 -66 60 -153 72 -193 l23 -73 -28 -29 c-16 -17 -31 -30 -35
-30 -3 0 -16 42 -28 94 -28 113 -60 199 -106 281 -19 33 -60 109 -91 170 -101
194 -229 363 -375 491 -118 103 -102 41 23 -93 125 -134 214 -278 357 -577 71
-149 109 -208 110 -171 0 11 -9 49 -20 84 -16 54 -17 62 -4 49 24 -24 95 -244
101 -313 4 -50 2 -64 -15 -85 -11 -14 -22 -23 -25 -20 -2 3 -21 65 -41 139
-51 190 -144 368 -129 249 7 -53 -7 -42 -32 27 -71 196 -221 440 -279 455 -12
3 -39 31 -60 63 -22 31 -47 57 -55 57 -9 0 -26 15 -39 34 -12 18 -34 43 -47
56 -21 20 -25 21 -25 6 0 -30 31 -79 90 -141 57 -60 197 -238 259 -328 39 -58
100 -186 167 -354 27 -68 54 -123 61 -123 18 0 22 -11 34 -94 6 -42 16 -76 21
-76 5 0 7 12 4 28 -2 15 -8 50 -11 77 -4 28 -20 97 -36 154 -55 198 -18 144
51 -74 51 -162 53 -171 36 -203 -13 -25 -105 -117 -111 -110 -1 2 -9 62 -18
133 -19 153 -41 242 -73 307 -40 79 -44 63 -10 -39 38 -113 61 -202 53 -209
-3 -3 -22 46 -42 108 -30 90 -86 236 -162 426 -3 8 -15 17 -27 22 -12 4 -35
32 -50 61 -44 81 -183 292 -261 394 -115 153 -248 315 -253 311 -5 -6 26 -51
98 -141 31 -38 82 -108 115 -155 32 -47 76 -107 97 -135 48 -62 138 -202 138
-215 0 -20 -20 -9 -50 28 -16 20 -65 84 -107 142 -64 86 -78 101 -81 82 -4
-29 18 -67 99 -167 36 -45 82 -109 103 -143 24 -39 46 -62 57 -62 26 0 172
-273 234 -440 15 -41 37 -87 47 -102 11 -15 30 -74 44 -130 13 -57 27 -111 30
-120 4 -13 0 -18 -16 -18 -17 0 -19 -4 -14 -25 10 -40 -12 -29 -24 13 -6 20
-25 105 -41 188 -30 152 -58 244 -86 280 -14 18 -14 18 -15 -6 0 -17 -14 3
-44 65 -23 50 -64 126 -90 169 -65 109 -257 389 -263 382 -7 -6 38 -81 123
-207 39 -58 77 -123 84 -145 7 -21 23 -50 35 -64 29 -31 62 -97 124 -247 27
-65 60 -144 75 -175 24 -53 55 -160 79 -271 9 -42 7 -52 -10 -75 -41 -55 -45
-45 -87 205 -34 197 -51 249 -139 424 -75 148 -121 223 -153 250 -16 13 -17
12 -11 -13 4 -14 10 -34 13 -45 7 -21 -17 16 -73 112 -23 39 -58 88 -78 110
l-36 40 16 -34 c9 -18 32 -58 52 -88 19 -30 33 -57 30 -59 -5 -6 -45 47 -79
106 -37 63 -55 86 -63 78 -11 -10 47 -118 135 -250 98 -147 128 -169 65 -48
-24 46 -11 36 25 -20 17 -27 30 -55 28 -62 -3 -7 8 -32 23 -56 15 -23 62 -130
104 -237 43 -107 82 -195 86 -195 5 0 6 12 3 28 -4 17 -3 23 3 17 11 -12 77
-291 75 -319 -1 -18 -49 -76 -62 -76 -4 0 -10 26 -14 58 -18 154 -96 473 -117
481 -6 2 -30 46 -55 98 -43 93 -138 258 -220 383 -40 61 -124 153 -124 137 0
-5 34 -56 75 -115 42 -58 73 -112 70 -119 -2 -7 11 -41 30 -76 29 -53 85 -188
85 -205 0 -3 -9 3 -20 13 -30 27 -33 14 -10 -40 11 -26 19 -49 17 -51 -4 -4
-107 166 -107 177 0 5 7 9 15 9 17 0 20 26 5 35 -6 4 -17 2 -24 -4 -11 -9 -27
7 -75 71 -68 93 -88 116 -116 138 -23 19 -23 18 77 -128 169 -246 284 -448
329 -579 10 -31 26 -64 34 -72 7 -9 23 -67 34 -129 11 -61 27 -126 35 -144 15
-30 15 -33 -6 -55 -12 -13 -24 -23 -28 -23 -4 0 -19 69 -34 153 -34 181 -50
251 -78 332 -21 59 -48 105 -33 56 17 -55 -18 -3 -81 121 -37 72 -87 153 -111
180 -24 28 -66 96 -93 152 -48 100 -84 156 -94 146 -5 -6 80 -180 191 -390 93
-175 125 -273 168 -516 19 -109 44 -237 55 -284 l20 -84 -26 -38 c-51 -73 -54
-71 -54 38 0 134 -16 313 -42 464 -21 129 -42 204 -34 123 6 -60 -10 -53 -29
12 -9 30 -22 58 -29 62 -7 5 -51 87 -98 183 -263 540 -616 1022 -1085 1480
-157 155 -238 217 -373 292 -52 29 -140 81 -195 116 -139 89 -134 87 -195 109
-110 41 -256 38 -341 -6 -22 -12 -39 -18 -39 -16 0 3 13 35 30 72 l30 66 43
-6 c23 -3 69 -18 101 -32 33 -15 67 -24 77 -22 21 6 155 -57 313 -147 65 -37
120 -65 123 -63 9 9 -97 76 -232 147 -235 124 -233 123 -315 127 -41 3 -81 6
-88 9 -19 6 60 153 129 239 31 38 132 143 224 233 l168 163 56 -22 c83 -33
267 -126 430 -218 79 -45 146 -79 148 -77 11 10 -83 71 -235 151 -201 108
-244 128 -317 151 -30 10 -55 21 -55 24 0 15 319 318 400 381 110 86 377 266
460 311 90 49 231 104 315 122 99 21 291 15 420 -14z m3359 -548 c31 -60 69
-172 61 -180 -7 -8 -8 -6 -52 83 -41 83 -60 145 -43 145 5 0 21 -22 34 -48z
m13 -163 c12 -24 25 -63 29 -86 7 -44 -1 -93 -14 -93 -10 0 -72 211 -65 223
10 16 28 0 50 -44z m-54 -80 c32 -112 38 -158 22 -160 -5 0 -15 17 -22 39 -6
22 -30 80 -52 128 -46 97 -47 102 -26 84 16 -13 39 -4 29 12 -4 6 -1 9 6 6 8
-2 27 -51 43 -109z m-583 41 c12 -16 17 -30 11 -30 -6 0 -17 14 -26 30 -9 17
-13 30 -11 30 3 0 14 -13 26 -30z m-5 -62 c17 -29 17 -31 1 -19 -21 17 -40 51
-29 51 5 0 17 -15 28 -32z m572 -120 c17 -46 17 -48 -2 -62 -11 -9 -24 -14
-28 -13 -4 1 -23 39 -41 83 -32 77 -32 82 -15 93 11 6 19 21 20 34 0 24 35
-47 66 -135z m-417 -63 c43 -88 62 -140 70 -193 7 -40 10 -75 7 -78 -2 -3 -15
24 -27 58 -34 95 -90 217 -123 271 -16 26 -26 54 -23 63 3 8 1 25 -5 37 -7 15
-2 13 16 -8 14 -16 52 -84 85 -150z m-32 -67 c16 -40 37 -100 46 -133 9 -33
23 -77 31 -98 17 -42 20 -87 6 -87 -5 0 -30 51 -56 113 -26 61 -57 132 -68
157 -31 66 -31 66 -16 53 29 -28 37 -4 14 50 -4 9 -3 17 3 17 6 0 24 -33 40
-72z m-763 -525 c25 -78 31 -112 18 -99 -15 15 -93 230 -93 255 1 26 48 -73
75 -156z m-85 34 c0 -1 20 -63 46 -137 64 -191 115 -320 125 -320 16 0 10 79
-11 137 -23 67 -23 63 -10 63 28 0 102 -239 116 -372 6 -61 5 -64 -25 -92 -35
-33 -31 -39 -56 84 -21 107 -90 313 -166 498 -33 78 -59 147 -59 152 0 7 7 7
20 0 11 -6 20 -12 20 -13z m-3907 -38 c26 -5 71 -21 100 -35 62 -31 314 -189
412 -258 251 -177 551 -498 870 -931 287 -389 476 -737 612 -1131 l48 -139 0
-170 c0 -149 -4 -187 -29 -305 -15 -74 -32 -143 -37 -152 -20 -37 -193 -65
-205 -34 -3 7 2 31 11 52 39 90 27 308 -36 649 -91 492 -235 788 -594 1220
-50 61 -137 172 -193 247 -109 148 -263 309 -355 373 -32 22 -94 68 -139 103
-169 131 -309 193 -484 213 -123 14 -242 1 -322 -36 l-55 -25 6 88 c18 247
126 322 390 271z m3340 -91 l19 -33 -21 25 c-12 14 -31 39 -43 55 l-22 30 25
-22 c13 -12 32 -37 42 -55z m-3432 -268 c22 -12 106 -44 187 -72 81 -27 159
-57 174 -64 16 -8 40 -19 55 -24 27 -10 27 -10 8 6 -35 29 -157 81 -280 120
-125 40 -129 56 -9 35 150 -27 279 -96 491 -263 169 -134 272 -234 346 -338
33 -47 115 -155 182 -240 397 -506 534 -762 609 -1140 47 -236 55 -432 25
-630 -14 -95 -41 -200 -51 -200 -4 0 -8 53 -8 119 0 107 2 119 18 117 14 -1
18 11 23 84 4 47 10 110 14 140 9 67 -20 221 -72 385 -36 113 -150 365 -164
365 -10 0 -3 -18 46 -125 49 -106 95 -215 95 -228 0 -5 -7 -4 -15 3 -9 7 -18
11 -21 8 -2 -3 18 -86 46 -184 27 -97 50 -185 49 -193 0 -17 -10 7 -84 208
-64 174 -198 487 -203 473 -3 -10 41 -124 112 -287 14 -33 26 -79 26 -101 0
-24 13 -69 30 -108 17 -36 37 -95 45 -131 29 -125 46 -522 24 -584 -20 -58
-32 -38 -45 77 -5 48 -3 76 11 115 19 57 18 63 -33 247 -11 41 -30 130 -41
197 -12 68 -35 167 -52 220 -31 96 -101 248 -133 288 -19 23 -18 21 48 -132
42 -97 110 -309 121 -373 9 -55 4 -51 -25 20 -13 30 -36 69 -51 85 -18 19 -39
66 -59 130 -57 178 -125 325 -150 325 -6 0 0 -21 14 -47 35 -71 117 -297 171
-473 26 -85 49 -161 51 -169 10 -32 15 0 5 35 -13 47 -7 55 12 17 22 -42 54
-214 78 -427 22 -184 22 -189 4 -202 -10 -8 -22 -14 -26 -14 -4 0 -10 33 -13
73 -25 341 -45 467 -79 505 -8 9 -25 55 -37 102 -27 106 -37 125 -55 110 -11
-9 -20 9 -49 99 -46 143 -92 256 -122 306 l-25 40 7 -35 c3 -19 13 -47 20 -62
8 -15 14 -30 14 -33 0 -20 -29 24 -115 173 -119 204 -227 377 -261 417 -35 41
-29 30 68 -130 47 -77 131 -218 188 -313 57 -96 109 -176 116 -179 21 -8 129
-307 170 -470 10 -40 23 -73 30 -73 23 0 84 -261 104 -445 l11 -100 -28 -22
c-15 -12 -30 -19 -34 -15 -3 4 -14 97 -23 208 -16 196 -43 345 -65 367 -15 15
-14 5 8 -88 18 -76 19 -97 4 -82 -13 13 -50 182 -42 191 4 5 -1 32 -11 60 -10
28 -37 114 -60 191 -24 77 -55 173 -71 212 -30 76 -89 187 -95 180 -2 -2 23
-75 57 -163 54 -141 119 -321 119 -331 0 -2 -11 4 -25 14 -13 10 -32 40 -41
68 -46 137 -120 279 -263 505 -91 144 -124 201 -125 220 -1 21 -78 120 -90
116 -6 -1 -23 12 -38 30 -47 53 -212 201 -201 179 6 -11 74 -81 150 -155 125
-121 144 -145 190 -230 27 -52 87 -153 132 -224 108 -169 157 -267 229 -461
63 -168 84 -253 103 -425 16 -139 18 -482 3 -487 -8 -3 -13 53 -17 184 -15
484 -129 872 -362 1228 -135 208 -295 382 -570 624 -179 157 -294 241 -471
343 -179 104 -258 139 -389 173 -124 32 -177 32 -70 -1 148 -44 344 -116 355
-129 7 -8 -16 -5 -65 11 -42 13 -81 24 -86 24 -6 0 -43 16 -83 35 -67 33 -151
56 -200 54 -21 0 -21 -1 -1 -9 11 -4 49 -15 85 -23 36 -8 81 -22 100 -30 l35
-15 -38 -1 c-100 -2 -265 -40 -340 -78 -31 -16 -46 -11 -29 9 5 7 28 48 51 91
50 95 124 206 182 271 40 46 44 48 82 42 61 -10 221 -73 342 -135 133 -67 138
-69 100 -36 -43 38 -236 130 -335 160 -47 15 -93 30 -103 33 -15 6 -1 25 85
112 127 130 193 166 306 169 25 1 59 -7 83 -19z m3546 -217 c101 -180 159
-307 202 -450 l23 -73 -21 -33 c-11 -18 -31 -43 -45 -56 l-25 -24 -6 29 c-4
16 -20 78 -36 138 -17 60 -27 111 -24 114 3 3 5 0 5 -7 0 -7 5 -9 10 -6 17 10
11 77 -12 146 -12 35 -50 120 -85 188 -35 68 -63 128 -63 132 0 27 23 -3 77
-98z m-85 -44 c30 -53 58 -109 61 -125 6 -31 40 -147 53 -178 15 -39 -14 -5
-54 61 -27 46 -40 80 -40 104 0 38 -24 92 -66 147 -13 19 -22 40 -20 47 3 7
-2 27 -10 44 -9 16 -16 33 -16 37 0 14 38 -43 92 -137z m848 69 c0 -10 -4 -18
-10 -18 -5 0 -10 6 -10 14 0 7 -2 29 -5 47 l-5 34 14 -30 c9 -16 15 -38 16
-47z m-1292 -90 c17 -22 32 -43 32 -46 -1 -12 -61 62 -76 93 -8 17 -9 22 -2
11 7 -10 28 -36 46 -58z m590 -269 c-3 -8 -7 -3 -11 10 -4 17 -3 21 5 13 5 -5
8 -16 6 -23z m26 -228 c19 -76 25 -116 18 -123 -12 -12 -32 -2 -32 15 0 13
-71 248 -85 282 -5 12 7 4 32 -20 36 -36 42 -50 67 -154z m-3839 69 c108 -34
225 -100 372 -211 173 -131 285 -231 459 -412 145 -150 261 -294 328 -404 66
-111 183 -364 224 -488 48 -143 65 -238 92 -531 23 -252 18 -309 -27 -356 -15
-15 -30 -28 -35 -28 -4 0 -8 26 -8 58 0 69 -25 164 -74 291 -20 51 -45 130
-57 174 -21 83 -113 286 -189 417 -126 219 -241 370 -439 580 -108 113 -151
151 -248 215 -64 43 -151 105 -193 139 -183 150 -424 256 -579 256 -66 0 -154
-21 -213 -51 -49 -25 -52 -22 -69 74 -9 55 -8 84 2 140 l14 72 60 28 c115 55
183 67 355 63 125 -3 168 -8 225 -26z m3504 -29 c33 -63 40 -89 15 -56 -25 33
-65 115 -56 115 5 0 23 -27 41 -59z m39 -150 c11 -16 24 -42 28 -57 3 -16 15
-58 25 -93 20 -67 24 -117 11 -125 -8 -5 -102 266 -102 293 0 19 15 12 38 -18z
m-3891 -221 c59 -27 128 -52 153 -55 l45 -6 -53 25 c-29 14 -80 35 -112 47
-70 25 -79 44 -17 34 194 -30 326 -98 580 -300 41 -33 108 -80 148 -105 220
-136 582 -602 734 -945 54 -122 115 -276 115 -291 0 -26 -38 41 -122 215 -96
200 -185 357 -195 347 -3 -3 40 -93 96 -200 56 -108 97 -196 92 -196 -6 0 -13
5 -16 10 -8 12 -35 13 -35 1 0 -5 27 -49 60 -98 58 -86 61 -93 120 -313 33
-124 60 -228 60 -231 0 -7 -76 -59 -85 -59 -3 0 -5 14 -5 31 0 18 -5 60 -12
95 -9 51 -9 69 2 88 10 20 10 36 -3 95 -17 72 -42 128 -121 265 -25 43 -62
122 -82 175 -59 154 -140 301 -165 301 -3 0 32 -75 78 -166 46 -91 83 -170 83
-176 0 -5 -9 -6 -20 -3 -11 3 -20 4 -20 2 0 -2 22 -41 50 -87 99 -168 170
-379 185 -556 l7 -81 -37 -22 c-21 -12 -40 -20 -42 -17 -3 2 -11 53 -19 113
-7 59 -19 130 -25 156 -13 57 -6 73 11 23 24 -73 48 -26 30 59 -6 30 -34 98
-62 152 -117 225 -265 524 -255 514 44 -44 -5 55 -85 174 -48 70 -148 194
-174 215 -16 14 -16 13 -6 -5 6 -11 48 -68 94 -127 106 -136 150 -209 154
-253 1 -20 34 -95 73 -170 49 -93 71 -145 71 -170 0 -23 19 -71 56 -141 30
-58 53 -108 50 -111 -3 -3 -8 2 -12 11 -3 9 -9 16 -14 16 -4 0 1 -25 12 -55
25 -75 70 -337 66 -388 -2 -29 -8 -42 -18 -42 -11 0 -17 16 -22 60 -3 34 -11
85 -16 115 -7 36 -7 61 0 73 18 34 -26 186 -93 320 -18 34 -56 104 -86 155
-52 88 -123 232 -123 248 0 4 7 -1 15 -12 8 -10 15 -15 15 -10 0 19 -79 136
-158 234 -64 80 -78 102 -60 97 15 -4 -11 27 -74 90 -54 53 -103 93 -108 90
-6 -4 -56 27 -112 69 -97 73 -133 90 -92 45 10 -12 69 -54 129 -94 117 -77
156 -114 226 -210 24 -33 76 -102 115 -152 53 -68 78 -111 95 -160 12 -38 53
-138 91 -223 138 -308 176 -417 203 -585 20 -121 19 -165 -2 -181 -10 -7 -23
-14 -29 -14 -6 0 -15 57 -22 148 -7 81 -21 188 -32 237 -25 110 -88 247 -137
292 -36 34 -118 203 -110 227 5 15 -98 168 -188 276 -75 90 -89 121 -25 55 19
-19 38 -35 44 -35 14 0 -30 44 -104 105 -108 88 -379 284 -374 270 6 -15 108
-98 189 -152 33 -22 81 -59 106 -81 53 -47 252 -299 254 -322 1 -8 17 -44 37
-80 20 -36 62 -119 93 -185 41 -88 49 -111 30 -87 -15 17 -32 32 -38 32 -7 1
-34 47 -61 102 -84 173 -62 91 30 -108 142 -310 184 -459 184 -654 l0 -97 -35
-18 c-19 -11 -37 -17 -39 -14 -3 3 3 22 13 42 25 50 35 183 21 286 -14 102
-44 189 -120 346 -99 205 -224 352 -455 532 -180 141 -296 210 -553 332 -178
84 -276 117 -384 131 -80 10 -105 7 -79 -9 9 -6 5 -10 -16 -15 -15 -4 -36 -15
-46 -23 -9 -9 -19 -14 -22 -11 -9 9 18 130 30 134 30 12 259 -42 349 -81 14
-6 17 -5 12 3 -23 37 -200 92 -297 92 -32 0 -60 4 -63 9 -7 11 29 130 47 154
12 18 16 18 74 3 34 -9 110 -36 169 -61 59 -25 112 -44 117 -42 18 6 -192 98
-265 116 -77 20 -93 38 -48 54 23 9 90 -15 289 -100 10 -5 12 -2 6 7 -14 22
-173 91 -238 102 -34 7 -64 13 -65 14 -7 5 60 135 72 140 18 7 145 -41 250
-93 94 -47 121 -52 59 -11 -59 39 -98 57 -201 95 -53 19 -98 36 -100 38 -2 2
1 12 7 24 11 19 13 19 64 5 28 -9 94 -36 146 -60 51 -24 99 -44 105 -44 25 1
-87 60 -187 100 -81 32 -107 47 -105 59 3 11 13 15 33 14 35 -3 282 -123 374
-183 66 -43 98 -46 46 -4 -39 32 -367 204 -388 204 -23 0 -32 20 -15 36 13 13
101 52 120 54 4 0 56 -22 115 -50z m3506 -40 c8 -32 -10 -23 -22 11 -9 26 -9
29 3 20 8 -7 16 -21 19 -31z m-638 -193 c21 -37 35 -70 32 -73 -5 -5 -67 103
-81 141 -13 36 10 3 49 -68z m149 -334 c9 -25 14 -48 12 -50 -3 -4 -46 90 -46
102 0 19 20 -12 34 -52z m-84 -116 c0 -7 13 -39 29 -72 40 -81 89 -334 73
-370 -6 -14 -15 -25 -20 -25 -5 0 -18 55 -30 123 -11 67 -24 130 -28 140 -4
12 -1 17 10 17 13 0 9 17 -19 100 -38 109 -40 114 -25 105 6 -3 10 -12 10 -18z
m-3131 -93 c276 -75 540 -227 877 -505 157 -131 233 -233 325 -438 78 -174 94
-243 94 -401 0 -121 -2 -139 -22 -177 -44 -81 -131 -125 -285 -144 -99 -12
-215 -6 -338 17 -267 50 -702 321 -840 523 -73 109 -131 255 -146 373 l-7 53
61 -55 c49 -45 70 -74 111 -156 76 -153 171 -241 379 -353 62 -33 143 -82 180
-107 196 -138 479 -206 604 -145 126 61 161 194 89 346 -33 70 -76 128 -181
245 -42 47 -86 100 -99 118 -12 17 -29 32 -36 32 -8 0 -45 23 -82 52 -72 54
-206 143 -338 223 -192 116 -399 235 -409 235 -19 0 -135 58 -172 86 -67 52
-83 120 -38 173 22 26 28 29 51 20 22 -8 24 -7 19 7 -6 15 0 16 51 10 32 -4
100 -18 152 -32z m3031 -82 c12 -26 37 -117 57 -202 19 -85 37 -165 40 -178 7
-28 -46 -102 -58 -81 -4 8 -15 74 -24 147 -14 106 -15 136 -4 148 14 17 -1 98
-32 172 -22 50 -23 56 -9 47 5 -3 19 -27 30 -53z m-2984 -308 c60 -37 141 -81
179 -99 89 -41 111 -66 120 -135 4 -30 16 -66 26 -80 38 -50 69 -165 90 -331
11 -90 24 -177 29 -194 l8 -30 1 31 c1 16 -6 81 -14 144 -8 62 -13 116 -10
118 8 9 51 -100 68 -173 22 -92 48 -248 42 -253 -9 -9 -127 54 -304 161 -156
94 -200 126 -276 202 -69 68 -101 108 -129 165 -26 50 -62 99 -109 147 l-70
72 38 63 c71 117 158 228 170 217 2 -2 7 -65 11 -139 10 -191 25 -219 19 -35
-3 83 -8 165 -11 183 -4 18 -2 32 4 32 5 0 58 -30 118 -66z m2918 -302 c5 -8
-2 -28 -19 -53 -14 -23 -28 -39 -30 -37 -3 3 21 259 26 268 1 3 5 -33 8 -80 4
-47 10 -91 15 -98z m-2568 90 c17 -13 23 -32 27 -89 3 -40 3 -73 -1 -73 -8 0
-56 112 -66 153 -8 32 8 36 40 9z m2194 -97 c0 -64 -24 -173 -41 -190 -7 -7
-9 1 -5 25 19 112 26 170 26 210 0 33 3 41 10 30 5 -8 10 -42 10 -75z m-103
38 c-3 -10 -5 -4 -5 12 0 17 2 24 5 18 2 -7 2 -21 0 -30z m-1861 -94 c45 -42
57 -89 47 -191 -8 -85 -9 -91 -22 -69 -7 13 -17 71 -22 129 -4 58 -13 110 -20
116 -9 8 -10 -4 -6 -51 6 -70 -5 -82 -23 -25 -22 68 -52 132 -63 132 -6 0 -7
-23 -3 -65 4 -36 4 -65 1 -65 -17 0 -91 191 -78 203 6 6 160 -87 189 -114z
m1539 -56 c18 -67 33 -103 41 -103 11 0 14 -18 14 -74 0 -40 2 -86 6 -102 4
-25 0 -32 -28 -49 -18 -11 -36 -21 -40 -23 -5 -2 -8 47 -8 110 0 102 -11 245
-26 338 -9 63 12 11 41 -97z m-1639 -144 c8 -33 13 -65 11 -72 -10 -27 -87
178 -86 228 0 31 57 -87 75 -156z m224 52 c11 -30 18 -56 16 -58 -6 -6 -76
132 -76 149 1 23 38 -35 60 -91z m-180 27 c50 -116 68 -230 23 -143 -19 37
-63 166 -63 186 0 25 20 3 40 -43z m730 -23 c0 -5 -5 -3 -10 5 -5 8 -10 20
-10 25 0 6 5 3 10 -5 5 -8 10 -19 10 -25z m-490 -12 c45 -51 71 -114 77 -187
7 -77 -3 -68 -51 49 -32 76 -44 105 -74 168 -10 21 20 2 48 -30z m-52 -96 c21
-54 42 -179 42 -243 0 -49 -16 -35 -52 44 -35 78 -58 176 -58 252 l1 55 23
-27 c13 -15 33 -51 44 -81z m1092 6 c34 -104 51 -235 32 -247 -15 -9 -47 99
-61 209 -7 50 -14 100 -17 113 -2 12 0 22 5 22 6 0 24 -44 41 -97z m-1210
-237 c11 -66 23 -122 27 -125 3 -3 3 28 0 69 -7 93 5 82 47 -42 16 -45 35 -90
42 -98 20 -20 17 -4 -10 78 -14 40 -28 93 -31 119 l-6 48 19 -24 c48 -59 112
-227 96 -253 -7 -10 -39 -3 -136 30 l-77 26 -11 66 c-6 36 -14 78 -17 95 -5
28 -4 29 13 15 16 -14 17 -13 10 5 -23 57 -46 155 -45 190 l1 40 29 -60 c18
-39 36 -102 49 -179z m786 159 c19 -51 13 -72 -9 -28 -22 43 -30 73 -19 73 6
0 18 -20 28 -45z m-603 5 c3 -11 3 -20 1 -20 -2 0 -8 9 -14 20 -6 11 -7 20 -2
20 6 0 12 -9 15 -20z m-152 -11 c14 -26 29 -129 18 -129 -9 0 -35 66 -43 113
-8 41 6 50 25 16z m260 -46 c6 -16 19 -73 30 -127 22 -115 28 -136 38 -136 4
0 2 28 -5 63 -8 34 -14 78 -14 97 0 30 2 32 14 20 8 -8 20 -42 25 -75 6 -33
13 -69 16 -81 5 -15 -3 -29 -27 -53 l-33 -32 -3 28 c-2 15 -16 78 -33 139 -26
100 -37 184 -24 184 3 0 10 -12 16 -27z m-54 -128 c47 -106 77 -194 69 -202
-3 -3 -27 -8 -54 -11 l-48 -4 -17 138 c-10 77 -17 155 -17 174 0 32 1 33 14
15 7 -11 31 -60 53 -110z m542 53 c10 -29 12 -30 25 -13 11 16 14 6 25 -81 6
-54 14 -119 17 -142 4 -35 2 -47 -13 -58 -42 -31 -49 -20 -51 79 -1 87 -17
220 -28 239 -3 4 -1 8 4 8 6 0 15 -14 21 -32z m-359 -125 c0 -22 -2 -25 -10
-13 -13 20 -13 40 0 40 6 0 10 -12 10 -27z"/>
<path d="M8165 8585 c39 -24 125 -58 125 -49 0 5 -146 74 -157 74 -4 0 10 -12
32 -25z"/>
<path d="M7752 8544 c9 -9 272 -113 276 -109 8 8 -88 55 -171 84 -85 30 -117
37 -105 25z"/>
<path d="M7570 8515 c0 -9 255 -126 269 -123 8 2 -44 31 -115 66 -119 57 -154
70 -154 57z"/>
<path d="M8659 8353 c69 -82 252 -269 242 -248 -14 29 -246 281 -266 289 -9 3
1 -15 24 -41z"/>
<path d="M8270 8286 c0 -27 282 -338 295 -325 3 4 -32 46 -77 95 -46 49 -113
123 -150 164 -38 41 -68 71 -68 66z"/>
<path d="M8276 8038 c82 -116 254 -315 254 -295 0 3 -59 77 -131 164 -72 87
-134 164 -136 171 -3 6 -10 12 -15 12 -5 0 7 -24 28 -52z"/>
<path d="M8890 8471 c0 -12 68 -41 95 -41 14 0 25 5 25 10 0 6 -8 10 -19 10
-10 0 -37 7 -60 15 -22 8 -41 11 -41 6z"/>
<path d="M8780 8440 c14 -11 36 -23 50 -26 14 -3 38 -12 54 -21 16 -9 26 -11
22 -4 -9 14 -120 71 -138 71 -7 0 -2 -9 12 -20z"/>
<path d="M9020 8216 c0 -34 233 -365 268 -380 14 -6 -17 42 -128 194 -42 58
-91 125 -108 149 -18 25 -32 42 -32 37z"/>
<path d="M6865 8433 c6 -6 46 -22 90 -38 44 -15 129 -52 188 -82 60 -30 113
-53 119 -51 17 6 -172 106 -258 137 -90 32 -154 48 -139 34z"/>
<path d="M6794 8369 c28 -17 370 -139 375 -134 11 12 -273 120 -364 139 -26 5
-27 5 -11 -5z"/>
<path d="M6675 8345 c58 -28 397 -156 401 -152 7 7 -188 94 -294 131 -104 36
-164 48 -107 21z"/>
<path d="M6495 8311 c11 -5 92 -36 181 -69 89 -33 189 -74 222 -91 70 -35 99
-40 62 -10 -39 32 -164 87 -294 130 -113 37 -217 61 -171 40z"/>
<path d="M7896 8129 c10 -12 52 -46 91 -76 40 -29 77 -62 83 -74 6 -11 15 -17
20 -14 10 6 91 -57 190 -150 119 -112 126 -108 10 6 -58 57 -167 151 -243 207
-75 57 -140 108 -143 113 -3 5 -10 9 -16 9 -6 0 -3 -10 8 -21z"/>
<path d="M7719 7915 c77 -91 335 -364 339 -360 7 7 -98 128 -222 255 -121 123
-172 170 -117 105z"/>
<path d="M7747 7719 c95 -95 175 -170 179 -166 9 9 -291 309 -326 326 -14 7
52 -65 147 -160z"/>
<path d="M7460 7813 c0 -5 35 -36 78 -70 42 -35 112 -99 155 -143 43 -44 83
-80 90 -80 17 1 -217 228 -275 268 -27 18 -48 29 -48 25z"/>
<path d="M7437 7683 c126 -118 294 -265 299 -261 6 7 -171 175 -253 240 -90
72 -110 81 -46 21z"/>
<path d="M7796 7369 c4 -8 45 -66 89 -129 113 -159 131 -190 111 -190 -21 0
-20 -9 5 -45 60 -88 146 -283 243 -550 46 -127 63 -165 75 -165 15 0 -6 80
-48 185 -22 55 -49 142 -61 194 -12 51 -33 118 -46 147 -14 32 -19 54 -13 56
6 2 -16 44 -48 93 -33 50 -86 130 -119 180 -61 93 -168 227 -186 234 -7 2 -8
-2 -2 -10z"/>
<path d="M8363 6940 c3 -8 34 -82 70 -165 35 -82 74 -180 86 -216 21 -65 50
-117 51 -91 0 30 -77 245 -121 337 -42 86 -101 179 -86 135z"/>
<path d="M5650 8162 c0 -4 75 -34 168 -66 218 -77 351 -129 436 -172 72 -37
94 -40 52 -6 -43 33 -229 110 -445 183 -230 77 -211 72 -211 61z"/>
<path d="M5540 8136 c0 -2 34 -16 76 -30 42 -15 157 -63 256 -107 165 -72 296
-121 273 -101 -6 5 -30 17 -55 27 -25 10 -110 49 -190 86 -184 84 -360 146
-360 125z"/>
<path d="M5475 8055 c17 -8 80 -32 140 -54 193 -70 349 -128 390 -146 66 -28
26 1 -60 43 -101 50 -250 106 -380 143 -109 31 -137 36 -90 14z"/>
<path d="M5300 8011 c28 -17 693 -271 697 -267 8 8 -98 58 -220 102 -64 24
-154 59 -200 77 -134 56 -320 114 -277 88z"/>
<path d="M5206 7972 c15 -14 408 -181 500 -213 170 -59 102 -21 -152 84 -305
126 -374 151 -348 129z"/>
<path d="M5115 7911 c11 -5 47 -19 80 -31 33 -13 119 -50 190 -82 158 -72 276
-120 282 -114 12 11 -361 180 -482 217 -60 19 -109 25 -70 10z"/>
<path d="M5116 7815 c10 -8 23 -15 28 -15 5 0 112 -45 239 -101 126 -55 231
-98 235 -95 9 9 -317 162 -416 195 -107 35 -113 37 -86 16z"/>
<path d="M4980 7780 c14 -11 59 -34 100 -51 41 -17 146 -62 233 -101 87 -38
161 -67 164 -64 8 8 -154 86 -341 165 -93 39 -171 71 -175 71 -3 0 5 -9 19
-20z"/>
<path d="M7020 7669 c63 -33 130 -69 149 -80 18 -11 36 -18 38 -15 4 4 -64 45
-198 120 -36 20 -74 36 -85 36 -10 0 33 -28 96 -61z"/>
<path d="M4770 7692 c0 -11 127 -81 310 -172 80 -40 157 -81 172 -91 36 -26
98 -51 98 -40 0 8 -86 55 -385 212 -66 34 -133 71 -150 81 -33 20 -45 22 -45
10z"/>
<path d="M5000 7667 c0 -3 43 -28 97 -57 53 -28 121 -68 152 -89 77 -52 92
-58 51 -21 -75 67 -300 192 -300 167z"/>
<path d="M4700 7623 c0 -12 28 -28 190 -111 175 -89 262 -140 314 -181 21 -17
44 -31 50 -31 15 1 -34 40 -124 100 -84 56 -430 235 -430 223z"/>
<path d="M4740 7509 c199 -106 356 -200 425 -255 37 -30 74 -54 83 -54 30 0
-180 153 -318 232 -105 60 -271 138 -292 138 -7 0 39 -28 102 -61z"/>
<path d="M6730 7563 c1 -4 51 -38 113 -76 62 -37 163 -99 225 -137 119 -74
154 -84 49 -13 -168 112 -387 241 -387 226z"/>
<path d="M6840 7567 c0 -7 108 -72 290 -177 91 -53 157 -118 276 -275 208
-275 418 -630 488 -823 31 -87 33 -102 6 -71 -32 40 -23 3 26 -100 25 -53 54
-133 65 -179 10 -45 27 -99 36 -120 l17 -37 4 28 c2 15 -8 67 -22 117 -27 91
-33 150 -17 150 5 0 11 -6 14 -12 2 -7 8 -10 12 -6 4 4 -7 37 -24 75 -16 37
-47 113 -67 168 -51 141 -162 365 -231 468 -82 120 -183 247 -198 247 -6 0
-43 39 -81 88 -38 48 -89 108 -113 135 -44 47 -42 61 5 31 13 -9 27 -15 29
-12 5 4 -135 91 -362 224 -133 79 -153 89 -153 81z"/>
<path d="M4564 7471 c20 -16 80 -48 134 -71 149 -66 393 -187 416 -208 29 -26
46 -35 46 -24 0 13 -100 81 -190 130 -85 46 -419 202 -433 202 -5 0 7 -13 27
-29z"/>
<path d="M6654 7451 c4 -5 84 -56 179 -112 94 -56 204 -123 242 -149 90 -59
95 -62 95 -56 0 14 -160 122 -304 205 -189 110 -220 126 -212 112z"/>
<path d="M4455 7422 c11 -10 585 -342 593 -342 15 0 -30 36 -92 74 -139 84
-362 214 -411 239 -59 29 -105 44 -90 29z"/>
<path d="M6520 7396 c0 -8 163 -115 275 -181 233 -137 364 -243 498 -404 15
-19 30 -31 34 -28 8 8 -87 117 -275 317 -195 207 -231 232 -72 49 56 -64 55
-65 -15 -18 -44 29 -388 239 -423 258 -12 6 -22 9 -22 7z"/>
<path d="M6991 7363 c6 -15 489 -508 489 -498 0 14 -111 137 -274 303 -150
152 -224 220 -215 195z"/>
<path d="M4525 7166 c66 -34 155 -82 198 -105 43 -24 80 -41 82 -39 8 7 -215
140 -293 174 -124 54 -117 39 13 -30z"/>
<path d="M6280 7207 c0 -9 291 -208 380 -261 165 -98 122 -61 -105 90 -210
139 -275 179 -275 171z"/>
<path d="M4320 7162 c0 -4 102 -57 227 -118 217 -106 256 -118 109 -32 -115
67 -336 166 -336 150z"/>
<path d="M4250 7106 c0 -3 60 -33 133 -68 72 -34 179 -86 237 -115 118 -58 94
-33 -38 40 -75 42 -308 147 -326 147 -3 0 -6 -2 -6 -4z"/>
<path d="M6296 7051 c24 -24 379 -271 388 -271 13 1 13 0 -119 100 -134 102
-319 218 -269 171z"/>
<path d="M4160 7021 c0 -5 37 -23 83 -41 45 -17 156 -69 246 -116 90 -46 166
-83 168 -80 6 6 -121 84 -216 132 -101 50 -281 118 -281 105z"/>
<path d="M6314 6910 c128 -96 270 -198 315 -225 39 -23 -7 19 -67 61 -87 62
-287 209 -334 245 -20 16 -42 29 -49 29 -6 0 54 -50 135 -110z"/>
<path d="M4080 6972 c0 -5 44 -28 98 -51 53 -23 176 -84 272 -135 165 -88 217
-109 160 -66 -14 11 -68 41 -120 68 -52 27 -157 81 -232 120 -127 67 -178 85
-178 64z"/>
<path d="M6630 6934 c0 -6 86 -99 190 -205 105 -107 186 -183 179 -170 -15 31
-368 390 -369 375z"/>
<path d="M4022 6874 c3 -2 86 -45 184 -94 98 -49 221 -112 272 -140 99 -54
115 -51 28 4 -114 74 -519 266 -484 230z"/>
<path d="M6060 6827 c0 -7 185 -156 298 -240 103 -77 164 -116 132 -85 -18 18
-353 276 -397 307 -18 12 -33 20 -33 18z"/>
<path d="M6560 6804 c0 -4 23 -33 51 -65 27 -32 51 -62 51 -66 0 -4 21 -25 45
-47 24 -21 86 -91 137 -155 84 -105 153 -180 131 -141 -36 62 -394 480 -411
480 -2 0 -4 -3 -4 -6z"/>
<path d="M3946 6761 c5 -5 50 -27 99 -49 79 -35 343 -182 415 -232 14 -9 36
-23 50 -30 25 -13 25 -13 6 8 -49 56 -345 225 -499 285 -72 29 -87 32 -71 18z"/>
<path d="M5930 6747 c16 -15 333 -262 360 -280 50 -32 -106 103 -206 179 -114
87 -189 137 -154 101z"/>
<path d="M5703 6629 c19 -29 115 -115 249 -223 54 -44 94 -84 91 -89 -3 -6 -1
-7 5 -3 6 3 28 -8 49 -26 29 -26 33 -27 18 -8 -27 34 -97 98 -239 216 -66 54
-135 112 -154 128 -32 28 -34 28 -19 5z"/>
<path d="M6249 6602 c6 -11 59 -67 119 -123 60 -57 157 -161 216 -231 153
-182 157 -168 8 22 -74 94 -295 320 -334 341 -17 9 -18 8 -9 -9z"/>
<path d="M5640 6526 c22 -28 369 -306 364 -292 -6 16 -97 96 -214 187 -127 99
-169 129 -150 105z"/>
<path d="M5541 6423 c2 -5 60 -57 129 -114 153 -128 232 -206 332 -329 74 -90
241 -272 221 -240 -20 32 -134 169 -207 248 -71 77 -101 117 -57 78 11 -10 24
-16 30 -15 5 2 -25 32 -67 67 -42 34 -119 100 -170 146 -93 84 -218 178 -211
159z"/>
<path d="M5416 6323 c12 -10 62 -46 110 -80 49 -34 131 -99 182 -145 145 -128
165 -140 67 -39 -101 104 -223 200 -317 249 -35 19 -53 25 -42 15z"/>
<path d="M6167 6163 c277 -323 446 -546 542 -715 31 -55 48 -75 56 -66 8 8
-94 205 -150 288 -129 191 -207 291 -220 280 -9 -8 -34 16 -97 93 -104 126
-205 234 -231 248 -10 6 34 -52 100 -128z"/>
<path d="M5420 6186 c8 -11 58 -51 110 -89 52 -39 130 -102 173 -140 42 -39
80 -68 82 -65 15 14 -225 216 -350 294 -29 18 -30 18 -15 0z"/>
<path d="M5330 6146 c0 -3 71 -65 158 -139 86 -74 168 -146 181 -161 14 -14
32 -26 41 -26 20 0 164 -170 191 -227 18 -37 19 -48 9 -78 -6 -19 -15 -35 -18
-34 -4 0 -38 41 -77 90 -71 91 -151 176 -159 168 -2 -2 45 -62 105 -134 60
-71 130 -161 155 -198 53 -78 73 -83 26 -6 -34 53 -39 69 -22 69 6 0 10 14 10
30 0 43 15 37 52 -20 30 -45 48 -62 48 -42 0 4 -20 36 -45 71 -28 40 -45 75
-45 93 0 24 -3 28 -18 24 -14 -5 -29 10 -66 64 -48 70 -128 150 -150 150 -6 0
-41 30 -76 66 -93 94 -300 260 -300 240z"/>
<path d="M5250 6095 c0 -9 229 -227 290 -276 91 -73 86 -59 -10 28 -47 43
-126 117 -177 165 -84 81 -103 96 -103 83z"/>
<path d="M6695 6066 c19 -45 77 -144 137 -233 26 -40 48 -75 48 -79 0 -18 -40
31 -96 118 -35 53 -68 99 -74 103 -12 7 81 -171 117 -225 19 -29 21 -36 8 -38
-22 -5 -19 -12 25 -80 44 -69 163 -301 208 -407 37 -88 79 -217 87 -272 4 -23
13 -47 21 -54 18 -14 18 -19 -27 159 -26 103 -30 162 -10 162 4 0 22 -51 39
-112 35 -130 50 -173 58 -166 15 15 -95 366 -133 427 -26 40 -112 216 -108
219 5 5 84 -118 117 -179 12 -24 32 -68 43 -98 11 -30 26 -57 34 -59 24 -8 3
67 -45 155 -24 44 -44 88 -44 96 0 17 -200 351 -265 441 -49 69 -130 156 -144
156 -6 0 -4 -15 4 -34z m125 -137 c23 -33 39 -63 37 -65 -3 -3 -25 24 -51 60
-25 37 -41 66 -37 66 5 0 28 -27 51 -61z"/>
<path d="M5225 5948 c27 -24 110 -100 185 -170 74 -70 136 -125 139 -123 6 7
-144 164 -221 231 -39 34 -89 72 -112 84 l-41 21 50 -43z"/>
<path d="M5930 5904 c9 -10 47 -55 86 -99 38 -44 93 -108 122 -143 29 -35 52
-59 52 -54 0 27 -199 262 -255 301 -19 14 -19 14 -5 -5z"/>
<path d="M5200 5812 c0 -5 88 -92 195 -192 107 -101 223 -220 258 -264 34 -45
100 -129 146 -188 46 -60 86 -108 88 -108 19 0 -185 272 -299 400 -106 118
-388 374 -388 352z"/>
<path d="M5645 5585 c36 -41 106 -130 156 -198 106 -142 99 -133 99 -120 0 6
-18 38 -40 71 -22 33 -40 70 -40 82 0 15 -4 20 -15 17 -10 -4 -37 23 -84 86
-60 80 -117 137 -136 137 -3 0 24 -34 60 -75z"/>
<path d="M5630 5267 c0 -12 111 -216 121 -223 14 -8 -6 38 -50 116 -45 79 -71
118 -71 107z"/>
<path d="M3765 6152 c6 -5 64 -30 130 -57 66 -26 154 -65 195 -85 41 -21 93
-45 115 -54 l40 -16 -25 22 c-43 36 -363 180 -430 192 -19 4 -30 3 -25 -2z"/>
<path d="M3710 6081 c0 -4 42 -22 93 -40 50 -18 152 -62 225 -96 73 -35 130
-60 127 -54 -11 16 -156 98 -230 128 -82 35 -215 73 -215 62z"/>
<path d="M3590 6052 c0 -5 23 -14 51 -20 85 -20 252 -90 340 -142 45 -28 84
-48 86 -46 11 10 -84 75 -172 117 -143 68 -305 116 -305 91z"/>
<path d="M3520 5982 c0 -5 28 -17 63 -27 93 -26 220 -80 331 -141 106 -59 134
-65 64 -13 -96 71 -458 214 -458 181z"/>
<path d="M3460 5856 c0 -2 32 -14 70 -25 39 -12 130 -48 202 -81 90 -41 125
-53 112 -39 -48 53 -384 180 -384 145z"/>
<path d="M3365 5780 c-3 -5 4 -12 17 -14 139 -29 229 -61 377 -135 87 -44 91
-46 91 -32 0 23 -298 155 -399 177 -79 17 -78 16 -86 4z"/>
<path d="M4731 5593 c0 -4 39 -39 85 -78 47 -38 139 -125 205 -192 65 -68 119
-119 119 -115 0 19 -129 159 -220 240 -105 93 -190 159 -189 145z"/>
<path d="M3210 5572 c0 -5 16 -9 35 -10 19 -1 35 3 35 8 0 6 -16 10 -35 10
-19 0 -35 -4 -35 -8z"/>
<path d="M4710 5445 c102 -111 271 -264 369 -335 66 -46 19 1 -182 182 -233
211 -263 235 -187 153z"/>
<path d="M4590 5422 c0 -11 305 -295 342 -319 31 -20 -246 254 -299 295 -24
19 -43 29 -43 24z"/>
<path d="M4608 5263 c52 -63 237 -240 266 -254 25 -13 -212 229 -269 274 l-40
32 43 -52z"/>
<path d="M4510 5204 c15 -21 252 -244 303 -284 l32 -25 -34 43 c-54 69 -336
319 -301 266z"/>
<path d="M4941 5150 c6 -14 65 -106 130 -205 64 -99 144 -229 176 -289 32 -60
64 -111 71 -114 36 -12 -262 480 -368 608 l-21 25 12 -25z"/>
<path d="M5286 5049 c49 -69 120 -173 159 -232 38 -58 71 -104 73 -102 7 7
-130 226 -204 325 -108 145 -128 152 -28 9z"/>
<path d="M5157 5043 c20 -38 82 -142 136 -233 54 -91 113 -188 130 -217 55
-94 41 -47 -23 74 -72 136 -261 443 -273 443 -4 0 9 -30 30 -67z"/>
<path d="M4930 4996 c0 -22 283 -476 296 -476 8 0 -60 119 -147 260 -85 137
-149 230 -149 216z"/>
<path d="M3210 5093 c0 -5 28 -16 63 -26 34 -10 133 -52 220 -93 158 -75 223
-93 137 -39 -135 86 -420 192 -420 158z"/>
<path d="M3089 4800 c-7 -5 6 -11 31 -15 24 -4 77 -25 118 -46 87 -45 111 -50
62 -14 -72 53 -182 92 -211 75z"/>
<path d="M3000 4601 c-19 -6 -10 -9 41 -14 58 -5 99 -16 194 -52 18 -7 19 -6
5 9 -34 36 -188 73 -240 57z"/>
<path d="M4254 4545 c10 -16 29 -44 42 -62 13 -17 24 -34 24 -38 0 -3 -30 15
-66 40 -37 25 -71 45 -76 45 -11 0 27 -32 102 -85 87 -61 136 -112 225 -235
96 -133 175 -225 151 -174 -8 16 -47 70 -86 120 -40 49 -78 103 -85 120 -8 17
-22 37 -31 45 -9 8 -52 59 -94 114 -43 55 -88 109 -101 120 l-23 20 18 -30z"/>
<path d="M3973 4537 c38 -30 171 -106 176 -101 6 6 -21 25 -110 78 -81 49
-112 59 -66 23z"/>
<path d="M3771 4256 c2 -2 64 -48 138 -101 74 -53 159 -117 187 -142 57 -48
170 -180 162 -189 -3 -2 -102 67 -219 155 -207 154 -269 198 -269 187 0 -7
345 -274 427 -330 108 -73 121 -45 28 65 -54 63 -65 91 -22 52 25 -22 47 -36
47 -30 0 3 -54 53 -120 111 -66 59 -120 103 -120 98 0 -4 5 -13 12 -20 31 -31
-13 -6 -91 52 -80 59 -140 96 -157 96 -4 0 -5 -2 -3 -4z"/>
<path d="M3160 3839 c0 -52 36 -373 45 -394 2 -5 4 12 4 39 1 51 -37 398 -45
405 -2 2 -4 -20 -4 -50z"/>
<path d="M3285 3731 c3 -58 7 -107 10 -109 8 -9 3 151 -6 183 -5 19 -7 -9 -4
-74z"/>
<path d="M3365 3685 c11 -173 26 -333 34 -377 l9 -43 1 60 c1 72 -36 445 -45
454 -3 3 -3 -39 1 -94z"/>
<path d="M3470 3664 c0 -82 54 -384 66 -371 5 5 -55 380 -62 386 -2 2 -4 -4
-4 -15z"/>
<path d="M3550 3549 c0 -91 50 -413 58 -376 4 19 -47 429 -54 436 -2 2 -4 -25
-4 -60z"/>
<path d="M3375 1824 c-181 -47 -247 -186 -262 -551 -7 -178 3 -232 50 -281 50
-53 76 -62 174 -62 153 0 299 45 394 121 49 38 96 119 105 177 14 91 -55 185
-160 218 l-51 16 3 101 c5 141 -18 206 -89 242 -30 16 -130 27 -164 19z m116
-81 c67 -26 93 -112 73 -235 -6 -37 -7 -37 -48 -32 -57 8 -202 -11 -271 -35
l-57 -20 7 55 c19 154 69 233 171 269 52 19 75 18 125 -2z m120 -357 c109 -25
167 -77 155 -140 -9 -47 -61 -114 -120 -153 -107 -72 -316 -109 -393 -70 -52
27 -72 111 -65 273 l2 51 74 18 c155 36 258 42 347 21z"/>
<path d="M3923 1493 c-10 -3 -13 -71 -13 -289 l0 -284 25 -6 c31 -8 55 10 55
42 l0 23 70 -24 c245 -83 478 -42 518 93 32 106 3 210 -76 269 -60 45 -111 58
-227 57 -83 -1 -116 -6 -192 -31 l-93 -31 0 78 c0 70 -2 81 -22 94 -24 17 -26
17 -45 9z m490 -212 c60 -29 89 -70 95 -134 9 -93 -36 -138 -157 -158 -96 -15
-217 8 -319 60 l-42 21 0 84 0 84 73 26 c107 39 144 45 228 42 53 -2 89 -9
122 -25z"/>
<path d="M4680 1490 c-13 -8 -15 -45 -15 -237 0 -324 8 -366 68 -344 23 9 23
11 14 83 -5 40 -7 168 -4 285 4 180 2 213 -10 217 -21 8 -36 7 -53 -4z"/>
<path d="M4975 1489 c-55 -4 -112 -12 -127 -18 l-28 -11 0 -264 c0 -247 1
-266 18 -275 10 -6 28 -7 40 -4 22 5 22 8 22 248 l0 242 38 7 c49 8 256 8 315
0 l47 -7 2 -241 3 -241 38 -3 37 -3 0 270 c0 258 -1 271 -19 281 -18 9 -232
32 -271 28 -8 0 -60 -4 -115 -9z"/>
<path d="M5811 1484 c-136 -36 -285 -144 -330 -238 -57 -117 8 -251 141 -291
31 -10 109 -19 190 -22 129 -6 141 -4 225 22 48 15 114 40 145 56 63 32 73 54
38 89 -19 19 -20 19 -112 -24 -119 -56 -181 -70 -298 -70 -110 -1 -183 20
-222 62 -52 56 -50 57 116 59 171 1 259 19 367 74 124 62 168 114 155 183 -8
44 -52 81 -118 101 -65 19 -224 19 -297 -1z m288 -78 c67 -35 41 -88 -72 -145
-87 -44 -179 -61 -334 -61 -105 0 -133 3 -133 13 0 23 54 91 97 120 114 79
354 118 442 73z"/>
<path d="M6378 1493 c-29 -7 -61 -130 -56 -213 6 -109 56 -159 177 -180 100
-17 166 -2 304 68 4 2 7 -51 7 -117 0 -109 2 -121 19 -131 53 -28 61 15 61
336 0 205 -1 214 -21 224 -11 6 -30 10 -42 8 -21 -3 -22 -8 -25 -125 l-3 -122
-82 -41 c-100 -50 -146 -57 -219 -36 -106 30 -127 91 -85 236 29 97 24 109
-35 93z"/>
<path d="M7922 1485 c-71 -16 -139 -51 -147 -75 -14 -44 21 -64 60 -34 28 21
140 54 186 54 105 0 190 -42 203 -100 10 -46 -3 -52 -140 -61 -263 -17 -424
-91 -424 -195 0 -84 65 -134 185 -142 114 -7 225 26 332 99 23 16 44 29 47 29
3 0 6 -29 6 -65 0 -65 0 -65 29 -65 51 0 53 12 49 227 -3 189 -4 201 -28 248
-35 69 -73 86 -198 91 -62 2 -120 -1 -160 -11z m298 -312 c0 -35 -5 -41 -58
-75 -101 -65 -169 -91 -252 -96 -85 -4 -122 6 -145 42 -49 74 59 134 275 154
52 5 114 10 138 11 l42 1 0 -37z"/>
<path d="M6977 1484 c-4 -4 -7 -135 -7 -291 l0 -283 29 0 c48 0 54 17 50 157
-3 82 0 127 6 126 6 -1 123 -61 262 -132 138 -72 258 -131 265 -131 8 0 19 5
26 12 32 32 13 45 -223 164 -129 66 -235 122 -235 125 0 3 80 43 178 89 97 45
183 89 191 96 18 17 0 64 -25 64 -9 0 -113 -47 -232 -105 -118 -58 -216 -105
-218 -105 -2 0 -5 48 -6 108 -3 106 -3 107 -28 110 -14 2 -29 0 -33 -4z"/>
</g>
</svg>
