<svg id="Слой_1" data-name="Слой 1" xmlns="http://www.w3.org/2000/svg" xmlns:xlink="http://www.w3.org/1999/xlink" viewBox="0 0 512 512"><defs><style>.cls-1{fill:#fff;}.cls-2{fill:url(#Безымянный_градиент);}.cls-3{fill:#ababab;}.cls-4{fill:#dededd;}.cls-5{fill:#bf4d90;}.cls-6{fill:#ed8a19;}.cls-7{fill:#7fabda;}.cls-8{fill:#a4e869;}.cls-9{fill:#efce4a;}.cls-10{fill:#61b872;}.cls-11{fill:#ed7161;}.cls-12{fill:#9777a8;}</style><linearGradient id="Безымянный_градиент" x1="-725.76" y1="270.71" x2="-672.91" y2="323.55" gradientTransform="translate(7887.2 -2784.43) scale(10.67)" gradientUnits="userSpaceOnUse"><stop offset="0" stop-color="#efeeee"/><stop offset="1" stop-color="#dededd"/></linearGradient></defs><path class="cls-1" d="M0,128V277.33H341.33V128Z"/><polygon class="cls-2" points="85.33 0 85.33 512 384 512 512 384 512 0 85.33 0"/><polygon class="cls-3" points="384 384 384 512 512 384 384 384"/><polygon class="cls-4" points="256 512 384 512 384 384 256 512"/><path class="cls-5" d="M271.1,232.31a19.56,19.56,0,0,1-7.52-4.68l-12.49-12.48a20,20,0,0,1-2-2.42h0a19.85,19.85,0,0,0,3.12,39.45h17.65a19.92,19.92,0,0,0,19.87-19.86,20.24,20.24,0,0,0-.23-2.82,19.66,19.66,0,0,1-5.33,2.82A20.09,20.09,0,0,0,271.1,232.31Z"/><path class="cls-6" d="M315.93,185a19.83,19.83,0,0,0-39.17,0,20.12,20.12,0,0,1,2.42,2l12.48,12.48a19.63,19.63,0,0,1,4.69,7.53,19.87,19.87,0,0,1-2.84,18.39,17.59,17.59,0,0,0,5.67,0,19.84,19.84,0,0,0,15-11,19.6,19.6,0,0,0,2-8.63V188.17A19.32,19.32,0,0,0,315.93,185Z"/><path class="cls-7" d="M313.51,277.57,301,265.08a19.48,19.48,0,0,1-4.68-7.53,19.93,19.93,0,0,1,0-13,19.58,19.58,0,0,1,2.83-5.36,17.59,17.59,0,0,0-5.67,0,19.84,19.84,0,0,0-15,11,19.6,19.6,0,0,0-2,8.63v17.66a19.32,19.32,0,0,0,.28,3.15,19.83,19.83,0,0,0,39.17,0A22.05,22.05,0,0,1,313.51,277.57Z"/><path class="cls-8" d="M343.63,212.73a20,20,0,0,1-2,2.42l-12.48,12.48a19.67,19.67,0,0,1-7.53,4.68,20.09,20.09,0,0,1-13,0,19.86,19.86,0,0,1-5.36-2.83,18.38,18.38,0,0,0,0,5.67,19.61,19.61,0,0,0,1.79,5.79,20,20,0,0,0,9.21,9.22,19.6,19.6,0,0,0,8.64,2h17.65a20.38,20.38,0,0,0,3.15-.27,19.83,19.83,0,0,0,0-39.17Z"/><path class="cls-9" d="M341.6,187.06a19.93,19.93,0,0,0-25.67-2,19.32,19.32,0,0,1,.28,3.15v17.66a19.6,19.6,0,0,1-2,8.63,19.84,19.84,0,0,1-15,11,18.8,18.8,0,0,0,1.85,2.17,20.45,20.45,0,0,0,7.52,4.68,20.09,20.09,0,0,0,13,0,19.67,19.67,0,0,0,7.53-4.68l12.48-12.49a19.28,19.28,0,0,0,2-2.42A19.91,19.91,0,0,0,341.6,187.06Z"/><path class="cls-10" d="M343.63,251.9a20.38,20.38,0,0,1-3.15.27H322.83a19.6,19.6,0,0,1-8.64-2,20,20,0,0,1-9.21-9.22,19.61,19.61,0,0,1-1.79-5.79A19.65,19.65,0,0,0,301,237a18.8,18.8,0,0,0-1.85,2.17,19.58,19.58,0,0,0-2.83,5.36,19.93,19.93,0,0,0,0,13,19.48,19.48,0,0,0,4.68,7.53l12.48,12.49a21,21,0,0,0,2.42,2,19.83,19.83,0,0,0,27.7-27.7Z"/><path class="cls-11" d="M296.35,207.07a19.7,19.7,0,0,0-4.69-7.53l-12.48-12.48a20,20,0,0,0-28.09,0,19.91,19.91,0,0,0-2,25.66,20.1,20.1,0,0,1,3.12-.27h17.65a19.91,19.91,0,0,1,19.64,17l0,0a19.65,19.65,0,0,0,2.16-1.84,18.8,18.8,0,0,0,1.85-2.17,19.87,19.87,0,0,0,2.84-18.39Z"/><path class="cls-5" d="M269.83,212.45H252.18a20.1,20.1,0,0,0-3.12.27h0a20,20,0,0,0,2,2.42l12.49,12.48a19.56,19.56,0,0,0,7.52,4.68,20.09,20.09,0,0,1,13,0,19.66,19.66,0,0,0,5.33-2.82A19.91,19.91,0,0,0,269.83,212.45Z"/><path class="cls-12" d="M291.66,237a20.45,20.45,0,0,0-7.52-4.68,20.09,20.09,0,0,0-13,0,19.56,19.56,0,0,0-7.52,4.68l-12.49,12.49a19.28,19.28,0,0,0-2,2.42,19.83,19.83,0,0,0,27.7,27.7,19.32,19.32,0,0,1-.28-3.15V258.79a19.6,19.6,0,0,1,2-8.63,19.84,19.84,0,0,1,15-11A18.8,18.8,0,0,0,291.66,237Z"/></svg>