<svg xmlns="http://www.w3.org/2000/svg" viewBox="0 0 512 512"><defs><style>.cls-1{fill:#fff;}.cls-2{fill:#c7d5dd;}.cls-3{fill:#ec651b;}</style></defs><g id="Слой_2" data-name="Слой 2"><g id="Layer_1" data-name="Layer 1"><ellipse class="cls-1" cx="257.5" cy="255" rx="246.5" ry="244"/><path class="cls-2" d="M255.83,24C384,24.11,487.74,128,487.65,256.17S383.62,488.08,255.5,488,23.68,384.05,23.68,256c.19-128.11,104-231.89,232.15-232m0-24C114.44.1-.1,114.78,0,256.17S114.78,512.1,256.17,512,512,397.32,512,256,397.26,0,255.83,0Z"/><polygon class="cls-3" points="235.29 392.17 114.17 297.82 148.61 253.61 222.99 311.56 345.74 134.42 391.8 166.33 235.29 392.17"/></g></g></svg>