<?xml version="1.0" standalone="no"?>
<!DOCTYPE svg PUBLIC "-//W3C//DTD SVG 20010904//EN"
 "http://www.w3.org/TR/2001/REC-SVG-20010904/DTD/svg10.dtd">
<svg version="1.0" xmlns="http://www.w3.org/2000/svg"
 width="512.000000pt" height="512.000000pt" viewBox="0 0 512.000000 512.000000"
 preserveAspectRatio="xMidYMid meet">

<g transform="translate(0.000000,512.000000) scale(0.100000,-0.100000)"
fill="#000000" stroke="none">
<path d="M1920 4776 c-154 -33 -271 -153 -300 -307 -6 -28 -10 -155 -10 -280
l0 -229 -572 0 c-621 0 -637 -1 -753 -56 -65 -31 -152 -107 -196 -170 -16 -24
-42 -74 -57 -111 -27 -67 -27 -70 -27 -303 1 -189 4 -248 18 -304 62 -244 220
-442 442 -554 33 -16 112 -46 175 -65 211 -65 1664 -486 1734 -502 100 -23
282 -21 388 4 216 51 1806 523 1876 556 229 109 389 300 454 545 16 59 21 119
25 280 6 227 -3 292 -54 398 -36 75 -150 189 -225 225 -116 55 -133 57 -755
57 l-573 0 0 223 c0 311 -15 376 -111 481 -54 60 -128 99 -213 115 -86 16
-1192 13 -1266 -3z m1242 -333 c16 -15 18 -36 18 -250 l0 -233 -620 0 -620 0
0 232 c0 201 2 234 17 250 15 17 47 18 601 18 531 0 587 -2 604 -17z"/>
<path d="M0 1598 c0 -878 0 -869 59 -986 59 -117 167 -208 299 -254 l67 -23
2135 0 c2067 0 2137 1 2190 19 188 64 312 197 355 378 12 53 15 193 15 867 l0
804 -47 -45 c-103 -95 -234 -178 -363 -228 -92 -36 -1621 -483 -1858 -543
-119 -30 -138 -32 -297 -32 l-170 1 -175 46 c-346 92 -1757 510 -1833 542
-110 48 -205 108 -297 188 l-80 68 0 -802z"/>
</g>
</svg>
