<svg xmlns="http://www.w3.org/2000/svg" viewBox="0 0 109.97 109.97"><defs><style>.cls-1{fill:none;stroke:#1d1d1b;stroke-miterlimit:10;stroke-width:3px;}</style></defs><g id="Слой_2" data-name="Слой 2"><g id="Layer_1" data-name="Layer 1"><circle class="cls-1" cx="54.99" cy="54.99" r="53.49" transform="translate(-8.1 100.46) rotate(-80.78)"/><path class="cls-1" d="M34.49,60.66h7.66C45.05,65,49,68.32,53.62,72.19c2,1.66,4,3.38,6.29,5.38l3.38,3,3.36-3c2.23-2,4.28-3.74,6.26-5.4,6.65-5.59,11.9-10,14.58-18l.1-.35c1.51-5.88,1-11.45-1.57-15.69a14.13,14.13,0,0,0-8.73-6.56,15.77,15.77,0,0,0-14.1,3,15.74,15.74,0,0,0-14.11-3,14.14,14.14,0,0,0-8.7,6.6,19.47,19.47,0,0,0-2.09,12.75H34.47l0-20.16-10.15,0,.1,50.4,10.15,0ZM49.07,43.3a4,4,0,0,1,2.51-1.95c3-.78,4.62.42,7.16,2.61.47.4.91.78,1.33,1.12l3.15,2.49,3.13-2.51c.43-.34.87-.72,1.33-1.12,2.53-2.2,4.11-3.4,7.15-2.64a4,4,0,0,1,2.52,2c1.11,1.85,1.29,4.71.52,7.86-1.8,5.22-5.44,8.29-11.44,13.33-1,.84-2.06,1.73-3.17,2.68l-3.18-2.67c-6-5-9.68-8.07-11.5-13.28C47.8,48,48,45.16,49.07,43.3Z"/></g></g></svg>