<?xml version="1.0" encoding="UTF-8"?>
<!DOCTYPE svg PUBLIC "-//W3C//DTD SVG 1.1//EN" "http://www.w3.org/Graphics/SVG/1.1/DTD/svg11.dtd">
<svg xmlns="http://www.w3.org/2000/svg" version="1.1" width="450px" height="300px" style="shape-rendering:geometricPrecision; text-rendering:geometricPrecision; image-rendering:optimizeQuality; fill-rule:evenodd; clip-rule:evenodd" xmlns:xlink="http://www.w3.org/1999/xlink">
<g><path style="opacity:1" fill="#fefefe" d="M -0.5,-0.5 C 149.5,-0.5 299.5,-0.5 449.5,-0.5C 449.5,99.5 449.5,199.5 449.5,299.5C 299.5,299.5 149.5,299.5 -0.5,299.5C -0.5,199.5 -0.5,99.5 -0.5,-0.5 Z"/></g>
<g><path style="opacity:1" fill="#f1f1f1" d="M 141.5,43.5 C 141.5,89.8333 141.5,136.167 141.5,182.5C 150.5,182.5 159.5,182.5 168.5,182.5C 168.17,163.659 168.503,144.993 169.5,126.5C 169.5,145.5 169.5,164.5 169.5,183.5C 159.833,183.5 150.167,183.5 140.5,183.5C 140.168,136.664 140.501,89.997 141.5,43.5 Z"/></g>
<g><path style="opacity:1" fill="#ececec" d="M 141.5,43.5 C 150.833,43.5 160.167,43.5 169.5,43.5C 169.5,62.1667 169.5,80.8333 169.5,99.5C 172.833,99.5 176.167,99.5 179.5,99.5C 175.705,78.0264 182.705,61.193 200.5,49C 217.53,41.8066 233.697,43.3066 249,53.5C 265.583,42.4218 282.75,41.5884 300.5,51C 316.013,63.8604 321.846,80.3604 318,100.5C 315.355,113.122 310.022,124.456 302,134.5C 284.916,150.923 267.25,166.589 249,181.5C 236.511,171.013 224.011,160.513 211.5,150C 203.762,142.932 196.762,135.266 190.5,127C 183.508,126.5 176.508,126.334 169.5,126.5C 168.503,144.993 168.17,163.659 168.5,182.5C 159.5,182.5 150.5,182.5 141.5,182.5C 141.5,136.167 141.5,89.8333 141.5,43.5 Z"/></g>
<g><path style="opacity:1" fill="#fefefe" d="M 215.5,72.5 C 221.275,71.7745 226.608,72.9412 231.5,76C 237.042,81.2105 242.875,86.0438 249,90.5C 255.444,85.6903 261.611,80.5236 267.5,75C 274.366,71.3391 280.866,71.8391 287,76.5C 292.366,88.6676 291.366,100.334 284,111.5C 273.563,123.871 261.896,134.871 249,144.5C 237.243,135.434 226.243,125.434 216,114.5C 207.124,103.311 205.124,90.9773 210,77.5C 211.73,75.5981 213.563,73.9314 215.5,72.5 Z"/></g>
</svg>
