<?xml version="1.0" encoding="UTF-8" standalone="no"?>
<svg
   xmlns:dc="http://purl.org/dc/elements/1.1/"
   xmlns:cc="http://creativecommons.org/ns#"
   xmlns:rdf="http://www.w3.org/1999/02/22-rdf-syntax-ns#"
   xmlns:svg="http://www.w3.org/2000/svg"
   xmlns="http://www.w3.org/2000/svg"
   viewBox="0 0 2418.8977 2418.8977"
   height="2418.8977"
   width="2418.8977"
   xml:space="preserve"
   id="svg2"
   version="1.1"><metadata
     id="metadata8"><rdf:RDF><cc:Work
         rdf:about=""><dc:format>image/svg+xml</dc:format><dc:type
           rdf:resource="http://purl.org/dc/dcmitype/StillImage" /></cc:Work></rdf:RDF></metadata><defs
     id="defs6" /><g
     transform="matrix(1.3333333,0,0,-1.3333333,0,2418.8976)"
     id="g10"><g
       id="g12"><path
         id="path14"
         style="fill:#492c1b;fill-opacity:1;fill-rule:evenodd;stroke:none"
         d="m 905.0431,19.0378 c 490.1247,0 887.4493,397.3246 887.4493,887.4493 0,490.1247 -397.3246,887.4493 -887.4493,887.4493 -490.1247,0 -887.4493,-397.3246 -887.4493,-887.4493 0,-490.1247 397.3246,-887.4493 887.4493,-887.4493" /><path
         id="path16"
         style="fill:#ffffff;fill-opacity:1;fill-rule:nonzero;stroke:none"
         d="m 352.042,1525.7948 -58.1284,-60.6436 106.1292,-101.7243 14.6769,15.3119 -91.5729,87.7745 28.7722,30.0186 91.5744,-87.7745 14.6766,15.313 z m 155.9327,-66.7363 17.5309,12.3097 -17.1728,86.2214 c -1.7847,8.7562 -4.8632,20.4511 -6.9727,28.2067 l 0.7568,0.019 c 6.1407,-10.5727 16.7959,-27.212 23.1917,-36.3214 l 36.8062,-52.4223 17.0155,11.9478 -84.4741,120.3131 -17.7016,-12.4291 17.3625,-86.86 c 1.681,-9.3396 4.5006,-19.9341 6.3686,-27.347 l -0.7557,-0.018 c -6.1594,11.3295 -16.4528,27.4532 -22.4861,36.0467 l -36.9278,52.5943 -17.0152,-11.9469 84.4738,-120.3142 z m 123.1816,224.4668 -37.188,-11.2522 42.5763,-140.7067 20.3029,6.143 -14.9632,49.4478 16.8851,5.1089 c 27.538,8.3336 38.2901,29.3587 29.3491,58.9079 -8.6987,28.7439 -29.4242,40.6834 -56.9622,32.3513 z m 21.573,-72.0233 -16.6836,-5.0485 -15.9361,52.666 16.6833,5.0482 c 15.2762,4.6222 25.3905,-1.972 30.6216,-19.2583 5.4743,-18.0921 0.5907,-28.7841 -14.6852,-33.4074 z m 153.144,-33.3873 c 27.8079,4.3189 41.5415,25.3667 36.8371,55.6645 l -8.2497,53.1255 c -4.7058,30.2979 -24.1767,46.19 -51.9845,41.8711 -27.8065,-4.3177 -41.5415,-25.3655 -36.8371,-55.6633 l 8.2511,-53.1267 c 4.7044,-30.2981 24.1752,-46.1888 51.9831,-41.8711 z m -3.1909,20.5452 c -15.1495,-2.353 -24.3735,6.4151 -27.2098,24.6779 l -8.2497,53.1255 c -2.8363,18.2614 3.2947,29.4157 18.4442,31.7684 14.942,2.3194 24.3746,-6.4173 27.2098,-24.6778 l 8.2499,-53.1267 c 2.8361,-18.2627 -3.5025,-29.4468 -18.4444,-31.7673 z m 209.3519,-21.363 23.7551,-2.9783 -36.4875,85.4265 51.2334,60.8834 -24.1716,3.0297 -32.4454,-41.0139 -13.0056,-17.6313 7.943,63.3484 -20.4211,2.5606 -7.9166,-63.1395 -7.7284,19.3836 -21.863,48.458 -24.1716,3.031 34.6178,-71.6473 -56.4486,-73.7734 23.7549,-2.9783 42.1421,57.5779 5.6988,-11.9336 -6.3743,-50.8431 20.4208,-2.5605 6.3757,50.843 8.4696,10.1574 z m 159.3825,116.6352 -12.9008,-61.2391 -40.6879,8.5719 12.9016,61.2394 -20.7564,4.3725 -30.3027,-143.8509 20.7553,-4.3713 13.2897,63.0881 40.6882,-8.5719 -13.2897,-63.0885 20.7553,-4.3724 30.3038,143.8509 z m 47.2022,-172.9383 29.4599,-21.6173 c 23.5355,-17.2695 44.841,-14.1492 61.9866,9.2168 15.7785,21.5036 13.7302,44.6261 -9.8042,61.8959 l -12.0209,8.8203 34.7877,47.4089 -17.4391,12.7979 z m 79.4089,-58.2693 17.1011,-12.5484 86.969,118.5213 -17.1,12.5485 z m -50.2906,61.3885 28.5755,38.9429 11.1745,-8.1997 c 12.022,-8.8217 14.2424,-20.3508 4.7999,-33.2178 -9.6905,-13.2075 -21.3545,-14.5469 -33.3754,-5.7263 z m 143.3104,-112.3115 30.8315,32.6996 34.0736,-32.1293 13.3997,14.2104 -34.075,32.129 29.2473,31.0164 36.9757,-34.865 13.6885,14.5168 -52.4092,49.4167 -100.8519,-106.9577 53.9385,-50.8587 13.6859,14.5157 z" /><path
         id="path18"
         style="fill:#ffffff;fill-opacity:1;fill-rule:nonzero;stroke:none"
         d="m 1668.7298,760.1519 -37.6296,14.9814 c -9.1913,3.7653 -22.7719,7.9985 -30.2908,10.2294 l 0.098,0.6225 c 7.84,-0.1551 22.0974,-0.0304 31.9648,0.5621 l 40.4334,3.0739 -4.5754,-29.4693 z m 55.0831,33.1027 3.3838,21.7894 -150.939,-13.9677 -3.5112,-22.6202 139.5955,-59.08 3.4157,21.9988 -28.2294,11.1833 5.9602,38.391 z m -61.0389,-164.1691 -5.7952,-16.8834 -46.4797,15.954 5.7955,16.8845 c 4.6366,13.5071 15.4502,19.7856 30.9429,14.4666 15.6935,-5.3861 20.1734,-16.9146 15.5365,-30.4217 z m -64.7414,23.5557 -6.2044,-18.0763 -35.9533,12.3415 17.9323,52.2402 -18.8717,6.4781 -24.8179,-72.3025 139.0428,-47.7283 13.0915,38.1381 c 9.1358,26.6157 -0.1819,46.6892 -27.9901,56.2357 -25.4242,8.7265 -47.0937,-0.7109 -56.2292,-27.3265 z m 1.3547,-162.6815 c -8.0807,-13.0289 -20.7419,-14.3189 -36.4479,-4.5777 l -45.6882,28.3383 c -15.7045,9.741 -20.1762,21.6575 -12.0957,34.6861 7.971,12.8492 20.7436,14.317 36.4481,4.5766 l 45.6883,-28.3386 c 15.7056,-9.7409 20.065,-21.8355 12.0954,-34.6847 z m 17.6686,-10.9587 c 14.8326,23.9139 7.8038,48.0441 -18.2517,64.2053 l -45.6885,28.3371 c -26.0561,16.1617 -50.7949,11.7357 -65.6286,-12.1782 -14.8325,-23.9151 -7.8043,-48.0453 18.252,-64.2059 l 45.6869,-28.3382 c 26.0557,-16.1615 50.7962,-11.7355 65.6299,12.1799 z M 1516.5298,378.8966 1488.109,346.0025 c -4.8447,13.345 -15.2447,27.3269 -30.4279,41.5559 l -41.6914,38.7973 19.4978,22.5646 z m 13.7313,15.8907 -96.141,83.069 -46.2708,-53.5521 52.0637,-48.3151 c 16.9305,-15.7399 30.3208,-33.9712 31.5825,-49.2143 l -5.6296,-6.5151 33.6883,-29.1081 13.5933,15.7308 -18.5933,16.0645 45.722,52.9175 18.593,-16.0659 13.5921,15.7325 -33.6884,29.1081 z m -126.3926,-151.613 c 21.6255,16.3157 24.5868,38.5436 8.3066,62.5646 l -16.7649,-12.6496 c 8.9438,-14.2968 7.7159,-25.2201 -3.6842,-33.8207 -10.226,-7.7162 -21.697,-6.1106 -32.1954,7.8043 l -36.4277,48.282 c -10.6251,14.082 -9.0204,25.5538 0.8711,33.0171 11.2328,8.4736 21.9478,6.8236 33.3249,-6.1645 l 16.7653,12.649 c -18.5879,22.5431 -40.7739,25.7987 -62.0646,9.7351 -20.6209,-15.5569 -24.1251,-38.4588 -6.1654,-62.2653 l 36.4281,-48.2825 c 17.8344,-23.6378 40.9864,-26.4277 61.6062,-10.8695" /><path
         id="path20"
         style="fill:#ffffff;fill-opacity:1;fill-rule:nonzero;stroke:none"
         d="m 408.7797,269.5184 -14.3368,10.6373 29.2836,39.4642 14.3351,-10.6373 c 11.4698,-8.5085 14.1769,-20.7167 4.4155,-33.8717 -9.8864,-13.3243 -22.2293,-14.1015 -33.6974,-5.5925 z m 42.0574,54.5675 -15.3465,11.3879 22.6497,30.5263 44.3565,-32.9125 11.8879,16.0223 -61.3893,45.5524 -87.5991,-118.0567 32.381,-24.0273 c 22.5984,-16.7695 44.5519,-13.968 62.0722,9.6426 16.0175,21.5875 13.5859,45.0966 -9.0124,61.865 z m -156.9558,54.1494 34.0906,29.287 30.5175,-35.5227 14.8153,12.7264 -30.5187,35.5238 32.338,27.7804 33.1171,-38.5503 15.1345,13.0022 -46.9412,54.6389 -111.5078,-95.796 48.3085,-56.2331 15.1331,13.0011 z m 12.509,204.1928 c -53.1181,-29.4732 -82.2438,-45.0382 -96.5338,-51.0534 -14.1098,-5.9062 -21.3568,-4.9181 -26.1715,2.9688 l -16.4899,-10.0656 c 10.6132,-17.3874 24.4187,-23.4779 49.1527,-12.8072 16.3004,6.7507 45.9658,22.6451 83.6263,43.1745 l 16.1943,-26.5303 -108.4464,-66.1995 11.0503,-18.1026 125.4773,76.5941 z m -159.1041,-10.2098 58.7968,59.8723 77.8703,-5.6713 -8.2834,21.7888 -54.0613,2.1415 38.9118,37.7088 -8.2831,21.7899 -54.4388,-55.969 -83.7207,5.6943 8.3588,-21.9858 59.125,-2.4628 -42.6328,-40.9209 z" /><path
         id="path22"
         style="fill:#ffffff;fill-opacity:1;fill-rule:evenodd;stroke:none"
         d="m 905.0431,272.2972 c 350.2534,0 634.1899,283.9365 634.1899,634.1899 0,350.2533 -283.9365,634.1902 -634.1899,634.1902 -350.2533,0 -634.1899,-283.9369 -634.1899,-634.1902 0,-350.2534 283.9366,-634.1899 634.1899,-634.1899" /><path
         id="path24"
         style="fill:#ffffff;fill-opacity:1;fill-rule:evenodd;stroke:none"
         d="m 905.0431,32.0009 c 482.9652,0 874.4862,391.521 874.4862,874.4862 0,482.9652 -391.521,874.4865 -874.4862,874.4865 -482.9652,0 -874.4862,-391.5213 -874.4862,-874.4865 0,-482.9652 391.521,-874.4862 874.4862,-874.4862 z m 0,-32.6001 c 500.9698,0 907.0863,406.1165 907.0863,907.0863 0,500.9698 -406.1165,907.0866 -907.0863,907.0866 -500.9697,0 -907.0863,-406.1168 -907.0863,-907.0866 0,-500.9698 406.1166,-907.0863 907.0863,-907.0863" /><path
         id="path26"
         style="fill:#ff8106;fill-opacity:1;fill-rule:nonzero;stroke:none"
         d="m 647.8333,849.0438 h 93.8401 c 35.3381,-53.4724 83.4934,-94.3888 140.271,-142.0347 24.2966,-20.3936 49.4167,-41.4836 76.8787,-66.1572 l 41.2835,-37.2039 41.2577,37.2039 c 27.4624,24.6736 52.5824,45.7636 76.9046,66.1572 81.5887,68.4264 146.0364,122.5176 179.0322,220.877 l 1.2353,4.2542 c 18.5828,72.1389 11.865,140.4876 -18.8915,192.568 -24.065,40.7101 -61.9509,69.4057 -106.6833,80.8016 -79.6841,20.3938 -135.947,-9.127 -172.855,-37.0491 -36.9595,27.9221 -93.145,57.4429 -172.8549,37.0491 -44.7325,-11.3959 -82.6183,-40.0915 -106.6834,-80.8016 -25.5574,-43.2371 -34.2569,-97.8182 -25.8922,-156.3956 h -46.8428 v 247.4586 H 523.4426 v -618.569 h 124.3907 z m 179.0065,212.6784 v 0 c 7.4126,12.53 17.8106,20.5741 30.8854,23.9516 37.2425,9.4621 56.5716,-5.2855 87.6116,-32.2279 5.688,-4.9502 11.0928,-9.6168 16.2918,-13.7418 l 38.4523,-30.7069 38.478,30.7069 c 5.199,4.125 10.6041,8.7916 16.2921,13.7418 31.0655,26.9424 50.4459,41.6642 87.6371,32.2279 13.0748,-3.3775 23.4728,-11.4216 30.8854,-23.9516 13.4867,-22.8175 15.7,-57.9073 6.1515,-96.529 -22.1604,-64.069 -66.9184,-101.6082 -140.5284,-163.3567 -12.1998,-10.184 -25.2233,-21.1156 -38.89,-32.8209 -13.6924,11.7053 -26.7156,22.6369 -38.8899,32.8209 -73.6356,61.8001 -118.368,99.3135 -140.5281,163.3567 -9.5488,38.6217 -7.3355,73.7115 6.1512,96.529" /><path
         id="path28"
         style="fill:#ffffff;fill-opacity:1;fill-rule:evenodd;stroke:none"
         d="m 182.7967,1112.9165 c 10.7875,0 19.5315,8.744 19.5315,19.5315 0,10.7878 -8.744,19.5319 -19.5315,19.5319 -10.7876,0 -19.5316,-8.7441 -19.5316,-19.5319 0,-10.7875 8.744,-19.5315 19.5316,-19.5315" /><path
         id="path30"
         style="fill:#ffffff;fill-opacity:1;fill-rule:evenodd;stroke:none"
         d="m 923.4663,155.5452 c -3.2179,10.2966 -14.1723,16.0339 -24.4686,12.816 -10.2966,-3.2181 -16.0339,-14.1723 -12.816,-24.4689 3.2181,-10.2963 14.1723,-16.0339 24.4689,-12.8157 10.2963,3.2179 16.0339,14.1723 12.8157,24.4686" /><path
         id="path32"
         style="fill:#ffffff;fill-opacity:1;fill-rule:evenodd;stroke:none"
         d="m 1618.0767,1142.784 c -8.9133,-6.0769 -11.2122,-18.2271 -5.1353,-27.1403 6.077,-8.913 18.2274,-11.2122 27.1404,-5.1353 8.9132,6.077 11.2121,18.2274 5.1352,27.1404 -6.0769,8.9132 -18.2273,11.2121 -27.1403,5.1352" /></g></g></svg>