<?xml version="1.0" standalone="no"?>
<!DOCTYPE svg PUBLIC "-//W3C//DTD SVG 20010904//EN"
 "http://www.w3.org/TR/2001/REC-SVG-20010904/DTD/svg10.dtd">
<svg version="1.0" xmlns="http://www.w3.org/2000/svg"
 width="512.000000pt" height="512.000000pt" viewBox="0 0 512.000000 512.000000"
 preserveAspectRatio="xMidYMid meet">

<g transform="translate(0.000000,512.000000) scale(0.100000,-0.100000)"
fill="#000000" stroke="none">
<path d="M790 5109 c-57 -23 -93 -80 -92 -146 l1 -43 -122 0 c-123 0 -181 -11
-248 -46 -95 -48 -177 -148 -209 -252 -20 -63 -20 -98 -20 -2156 0 -1739 3
-2100 14 -2142 42 -160 175 -283 336 -314 34 -6 686 -10 1854 -10 l1801 0 458
458 457 457 0 1822 c0 1744 -1 1824 -18 1881 -34 107 -117 208 -211 256 -67
35 -125 46 -248 46 l-122 0 0 43 c1 56 -13 88 -50 120 -100 84 -241 15 -241
-118 l0 -45 -283 0 -283 0 0 49 c2 84 -61 146 -147 146 -90 0 -147 -61 -147
-155 l0 -40 -282 2 -283 3 3 37 c7 79 -67 158 -148 158 -81 0 -155 -79 -148
-158 l3 -37 -283 -3 -282 -2 0 40 c0 94 -57 155 -147 155 -86 0 -149 -62 -147
-146 l0 -49 -283 0 -283 0 0 49 c0 106 -103 178 -200 140z m4000 -2431 l0
-1662 -27 -28 -27 -28 -212 0 c-250 0 -289 -9 -367 -85 -86 -85 -92 -107 -95
-365 l-3 -225 -27 -27 -26 -28 -1732 0 c-1251 0 -1748 3 -1786 11 -65 14 -130
73 -147 134 -8 29 -11 596 -11 2003 l0 1962 2230 0 2230 0 0 -1662z"/>
<path d="M1780 3180 l0 -340 335 0 335 0 -2 338 -3 337 -332 3 -333 2 0 -340z"/>
<path d="M2677 3513 c-4 -3 -7 -156 -7 -340 l0 -333 335 0 335 0 0 340 0 340
-328 0 c-181 0 -332 -3 -335 -7z"/>
<path d="M3570 3180 l0 -340 335 0 335 0 0 340 0 340 -335 0 -335 0 0 -340z"/>
<path d="M880 2285 l0 -335 335 0 335 0 0 335 0 335 -335 0 -335 0 0 -335z"/>
<path d="M1780 2285 l0 -335 335 0 335 0 0 335 0 335 -335 0 -335 0 0 -335z"/>
<path d="M2670 2285 l0 -335 335 0 335 0 0 335 0 335 -335 0 -335 0 0 -335z
m570 0 l0 -235 -235 0 -235 0 0 228 c0 126 3 232 7 235 3 4 109 7 235 7 l228
0 0 -235z"/>
<path d="M3570 2285 l0 -335 335 0 335 0 0 335 0 335 -335 0 -335 0 0 -335z"/>
<path d="M880 1385 l0 -335 335 0 335 0 0 335 0 335 -335 0 -335 0 0 -335z"/>
<path d="M1780 1385 l0 -335 335 0 335 0 0 335 0 335 -335 0 -335 0 0 -335z"/>
<path d="M2670 1385 l0 -335 335 0 335 0 0 335 0 335 -335 0 -335 0 0 -335z"/>
<path d="M3570 1385 l0 -335 335 0 335 0 0 335 0 335 -335 0 -335 0 0 -335z"/>
</g>
</svg>
