<svg xmlns="http://www.w3.org/2000/svg" viewBox="0 0 24.00 24.00" data-guides="{&quot;vertical&quot;:[],&quot;horizontal&quot;:[]}"><defs/><path fill="none" stroke="rgb(0, 0, 0)" fill-opacity="1" stroke-width="2" stroke-opacity="1" stroke-linecap="round" stroke-linejoin="round" id="tSvge635668179" title="Path 11" d="M3 7C3 5.8954 3.8954 5 5 5C9.6667 5 14.3333 5 19 5C20.1046 5 21 5.8954 21 7C21 10.3333 21 13.6667 21 17C21 18.1046 20.1046 19 19 19C14.3333 19 9.6667 19 5 19C3.8954 19 3 18.1046 3 17C3 13.6667 3 10.3333 3 7Z" style=""/><path fill="none" stroke="rgb(0, 0, 0)" fill-opacity="1" stroke-width="2" stroke-opacity="1" stroke-linecap="round" stroke-linejoin="round" id="tSvg354bf4805b" title="Path 12" d="M3 7C6 9 9 11 12 13C15 11 18 9 21 7" style=""/><ellipse fill="#ff0000" fill-opacity="1" stroke="#ff0000" stroke-opacity="1" stroke-width="1" id="tSvg150c83f3f3a" title="Ellipse 1" cx="19.024378352023632" cy="17.975621647976368" rx="3.9756216479768227" ry="3.9756216479768227" style="transform: rotate(0deg); transform-origin: 19.0244px 17.9756px;"/><path fill="#ffffff" fill-opacity="1" stroke="#ffffff" stroke-opacity="0" stroke-width="1" id="tSvg46139d20d0" title="Rectangle 1" d="M16.0244 17.9756C16.0244 17.4233 16.4721 16.9756 17.0244 16.9756H21.0244C21.5767 16.9756 22.0244 17.4233 22.0244 17.9756H22.0244C22.0244 18.5279 21.5767 18.9756 21.0244 18.9756H17.0244C16.4721 18.9756 16.0244 18.5279 16.0244 17.9756Z" style="transform-origin: 19.0244px 17.9756px;" rx="1" ry="1"/></svg>