<svg xmlns="http://www.w3.org/2000/svg" xmlns:xlink="http://www.w3.org/1999/xlink" viewBox="0 0 166.81 35.17"><defs><style>.cls-1{fill:none;}.cls-2{clip-path:url(#clip-path);}.cls-3{fill:#ee7203;}</style><clipPath id="clip-path" transform="translate(-19.62 -15.2)"><rect class="cls-1" width="78.32" height="66.54"/></clipPath></defs><g id="Слой_2" data-name="Слой 2"><g id="svg2"><g class="cls-2"><g class="cls-2"><path class="cls-3" d="M26.65,35.9H32c2,3,4.72,5.32,7.93,8,1.37,1.15,2.79,2.34,4.35,3.74l2.33,2.1,2.33-2.1c1.56-1.4,3-2.59,4.35-3.74,4.62-3.86,8.26-6.91,10.13-12.46l.07-.24c1-4.08.67-7.94-1.07-10.88a9.83,9.83,0,0,0-6-4.56,10.91,10.91,0,0,0-9.77,2.1,10.91,10.91,0,0,0-9.77-2.1,9.86,9.86,0,0,0-6,4.56,13.55,13.55,0,0,0-1.46,8.83H26.65v-14h-7V50.11h7Zm10.12-12a2.79,2.79,0,0,1,1.75-1.35c2.11-.54,3.2.3,4.95,1.82.32.28.63.54.92.77l2.18,1.74,2.17-1.74c.3-.23.6-.49.93-.77,1.75-1.52,2.85-2.35,4.95-1.82a2.79,2.79,0,0,1,1.75,1.35,7.51,7.51,0,0,1,.35,5.45c-1.26,3.61-3.79,5.73-7.95,9.22-.69.58-1.43,1.19-2.2,1.85-.77-.66-1.51-1.27-2.2-1.85-4.16-3.49-6.69-5.61-7.95-9.22a7.51,7.51,0,0,1,.35-5.45" transform="translate(-19.62 -15.2)"/></g></g><path d="M83.31,16.7V34h-2V18.61h-4c-.24,5.25-.47,9.68-.76,11.79-.38,2.7-1.66,3.89-3.84,3.89V32.38c1.11,0,1.66-.82,1.88-2.38.25-1.83.49-6.21.77-13.3Z" transform="translate(-19.62 -15.2)"/><path d="M99.23,25.52v4c0,3.1-1.68,4.83-4.33,4.83s-4.31-1.73-4.31-4.83V28.29H88.46V34h-1.9V21h1.9v5.45h2.13v-.94c0-3.12,1.69-4.83,4.31-4.83S99.23,22.4,99.23,25.52Zm-2,0c0-2-.89-2.92-2.38-2.92s-2.38.89-2.38,2.92v4c0,2,.89,2.93,2.38,2.93s2.38-.92,2.38-2.93Z" transform="translate(-19.62 -15.2)"/><path d="M100.18,32.23h1a12.21,12.21,0,0,0,1.21-5.2c.15-2,.23-4,.25-6h7.18V32.23h1.47v4.68h-1.89V34h-7.3v2.87h-1.88Zm7.67,0V22.82h-3.39c0,1.54-.07,3.05-.2,4.58a17,17,0,0,1-.94,4.83Z" transform="translate(-19.62 -15.2)"/><path d="M113.13,21H115v6.44c0,1,0,2.08,0,3.27l0,.05c.23-.59.8-2,1.14-2.82L119.49,21h2V34h-1.88v-6c0-1.29,0-2.65.1-3.84l0,0a31.12,31.12,0,0,1-1.26,3.2L115.11,34h-2Z" transform="translate(-19.62 -15.2)"/><path d="M139.18,16.7V34h-2V18.61h-4c-.24,5.25-.47,9.68-.77,11.79-.37,2.7-1.65,3.89-3.83,3.89V32.38c1.11,0,1.66-.82,1.88-2.38.25-1.83.49-6.21.77-13.3Z" transform="translate(-19.62 -15.2)"/><path d="M155.1,25.52v4c0,3.1-1.68,4.83-4.33,4.83s-4.31-1.73-4.31-4.83V28.29h-2.13V34h-1.91V21h1.91v5.45h2.13v-.94c0-3.12,1.68-4.83,4.31-4.83S155.1,22.4,155.1,25.52Zm-1.95,0c0-2-.89-2.92-2.38-2.92s-2.38.89-2.38,2.92v4c0,2,.89,2.93,2.38,2.93s2.38-.92,2.38-2.93Z" transform="translate(-19.62 -15.2)"/><path d="M166.67,26.54v2.94c0,3.1-1.74,4.83-4.43,4.83s-4.39-1.73-4.39-4.83V22.4c0-3.49,2.45-4.68,4.24-5.22a3.23,3.23,0,0,0,2.35-1.57l1.48,1.14A4.32,4.32,0,0,1,162.83,19c-1.36.37-3.05.89-3.05,3.37v.81a3.49,3.49,0,0,1,2.9-1.33C165,21.81,166.67,23.52,166.67,26.54Zm-2,.19c0-2.13-.92-3-2.38-3-1.29,0-2.48.74-2.48,2.92v2.87c0,2,.89,2.93,2.41,2.93s2.45-.92,2.45-2.93Z" transform="translate(-19.62 -15.2)"/><path d="M176.62,21V34h-1.88V29.46H173L170.38,34h-2.25l3-4.78c-1.48-.45-2.52-1.91-2.52-4.06A4,4,0,0,1,172.83,21Zm-1.88,1.81h-1.86a2.19,2.19,0,0,0-2.37,2.43c0,1.61.76,2.5,2.28,2.5h2Z" transform="translate(-19.62 -15.2)"/><path d="M186.43,22.82h-3.1V34H181.4V22.82h-3.09V21h8.12Z" transform="translate(-19.62 -15.2)"/><path d="M76.6,48.57l-1.92-2.73-.59.71v2h-.31V43.36h.31V46.1l.77-.93,1.49-1.81h.39l-1.86,2.23,2.09,3Z" transform="translate(-19.62 -15.2)"/><path d="M79,47V45a1.6,1.6,0,1,1,3.19,0v2A1.6,1.6,0,1,1,79,47Zm2.88,0V45a1.29,1.29,0,1,0-2.57,0v2a1.29,1.29,0,1,0,2.57,0Z" transform="translate(-19.62 -15.2)"/><path d="M88.17,45v2a1.55,1.55,0,0,1-1.52,1.71,1.48,1.48,0,0,1-1.31-.76v2.45H85v-7h.28l0,.76a1.43,1.43,0,0,1,1.37-.87A1.54,1.54,0,0,1,88.17,45Zm-.31,0c0-.9-.51-1.43-1.23-1.43a1.39,1.39,0,0,0-1.29,1.56V47A1.27,1.27,0,1,0,87.86,47Z" transform="translate(-19.62 -15.2)"/><path d="M93.92,48.57h-.31V43.65H91.3v4.92H91V43.36h2.93Z" transform="translate(-19.62 -15.2)"/><path d="M96.73,47V45a1.6,1.6,0,1,1,3.19,0v2a1.6,1.6,0,1,1-3.19,0Zm2.88,0V45A1.29,1.29,0,1,0,97,45v2a1.29,1.29,0,1,0,2.57,0Z" transform="translate(-19.62 -15.2)"/><path d="M105.88,45v2a1.55,1.55,0,0,1-1.52,1.71,1.48,1.48,0,0,1-1.31-.76v2.45h-.31v-7H103l0,.76a1.43,1.43,0,0,1,1.37-.87A1.54,1.54,0,0,1,105.88,45Zm-.31,0c0-.9-.51-1.43-1.23-1.43a1.39,1.39,0,0,0-1.29,1.56V47a1.27,1.27,0,1,0,2.52-.07Z" transform="translate(-19.62 -15.2)"/><path d="M111.61,44.84v3.73h-.28l0-.63a1.4,1.4,0,0,1-1.37.74,1.42,1.42,0,0,1-1.47-1.58c0-1,.62-1.52,1.73-1.52h1.11v-.74c0-.83-.41-1.3-1.16-1.3a1.12,1.12,0,0,0-1.21,1.07h-.31a1.42,1.42,0,0,1,1.53-1.36A1.39,1.39,0,0,1,111.61,44.84Zm-.3,2.18V45.87H110.2c-.93,0-1.42.45-1.42,1.23a1.15,1.15,0,0,0,1.2,1.28A1.22,1.22,0,0,0,111.31,47Z" transform="translate(-19.62 -15.2)"/><path d="M116.89,43.64h-1.33v4.93h-.31V43.64h-1.32v-.28h3Z" transform="translate(-19.62 -15.2)"/><path d="M119.3,43.36h.31V47c0,.3,0,.73,0,1h0c.08-.19.26-.56.41-.83l2-3.83h.32v5.22H122V45.09c0-.38,0-.87,0-1.2h0c-.12.27-.32.67-.47,1l-2,3.72h-.3Z" transform="translate(-19.62 -15.2)"/><path d="M128.36,47.11c0,.93-.59,1.46-1.64,1.46h-1.46V43.36h1.38a1.29,1.29,0,0,1,1.46,1.31,1.23,1.23,0,0,1-.72,1.11A1.35,1.35,0,0,1,128.36,47.11Zm-2.79-1.44h1.16a1,1,0,0,0,1.06-1c0-.61-.41-1-1.15-1h-1.07Zm2.48,1.44A1.14,1.14,0,0,0,126.77,46h-1.2v2.3h1.15C127.59,48.27,128.05,47.86,128.05,47.11Z" transform="translate(-19.62 -15.2)"/><path d="M133.91,43.36v5.21h-.31V46h-2.31v2.58H131V43.36h.31V45.7h2.31V43.36Z" transform="translate(-19.62 -15.2)"/><path d="M139.83,47a1.54,1.54,0,0,1-1.6,1.61h-1.38v-5.2h.31v2h1.07A1.54,1.54,0,0,1,139.83,47Zm-.31,0a1.23,1.23,0,0,0-1.29-1.3h-1.07v2.62h1.07A1.24,1.24,0,0,0,139.52,47Zm1.41-3.59v5.2h-.31v-5.2Z" transform="translate(-19.62 -15.2)"/><path d="M143.88,43.36h.31V47c0,.3,0,.73,0,1h0c.08-.19.26-.56.41-.83l2-3.83h.32v5.22h-.3V45.09c0-.38,0-.87,0-1.2h0c-.12.27-.32.67-.47,1l-2,3.72h-.3Zm.5-1.89h.29c0,.51.27.79.73.79s.72-.28.73-.79h.28a1,1,0,0,1-1,1.06A1,1,0,0,1,144.38,41.47Z" transform="translate(-19.62 -15.2)"/><path d="M156.79,48.57h-.31V43.65h-2.31v4.92h-.31V43.36h2.93Z" transform="translate(-19.62 -15.2)"/><path d="M159.6,47V45a1.6,1.6,0,1,1,3.19,0v2a1.6,1.6,0,1,1-3.19,0Zm2.88,0V45a1.29,1.29,0,1,0-2.57,0v2a1.29,1.29,0,1,0,2.57,0Z" transform="translate(-19.62 -15.2)"/><path d="M168.75,45v2a1.55,1.55,0,0,1-1.52,1.71,1.48,1.48,0,0,1-1.31-.76v2.45h-.31v-7h.28l0,.76a1.43,1.43,0,0,1,1.37-.87A1.54,1.54,0,0,1,168.75,45Zm-.31,0c0-.9-.51-1.43-1.23-1.43a1.39,1.39,0,0,0-1.29,1.56V47a1.27,1.27,0,1,0,2.52-.07Z" transform="translate(-19.62 -15.2)"/><path d="M173.75,43.64h-1.33v4.93h-.31V43.64h-1.32v-.28h3Z" transform="translate(-19.62 -15.2)"/><path d="M179.07,44.84v3.73h-.28l0-.63a1.4,1.4,0,0,1-1.37.74,1.42,1.42,0,0,1-1.47-1.58c0-1,.62-1.52,1.73-1.52h1.11v-.74c0-.83-.41-1.3-1.16-1.3a1.12,1.12,0,0,0-1.21,1.07h-.31a1.42,1.42,0,0,1,1.53-1.36A1.39,1.39,0,0,1,179.07,44.84Zm-.3,2.18V45.87h-1.11c-.93,0-1.42.45-1.42,1.23a1.15,1.15,0,0,0,1.2,1.28A1.22,1.22,0,0,0,178.77,47Z" transform="translate(-19.62 -15.2)"/><path d="M181.43,48.35c.45,0,.66-.61.76-1.49s.13-1.84.15-3.5h2.47v5.21h-.3V43.65h-1.86c0,1.58-.1,2.67-.16,3.26-.1,1-.38,1.74-1.06,1.74Z" transform="translate(-19.62 -15.2)"/></g></g></svg>