<svg xmlns="http://www.w3.org/2000/svg" viewBox="0 0 474.91 103.99"><defs><style>.cls-1{fill:#f47920;}.cls-2,.cls-3,.cls-4,.cls-5{isolation:isolate;}.cls-3,.cls-4,.cls-5{font-size:42.51px;fill:#231f20;font-family:SegoeUI-Light, Segoe UI;font-weight:300;}.cls-4{letter-spacing:-0.02em;}.cls-5{letter-spacing:-0.03em;}</style></defs><g id="Слой_2" data-name="Слой 2"><g id="Слой_1-2" data-name="Слой 1"><g id="Слой_2-2" data-name="Слой 2"><g id="Layer_1" data-name="Layer 1"><path class="cls-1" d="M19.31,57.63H33.79c5.47,8.19,12.92,14.49,21.69,21.8,3.76,3.14,7.64,6.38,11.89,10.18l6.38,5.71,6.36-5.74c4.23-3.81,8.1-7.07,11.89-10.26,12.57-10.57,22.5-18.92,27.56-34.08l.19-.65c2.85-11.12,1.79-21.66-3-29.67A26.69,26.69,0,0,0,100.26,2.51C88-.6,79.26,4,73.59,8.27,67.88,4,59.2-.55,46.91,2.61A26.73,26.73,0,0,0,30.45,15.14c-3.93,6.67-5.26,15.08-3.95,24.1H19.27L19.19,1.13,0,1.18.19,96.47h19.2ZM46.87,24.81a7.61,7.61,0,0,1,4.76-3.7c5.74-1.47,8.73.8,13.53,4.94.88.76,1.71,1.47,2.52,2.11l5.94,4.72,5.93-4.74c.8-.64,1.63-1.36,2.51-2.13,4.78-4.16,7.77-6.43,13.51-5a7.61,7.61,0,0,1,4.78,3.68c2.09,3.51,2.44,8.92,1,14.87C97.93,49.44,91,55.24,79.69,64.78c-1.88,1.57-3.89,3.26-6,5.07-2.11-1.8-4.13-3.48-6-5C56.31,55.32,49.39,49.54,46,39.68,44.46,33.74,44.79,28.32,46.87,24.81Z"/><g class="cls-2"><text class="cls-3" transform="translate(159.18 36.13) scale(1.07 1)">Корпо</text><text class="cls-4" transform="translate(284.46 36.13) scale(1.07 1)">р</text><text class="cls-3" transform="translate(309.03 36.13) scale(1.07 1)">ативный</text><text class="cls-3" transform="translate(159.18 87.14) scale(1.07 1)">По</text><text class="cls-5" transform="translate(215.49 87.14) scale(1.07 1)">р</text><text class="cls-3" transform="translate(239.74 87.14) scale(1.07 1)">тал</text></g></g></g></g></g></svg>