<svg xmlns="http://www.w3.org/2000/svg" viewBox="0 0 24 24"><defs><style>.cls-1,.cls-2{fill:#fff;}.cls-1{opacity:0;}</style></defs><g id="Слой_2" data-name="Слой 2"><g id="Слой_1-2" data-name="Слой 1"><rect class="cls-1" width="24" height="24"/><path class="cls-2" d="M8.13,13.05H9.62a10.77,10.77,0,0,0,2.23,2.25c.39.32.79.66,1.22,1.05l.66.58.65-.59c.44-.39.84-.72,1.22-1a7.62,7.62,0,0,0,2.84-3.5l0-.07a4,4,0,0,0-.31-3.05,2.74,2.74,0,0,0-1.7-1.28A3.08,3.08,0,0,0,13.71,8,3.08,3.08,0,0,0,11,7.39a2.78,2.78,0,0,0-1.7,1.29,3.75,3.75,0,0,0-.4,2.47H8.12V7.23h-2l0,9.8h2ZM11,9.67a.8.8,0,0,1,.49-.38c.59-.15.9.08,1.4.51l.25.22.62.48.61-.49c.08-.06.16-.14.25-.22.5-.42.8-.66,1.39-.51a.79.79,0,0,1,.5.38,2.13,2.13,0,0,1,.1,1.53,6.12,6.12,0,0,1-2.23,2.59l-.62.52-.61-.52a6,6,0,0,1-2.24-2.58A2.14,2.14,0,0,1,11,9.67Z"/></g></g></svg>